<svg width="25" height="16" viewBox="0 0 25 16" fill="none" xmlns="http://www.w3.org/2000/svg">
<g clip-path="url(#clip0_11186_91610)">
<path d="M22.1057 0H2.16497C1.06368 0 0.170898 0.89543 0.170898 2V14C0.170898 15.1046 1.06368 16 2.16497 16H22.1057C23.207 16 24.0998 15.1046 24.0998 14V2C24.0998 0.89543 23.207 0 22.1057 0Z" fill="#016FD0"/>
<path fill-rule="evenodd" clip-rule="evenodd" d="M13.8943 13.3939V7.6925L24.0118 7.70161V9.27651L22.8424 10.5299L24.0118 11.7948V13.4031H22.1447L21.1525 12.3049L20.1673 13.4072L13.8943 13.3939Z" fill="#FFFFFE"/>
<path fill-rule="evenodd" clip-rule="evenodd" d="M14.5698 12.7688V8.31995H18.3309V9.34483H15.7876V10.0405H18.2703V11.0483H15.7876V11.7317H18.3309V12.7688H14.5698Z" fill="#016FD0"/>
<path fill-rule="evenodd" clip-rule="evenodd" d="M18.3123 12.7687L20.3935 10.5417L18.3123 8.31995H19.9231L21.1948 9.72998L22.4702 8.31995H24.0117V8.35495L21.9749 10.5417L24.0117 12.7056V12.7687H22.4546L21.1604 11.3446L19.8794 12.7687H18.3123Z" fill="#016FD0"/>
<path fill-rule="evenodd" clip-rule="evenodd" d="M14.3662 2.63196H16.805L17.6616 4.58281V2.63196H20.6725L21.1917 4.09353L21.7126 2.63196H24.0117V8.33335H11.8613L14.3662 2.63196Z" fill="#FFFFFE"/>
<path fill-rule="evenodd" clip-rule="evenodd" d="M14.8278 3.25134L12.8596 7.69651H14.2095L14.5808 6.80635H16.5928L16.9638 7.69651H18.3473L16.3873 3.25134H14.8278ZM14.9969 5.80878L15.5872 4.39371L16.177 5.80878H14.9969Z" fill="#016FD0"/>
<path fill-rule="evenodd" clip-rule="evenodd" d="M18.3289 7.69569V3.25061L20.2263 3.25715L21.2027 5.98988L22.1854 3.25061H24.0116V7.69569L22.8365 7.70612V4.65278L21.7272 7.69569H20.6546L19.5223 4.64235V7.69569H18.3289Z" fill="#016FD0"/>
</g>
<defs>
<clipPath id="clip0_11186_91610">
<rect width="23.9289" height="16" fill="white" transform="translate(0.170898)"/>
</clipPath>
</defs>
</svg>
