<svg width="48" height="49" viewBox="0 0 48 49" fill="none" xmlns="http://www.w3.org/2000/svg">
<path fill-rule="evenodd" clip-rule="evenodd" d="M24 7.00146C14.6112 7.00146 7 14.6126 7 24.0015C7 33.3903 14.6112 41.0015 24 41.0015C33.3888 41.0015 41 33.3903 41 24.0015C41 14.6126 33.3888 7.00146 24 7.00146ZM5 24.0015C5 13.5081 13.5066 5.00146 24 5.00146C34.4934 5.00146 43 13.5081 43 24.0015C43 34.4949 34.4934 43.0015 24 43.0015C13.5066 43.0015 5 34.4949 5 24.0015ZM25.2929 17.2944C25.6834 16.9038 26.3166 16.9038 26.7071 17.2944L32.7071 23.2944C33.0976 23.6849 33.0976 24.318 32.7071 24.7086L26.7071 30.7086C26.3166 31.0991 25.6834 31.0991 25.2929 30.7086C24.9024 30.318 24.9024 29.6849 25.2929 29.2944L29.5858 25.0015L16 25.0015C15.4477 25.0015 15 24.5537 15 24.0015C15 23.4492 15.4477 23.0015 16 23.0015L29.5858 23.0015L25.2929 18.7086C24.9024 18.318 24.9024 17.6849 25.2929 17.2944Z" fill="#2EFFB4"/>
</svg>
