<svg width="16" height="16" viewBox="0 0 16 16" fill="none" xmlns="http://www.w3.org/2000/svg">
<path fill-rule="evenodd" clip-rule="evenodd" d="M8.803 2.80304C9.0959 2.51015 9.57077 2.51015 9.86366 2.80304L14.5303 7.46971C14.671 7.61036 14.75 7.80113 14.75 8.00004C14.75 8.19895 14.671 8.38972 14.5303 8.53037L9.86366 13.197C9.57077 13.4899 9.0959 13.4899 8.803 13.197C8.51011 12.9041 8.51011 12.4293 8.803 12.1364L12.1893 8.75004L2 8.75004C1.58579 8.75004 1.25 8.41425 1.25 8.00004C1.25 7.58583 1.58579 7.25004 2 7.25004L12.1893 7.25004L8.803 3.8637C8.51011 3.57081 8.51011 3.09594 8.803 2.80304Z" fill="#161716"/>
</svg>
