<svg width="612" height="90" viewBox="0 0 612 90" fill="none" xmlns="http://www.w3.org/2000/svg">
<path d="M489.6 59.9998L489.6 89.9997L612 90L612 60.0001L489.6 59.9998Z" fill="#005632"/>
<path d="M244.8 59.9998L244.8 89.9997L367.2 90L367.2 60.0001L244.8 59.9998Z" fill="#005632"/>
<path d="M367.2 29.9998L367.2 59.9996L489.6 60L489.6 30.0001L367.2 29.9998Z" fill="#005632"/>
<path d="M489.6 -1.71661e-05L489.6 29.9999L612 30.0002L612 0.000303104L489.6 -1.71661e-05Z" fill="#005632"/>
<path d="M122.4 30.0001L122.4 60L244.8 59.9996L244.8 29.9998L122.4 30.0001Z" fill="#005632"/>
<path d="M-7.86172e-05 60.0001L0 90L122.4 89.9997L122.4 59.9998L-7.86172e-05 60.0001Z" fill="#005632"/>
</svg>
