<svg width="36" height="24" viewBox="0 0 36 24" fill="none" xmlns="http://www.w3.org/2000/svg">
<path opacity="0.2" d="M32.9959 23.9999H3.00414C2.61289 24.0032 2.22482 23.9281 1.8621 23.7788C1.49938 23.6295 1.16911 23.409 0.890145 23.1299C0.611183 22.8507 0.388992 22.5184 0.23626 22.1518C0.0835282 21.7853 0.00324685 21.3917 0 20.9936L0 3.0064C0.00324685 2.60828 0.0835282 2.21472 0.23626 1.84818C0.388992 1.48164 0.611183 1.14929 0.890145 0.870132C1.16911 0.59097 1.49938 0.370453 1.8621 0.221173C2.22482 0.0718935 2.61289 -0.00322529 3.00414 0.000106144H32.9959C33.3871 -0.00322529 33.7752 0.0718935 34.1379 0.221173C34.5006 0.370453 34.8309 0.59097 35.1099 0.870132C35.3888 1.14929 35.611 1.48164 35.7637 1.84818C35.9165 2.21472 35.9968 2.60828 36 3.0064V21.0062C35.9902 21.8081 35.6685 22.5733 35.1055 23.1343C34.5425 23.6954 33.7839 24.0066 32.9959 23.9999V23.9999ZM12.4138 7.36425C12.4138 6.7832 11.9793 6.31584 11.4455 6.31584H4.69241C4.15862 6.31584 3.72414 6.7832 3.72414 7.36425V11.5832C3.72414 12.1642 4.15862 12.6316 4.69241 12.6316H11.4455C11.9793 12.6316 12.4138 12.1642 12.4138 11.5832V7.36425Z" fill="black"/>
<rect y="4" width="36" height="9" fill="#CCCCCC"/>
<rect y="4" width="36" height="6" fill="#FAF8F7"/>
</svg>
