<svg width="24" height="16" viewBox="0 0 24 16" fill="none" xmlns="http://www.w3.org/2000/svg">
<g clip-path="url(#clip0_11380_93449)">
<path opacity="0.2" d="M16.26 1.50006C15.7452 1.84211 15.3064 2.28653 14.9709 2.80563C14.6354 3.32472 14.4105 3.90736 14.3101 4.51722C14.2097 5.12708 14.236 5.75108 14.3874 6.35032C14.5388 6.94956 14.812 7.51119 15.19 8.0002C15.568 8.48921 16.0426 8.89512 16.5844 9.1926C17.1262 9.49009 17.7234 9.67279 18.3389 9.7293C18.9543 9.78582 19.5749 9.71494 20.1617 9.52109C20.7486 9.32723 21.2893 9.01456 21.75 8.60256V13.9651C21.748 14.2014 21.6995 14.4351 21.6073 14.6528C21.515 14.8704 21.3807 15.0677 21.2122 15.2335C21.0437 15.3992 20.8441 15.5302 20.625 15.6188C20.4058 15.7074 20.1714 15.752 19.935 15.7501H1.815C1.57862 15.752 1.34416 15.7074 1.12502 15.6188C0.905875 15.5302 0.706336 15.3992 0.537796 15.2335C0.369256 15.0677 0.235016 14.8704 0.14274 14.6528C0.050465 14.4351 0.00196164 14.2014 0 13.9651L0 3.28506C0.00196164 3.04868 0.050465 2.815 0.14274 2.59736C0.235016 2.37973 0.369256 2.1824 0.537796 2.01665C0.706336 1.85089 0.905875 1.71996 1.12502 1.63132C1.34416 1.54269 1.57862 1.49808 1.815 1.50006H16.26ZM7.5 5.87256C7.5 5.52756 7.2375 5.25006 6.915 5.25006H2.835C2.5125 5.25006 2.25 5.52756 2.25 5.87256V8.37756C2.25 8.72256 2.5125 9.00006 2.835 9.00006H6.915C7.2375 9.00006 7.5 8.72256 7.5 8.37756V5.87256Z" fill="#FA755A"/>
<path opacity="0.3" d="M18.75 12.75H16.5C16.0125 12.75 15.75 12.525 15.75 12C15.75 11.475 16.0125 11.25 16.5 11.25H18.75C19.2375 11.25 19.5 11.475 19.5 12C19.5 12.525 19.2375 12.75 18.75 12.75ZM14.25 12.75H12C11.5125 12.75 11.25 12.525 11.25 12C11.25 11.475 11.5125 11.25 12 11.25H14.25C14.7375 11.25 15 11.475 15 12C15 12.525 14.7375 12.75 14.25 12.75ZM9.75 12.75H7.5C7.0125 12.75 6.75 12.525 6.75 12C6.75 11.475 7.0125 11.25 7.5 11.25H9.75C10.2375 11.25 10.5 11.475 10.5 12C10.5 12.525 10.2375 12.75 9.75 12.75ZM5.25 12.75H3C2.5125 12.75 2.25 12.525 2.25 12C2.25 11.475 2.5125 11.25 3 11.25H5.25C5.7375 11.25 6 11.475 6 12C6 12.525 5.7375 12.75 5.25 12.75Z" fill="#FA755A"/>
<path d="M18.75 10.5C17.3576 10.5 16.0223 9.94688 15.0377 8.96231C14.0531 7.97774 13.5 6.64239 13.5 5.25C13.5 3.85761 14.0531 2.52226 15.0377 1.53769C16.0223 0.553123 17.3576 0 18.75 0C20.1424 0 21.4777 0.553123 22.4623 1.53769C23.4469 2.52226 24 3.85761 24 5.25C24 6.64239 23.4469 7.97774 22.4623 8.96231C21.4777 9.94688 20.1424 10.5 18.75 10.5ZM18 2.25V5.25C18 5.44891 18.079 5.63968 18.2197 5.78033C18.3603 5.92098 18.5511 6 18.75 6C18.9489 6 19.1397 5.92098 19.2803 5.78033C19.421 5.63968 19.5 5.44891 19.5 5.25V2.25C19.5 2.05109 19.421 1.86032 19.2803 1.71967C19.1397 1.57902 18.9489 1.5 18.75 1.5C18.5511 1.5 18.3603 1.57902 18.2197 1.71967C18.079 1.86032 18 2.05109 18 2.25ZM18.75 8.8125C18.9986 8.8125 19.2371 8.71373 19.4129 8.53791C19.5887 8.3621 19.6875 8.12364 19.6875 7.875C19.6875 7.62636 19.5887 7.3879 19.4129 7.21209C19.2371 7.03627 18.9986 6.9375 18.75 6.9375C18.5014 6.9375 18.2629 7.03627 18.0871 7.21209C17.9113 7.3879 17.8125 7.62636 17.8125 7.875C17.8125 8.12364 17.9113 8.3621 18.0871 8.53791C18.2629 8.71373 18.5014 8.8125 18.75 8.8125Z" fill="#FA755A"/>
</g>
<defs>
<clipPath id="clip0_11380_93449">
<rect width="24" height="15.75" fill="white"/>
</clipPath>
</defs>
</svg>
