<svg width="1440" height="88" viewBox="0 0 1440 88" fill="none" xmlns="http://www.w3.org/2000/svg">
<path d="M0 58.6548L0 87.9881L120.005 87.9881V58.6548L0 58.6548Z" fill="white"/>
<path d="M239.998 58.6548V87.9881L360.003 87.9881V58.6548L239.998 58.6548Z" fill="white"/>
<path d="M120.005 29.3335V58.6668L240.01 58.6668V29.3335L120.005 29.3335Z" fill="white"/>
<path d="M0.012207 4.19617e-05L0.012207 29.3333L120.017 29.3333V4.19617e-05L0.012207 4.19617e-05Z" fill="white"/>
<path d="M359.991 29.3214V58.6546L479.996 58.6546V29.3214L359.991 29.3214Z" fill="white"/>
<path d="M479.996 58.6548V87.9881L600.001 87.9881V58.6548L479.996 58.6548Z" fill="white"/>
<path d="M720.006 58.6667V88.0001L840.011 88.0001V58.6667L720.006 58.6667Z" fill="white"/>
<path d="M839.999 29.3335V58.6668L960.004 58.6668V29.3335L839.999 29.3335Z" fill="white"/>
<path d="M1200.01 5.72205e-06V29.3333L1320.02 29.3333V5.72205e-06L1200.01 5.72205e-06Z" fill="white"/>
<path d="M1080 29.3334V58.6667L1200 58.6667V29.3334L1080 29.3334Z" fill="white"/>
<path d="M960 57.9999V87.3333L1080.01 87.3333V57.9999L960 57.9999Z" fill="white"/>
<path d="M1320 29.3332V58.6666L1440 58.6666V29.3332L1320 29.3332Z" fill="white"/>
<path d="M1200 58.6548V87.9881L1320.01 87.9881V58.6548L1200 58.6548Z" fill="white"/>
</svg>
