<?xml version="1.0" encoding="utf-8"?>
<!-- Generator: Adobe Illustrator 27.1.1, SVG Export Plug-In . SVG Version: 6.00 Build 0)  -->
<svg version="1.1" id="Layer_1" xmlns="http://www.w3.org/2000/svg" xmlns:xlink="http://www.w3.org/1999/xlink" x="0px" y="0px"
	 viewBox="0 0 16 16" style="enable-background:new 0 0 16 16;" xml:space="preserve">
<style type="text/css">
	.st0{fill-rule:evenodd;clip-rule:evenodd;fill:#161716;}
</style>
<path class="st0" d="M6.8,6c0,0.4-0.3,0.8-0.8,0.8H3.3C2.9,6.7,2.6,6.4,2.6,6c0-0.4,0.3-0.8,0.8-0.8h0.9L2.1,3.2
	c-0.3-0.3-0.3-0.8,0-1.1c0.3-0.3,0.8-0.3,1.1,0l2.1,2.1V3.3c0-0.4,0.3-0.8,0.8-0.8c0.4,0,0.8,0.3,0.8,0.8V6z M12.7,6.7H10
	C9.6,6.7,9.3,6.4,9.3,6V3.3c0-0.4,0.3-0.8,0.8-0.8c0.4,0,0.8,0.3,0.8,0.8v0.9l2.1-2.1c0.3-0.3,0.8-0.3,1.1,0c0.3,0.3,0.3,0.8,0,1.1
	l-2.1,2.1h0.9c0.4,0,0.8,0.3,0.8,0.8C13.4,6.4,13.1,6.7,12.7,6.7z M2.1,13.9c-0.3-0.3-0.3-0.8,0-1.1l2.1-2.1H3.3
	c-0.4,0-0.8-0.3-0.8-0.8s0.3-0.8,0.8-0.8H6c0.4,0,0.8,0.3,0.8,0.8v2.7c0,0.4-0.3,0.7-0.8,0.7c-0.4,0-0.8-0.3-0.8-0.7v-0.9l-2.1,2.1
	C2.9,14.2,2.4,14.2,2.1,13.9z M13.9,13.9c-0.3,0.3-0.8,0.3-1.1,0l-2.1-2.1v0.9c0,0.4-0.3,0.7-0.8,0.7c-0.4,0-0.8-0.3-0.8-0.7V10
	c0-0.4,0.3-0.8,0.8-0.8h2.7c0.4,0,0.8,0.3,0.8,0.8s-0.3,0.8-0.8,0.8h-0.9l2.1,2.1C14.2,13.1,14.2,13.6,13.9,13.9z"/>
</svg>
