<svg width="120" height="83" viewBox="0 0 120 83" fill="none" xmlns="http://www.w3.org/2000/svg">
<path opacity="0.2" d="M109.986 82.2896H10.0138C8.70962 82.3011 7.41607 82.0435 6.207 81.5316C4.99793 81.0198 3.89703 80.2637 2.96715 79.3065C2.03728 78.3493 1.29664 77.2098 0.787534 75.9531C0.278427 74.6963 0.0108228 73.3469 0 71.9818L0 10.3082C0.0108228 8.94315 0.278427 7.59372 0.787534 6.33694C1.29664 5.08016 2.03728 3.94065 2.96715 2.98347C3.89703 2.02629 4.99793 1.27019 6.207 0.758348C7.41607 0.246505 8.70962 -0.0110587 10.0138 0.000363942H109.986C111.29 -0.0110587 112.584 0.246505 113.793 0.758348C115.002 1.27019 116.103 2.02629 117.033 2.98347C117.963 3.94065 118.703 5.08016 119.212 6.33694C119.722 7.59372 119.989 8.94315 120 10.3082V72.0251C119.967 74.7744 118.895 77.3981 117.018 79.3219C115.142 81.2456 112.613 82.3128 109.986 82.2896ZM41.3793 25.2502C41.3793 23.2579 39.931 21.6554 38.1517 21.6554H15.6414C13.8621 21.6554 12.4138 23.2579 12.4138 25.2502V39.7158C12.4138 41.708 13.8621 43.3105 15.6414 43.3105H38.1517C39.931 43.3105 41.3793 41.708 41.3793 39.7158V25.2502Z" fill="#626E60"/>
<path opacity="0.3" d="M103.448 62.1431H91.0338C88.3441 62.1431 86.8959 60.9003 86.8959 58.0004C86.8959 55.1005 88.3441 53.8577 91.0338 53.8577H103.448C106.137 53.8577 107.586 55.1005 107.586 58.0004C107.586 60.9003 106.137 62.1431 103.448 62.1431ZM78.62 62.1431H66.2062C63.5165 62.1431 62.0683 60.9003 62.0683 58.0004C62.0683 55.1005 63.5165 53.8577 66.2062 53.8577H78.62C81.3096 53.8577 82.7579 55.1005 82.7579 58.0004C82.7579 60.9003 81.3096 62.1431 78.62 62.1431ZM53.7924 62.1431H41.3786C38.6889 62.1431 37.2407 60.9003 37.2407 58.0004C37.2407 55.1005 38.6889 53.8577 41.3786 53.8577H53.7924C56.4821 53.8577 57.9303 55.1005 57.9303 58.0004C57.9303 60.9003 56.4821 62.1431 53.7924 62.1431ZM28.9648 62.1431H16.551C13.8614 62.1431 12.4131 60.9003 12.4131 58.0004C12.4131 55.1005 13.8614 53.8577 16.551 53.8577H28.9648C31.6545 53.8577 33.1027 55.1005 33.1027 58.0004C33.1027 60.9003 31.6545 62.1431 28.9648 62.1431Z" fill="#626E60"/>
</svg>
