<svg width="612" height="90" viewBox="0 0 612 90" fill="none" xmlns="http://www.w3.org/2000/svg">
<path d="M489.6 59.9999L489.6 89.9998L612 90.0001L612 60.0002L489.6 59.9999Z" fill="#1D472E"/>
<path d="M244.8 59.9999L244.8 89.9998L367.2 90.0001L367.2 60.0002L244.8 59.9999Z" fill="#1D472E"/>
<path d="M367.2 29.9999L367.2 59.9998L489.6 60.0001L489.6 30.0002L367.2 29.9999Z" fill="#1D472E"/>
<path d="M489.6 -0.000116348L489.6 29.9998L612 30.0001L612 0.000203909L489.6 -0.000116348Z" fill="#1D472E"/>
<path d="M122.4 30.0004L122.4 60.0002L244.8 59.9999L244.8 30.0001L122.4 30.0004Z" fill="#1D472E"/>
<path d="M1.29329e-05 60.0004L9.15527e-05 90.0002L122.4 89.9999L122.4 60.0001L1.29329e-05 60.0004Z" fill="#1D472E"/>
</svg>
