<svg width="26" height="26" viewBox="0 0 26 26" fill="none" xmlns="http://www.w3.org/2000/svg">
<rect width="26" height="26" rx="13" fill="#E6E6E6"/>
<path d="M16.9806 9.01924L17.321 8.67878V8.67878L16.9806 9.01924ZM10.3517 17.3504V17.8319C10.4794 17.8319 10.6019 17.7812 10.6921 17.6909L10.3517 17.3504ZM8.6665 17.3504H8.18502C8.18502 17.6164 8.40059 17.8319 8.6665 17.8319V17.3504ZM8.6665 15.631L8.32605 15.2906C8.23575 15.3809 8.18502 15.5033 8.18502 15.631H8.6665ZM15.6188 9.3597C15.9008 9.07766 16.3581 9.07766 16.6401 9.3597L17.321 8.67878C16.6629 8.02068 15.5959 8.02068 14.9378 8.67878L15.6188 9.3597ZM16.6401 9.3597C16.9222 9.64175 16.9222 10.099 16.6401 10.3811L17.321 11.062C17.9792 10.4039 17.9792 9.33689 17.321 8.67878L16.6401 9.3597ZM16.6401 10.3811L10.0112 17.01L10.6921 17.6909L17.321 11.062L16.6401 10.3811ZM10.3517 16.869H8.6665V17.8319H10.3517V16.869ZM14.9378 8.67878L8.32605 15.2906L9.00696 15.9715L15.6188 9.3597L14.9378 8.67878ZM8.18502 15.631V17.3504H9.14799V15.631H8.18502ZM14.2156 10.0819L15.9179 11.7842L16.5988 11.1033L14.8965 9.40101L14.2156 10.0819Z" fill="#333333"/>
</svg>
