<?xml version="1.0" encoding="utf-8"?>
<!-- Generator: Adobe Illustrator 26.5.0, SVG Export Plug-In . SVG Version: 6.00 Build 0)  -->
<svg version="1.1" id="Layer_1" xmlns="http://www.w3.org/2000/svg" xmlns:xlink="http://www.w3.org/1999/xlink" x="0px" y="0px"
	 viewBox="0 0 40 40" style="enable-background:new 0 0 40 40;" xml:space="preserve">
<style type="text/css">
	.st0{fill:#1D472E;}
	.st1{fill:#2EFFB4;}
</style>
<path class="st0" d="M-10.5-0.8h60.9c0.5,0,1,0.4,1,1v39.8c0,0.5-0.4,1-1,1h-60.9c-0.5,0-1-0.4-1-1V0.1C-11.4-0.4-11-0.8-10.5-0.8z"
	/>
<g>
	<g>
		<path class="st1" d="M35.3,30.2l-30.1,0V21l6.8-2.8v-3.7l8.3-4.7l8.3,4.7v3.7l6.8,2.8V30.2z M5.6,29.7l29.2,0v-8.5L28,18.5v-3.8
			l-7.8-4.5l-7.8,4.5v3.7l-6.8,2.8V29.7z"/>
	</g>
	<g>
		<path class="st1" d="M22.7,19.9h-4.9v-3.9h4.9V19.9z M18.2,19.5h4v-3h-4V19.5z"/>
	</g>
	<g>
		
			<rect x="13.8" y="26.4" transform="matrix(0.8526 -0.5225 0.5225 0.8526 -10.9448 14.4931)" class="st1" width="12.8" height="0.5"/>
	</g>
	<g>
		
			<rect x="20" y="20.2" transform="matrix(0.5223 -0.8528 0.8528 0.5223 -13.0661 29.9737)" class="st1" width="0.5" height="12.8"/>
	</g>
	<g>
		<polygon class="st1" points="25.9,30 25.5,30 25.5,23.5 15,23.5 15,30 14.5,30 14.5,23.1 25.9,23.1 		"/>
	</g>
</g>
</svg>
