<svg width="612" height="90" viewBox="0 0 612 90" fill="none" xmlns="http://www.w3.org/2000/svg">
<path d="M489.6 60L489.6 89.9999L612 90.0002L612 60.0003L489.6 60Z" fill="#005632"/>
<path d="M244.8 60L244.8 89.9999L367.2 90.0002L367.2 60.0003L244.8 60Z" fill="#005632"/>
<path d="M367.2 30L367.2 59.9999L489.6 60.0002L489.6 30.0004L367.2 30Z" fill="#005632"/>
<path d="M489.6 5.72205e-06L489.6 29.9999L612 30.0002L612 0.000325976L489.6 5.72205e-06Z" fill="#005632"/>
<path d="M122.4 30.0004L122.4 60.0002L244.8 59.9999L244.8 30.0001L122.4 30.0004Z" fill="#005632"/>
<path d="M-7.86207e-05 60.0004L0 90.0002L122.4 89.9999L122.4 60.0001L-7.86207e-05 60.0004Z" fill="#005632"/>
</svg>
