<svg width="72" height="72" viewBox="0 0 72 72" fill="none" xmlns="http://www.w3.org/2000/svg">
<path d="M36 63C50.9117 63 63 50.9117 63 36C63 21.0883 50.9117 9 36 9C21.0883 9 9 21.0883 9 36C9 50.9117 21.0883 63 36 63Z" stroke="#2EFFB4" stroke-width="2" stroke-linecap="round" stroke-linejoin="round"/>
<path d="M26.3514 10.9054C26.3514 10.9054 31.8751 16.6216 30.9933 20.0777C30.1115 23.5338 29.4325 25.9358 26.169 24.1926C22.9055 22.4493 18.9831 26.625 21.2635 28.2466C23.5439 29.8683 26.9696 29.4831 29.5744 31.2872C32.1791 33.0912 31.7636 36.4358 33.9832 36.0608C36.2028 35.6858 37.0237 31.1656 39.5271 32.9392C42.0305 34.7128 39.598 40.6216 37.3683 43.7534C35.1386 46.8852 37.794 48.1419 36.7906 49.5507C35.7872 50.9595 34.2264 52.3682 34.6116 54.6892C34.9967 57.0101 30.0406 60.2432 28.6622 56.4324C27.2839 52.6216 28.1858 46.5 26.1993 45.0811C24.2129 43.6622 20.3818 39.973 20.9696 35.9189C21.5575 31.8649 11.848 27.0304 11.848 27.0304" stroke="#2EFFB4" stroke-width="2" stroke-linecap="round" stroke-linejoin="round"/>
<path d="M62.1588 29.3209C62.1588 29.3209 54.9629 29.5338 52.6622 28.2162C50.3615 26.8986 45.4156 29.6655 46.3176 34.7331C47.2196 39.8007 51.1419 36.9425 54.1825 39.9932C57.223 43.0439 52.5913 46.3682 54.1825 47.9595C55.7737 49.5507 56.7771 51.1622 55.2669 54.902" stroke="#2EFFB4" stroke-width="2" stroke-linecap="round" stroke-linejoin="round"/>
<path d="M46.9561 11.3311C46.9561 11.3311 40.8751 16.6115 42.1521 19.3379C43.4291 22.0642 45.0102 21.1318 46.9561 20.0068C48.9021 18.8818 49.196 17.6149 51.3953 18.8818C53.5946 20.1487 57.4764 19.6318 57.4764 19.6318" stroke="#2EFFB4" stroke-width="2" stroke-linecap="round" stroke-linejoin="round"/>
</svg>
