<svg width="559" height="80" viewBox="0 0 559 80" fill="none" xmlns="http://www.w3.org/2000/svg">
<path d="M447.295 53.6616L447.295 79.9995L559 79.9998L559 53.6619L447.295 53.6616Z" fill="#007142"/>
<path d="M223.885 53.6616L223.885 79.9995L335.59 79.9998L335.59 53.6619L223.885 53.6616Z" fill="#007142"/>
<path d="M335.59 27.3238L335.59 53.6616L447.295 53.6619L447.295 27.324L335.59 27.3238Z" fill="#007142"/>
<path d="M447.295 0.985836L447.295 27.3237L559 27.324L559 0.986117L447.295 0.985836Z" fill="#007142"/>
<path d="M112.181 27.3237L112.181 53.6616L223.885 53.6613L223.885 27.3235L112.181 27.3237Z" fill="#007142"/>
<path d="M0.475514 53.6616L0.475586 79.9995L112.18 79.9992L112.18 53.6614L0.475514 53.6616Z" fill="#007142"/>
</svg>
