<svg width="40" height="40" viewBox="0 0 40 40" fill="none" xmlns="http://www.w3.org/2000/svg">
<path d="M20 40C31.0457 40 40 31.0457 40 20C40 8.9543 31.0457 0 20 0C8.9543 0 0 8.9543 0 20C0 31.0457 8.9543 40 20 40Z" fill="#2EFFB4"/>
<path d="M39.34 25C37.8316 22.9825 36.4682 20.8605 35.26 18.65C32.51 14.51 30.15 12.28 27.26 10.55C25.1893 9.46479 22.8971 8.8695 20.56 8.81003C20.4 8.61003 20.25 8.41003 20.11 8.20003C19.5132 7.53448 18.8824 6.9003 18.22 6.30003C18.1 6.22003 17.94 6.11003 17.79 6.16003C17.7181 6.17896 17.6562 6.22481 17.6171 6.28808C17.578 6.35136 17.5647 6.42724 17.58 6.50003C17.6166 6.59375 17.6672 6.6814 17.73 6.76003C17.8205 6.90417 17.9007 7.05454 17.97 7.21003C18.0968 7.91482 18.2945 8.60499 18.56 9.27003V9.32003C18.56 9.32003 18.11 9.44003 17.98 9.10003C17.7083 8.49624 17.2581 7.9902 16.69 7.65003C16.3322 7.33415 16.0193 6.97078 15.76 6.57003C15.67 6.43003 15.57 6.08003 15.34 6.16003C15.299 6.1824 15.2651 6.2158 15.2421 6.25645C15.2192 6.2971 15.208 6.34338 15.21 6.39003C15.1836 6.68611 15.1836 6.98395 15.21 7.28003C15.2594 7.62905 15.3676 7.96717 15.53 8.28003C15.68 8.63003 15.8 8.99003 15.92 9.35003C16.18 10.1 16.3 10.04 16.25 10.1C16.0402 10.3533 15.8528 10.6243 15.69 10.91C15.61 11.09 15.69 11.47 15.69 11.52C15.487 11.8314 15.2631 12.1288 15.02 12.41C14.6133 13.0059 14.1549 13.5647 13.65 14.08C13.36 14.38 13.08 14.69 13.01 14.79C12.81 15.07 12.79 15.15 12.78 15.69V16C12.78 16.16 12.78 16.25 12.41 16.85C12.04 17.45 11.89 17.75 11.6 18.18C10.55 19.77 8.32001 23.31 7.60001 24.24L7.26001 24.69C7.14213 24.8317 7.03516 24.9822 6.94001 25.14C6.82338 25.5213 6.82338 25.9287 6.94001 26.31C6.97006 26.6623 7.07479 27.0041 7.24721 27.3127C7.41963 27.6214 7.6558 27.8898 7.94001 28.1C8.38001 28.67 8.62001 29.83 10.24 29.35C10.24 29.35 10.38 29.81 11.24 29.65L12.63 29.13C12.8852 29.0445 13.1015 28.8708 13.24 28.64C13.3215 28.4821 13.366 28.3077 13.37 28.13C13.3767 28.0712 13.3952 28.0142 13.4244 27.9627C13.4536 27.9111 13.4929 27.866 13.54 27.83C14.29 26.93 16.61 26.03 18.11 24.83C18.1335 24.8137 18.1614 24.8049 18.19 24.8049C18.2186 24.8049 18.2465 24.8137 18.27 24.83V24.83C18.6119 24.8815 18.9613 24.8256 19.27 24.67C19.85 24.43 20.04 24.15 20.39 24.11C20.5754 24.0796 20.7646 24.0796 20.95 24.11C20.95 24.11 21.15 24.21 21.15 24.24C21.2026 24.2537 21.2487 24.2856 21.28 24.33C21.3879 24.423 21.4821 24.5308 21.56 24.65C21.5879 24.6739 21.6087 24.7051 21.62 24.74C21.8147 25.0271 21.9821 25.3317 22.12 25.65C22.19 25.85 22.33 26.38 22.41 26.73C22.5274 27.4851 22.6008 28.2464 22.63 29.01C22.6314 30.3521 22.7789 31.69 23.07 33C23.17 33.36 23.26 33.77 23.39 34.38C23.5598 34.9303 23.6408 35.5042 23.63 36.08C23.5402 36.7398 23.3997 37.3917 23.21 38.03C23.06 38.6 22.93 39.18 22.8 39.76C26.7052 39.205 30.3591 37.5076 33.3021 34.8813C36.2451 32.255 38.3458 28.8171 39.34 25Z" fill="#1D472E"/>
</svg>
