<svg width="32" height="33" viewBox="0 0 32 33" fill="none" xmlns="http://www.w3.org/2000/svg">
<path fill-rule="evenodd" clip-rule="evenodd" d="M16 6.33472C9.8109 6.33472 5.00002 10.7701 5.00002 16.0014C5.00002 17.8779 5.60853 19.6345 6.67393 21.1271C6.86733 21.3981 6.91322 21.7475 6.79633 22.0592L5.56804 25.3346L10.1301 24.4222C10.3422 24.3798 10.5623 24.4073 10.7574 24.5005C12.3121 25.2434 14.0968 25.6681 16 25.6681C22.1891 25.6681 27 21.2327 27 16.0014C27 10.7701 22.1891 6.33472 16 6.33472ZM3.00002 16.0014C3.00002 9.45059 8.93429 4.33472 16 4.33472C23.0657 4.33472 29 9.45059 29 16.0014C29 22.5522 23.0657 27.6681 16 27.6681C13.9213 27.6681 11.9515 27.23 10.2026 26.4473L4.19613 27.6486C3.84009 27.7198 3.47343 27.5925 3.23822 27.3159C3.003 27.0393 2.9362 26.6569 3.06369 26.3169L4.74206 21.8413C3.6378 20.1292 3.00002 18.1342 3.00002 16.0014ZM9.66668 16.0014C9.66668 15.4491 10.1144 15.0014 10.6667 15.0014H10.68C11.2323 15.0014 11.68 15.4491 11.68 16.0014C11.68 16.5537 11.2323 17.0014 10.68 17.0014H10.6667C10.1144 17.0014 9.66668 16.5537 9.66668 16.0014ZM15 16.0014C15 15.4491 15.4477 15.0014 16 15.0014H16.0133C16.5656 15.0014 17.0133 15.4491 17.0133 16.0014C17.0133 16.5537 16.5656 17.0014 16.0133 17.0014H16C15.4477 17.0014 15 16.5537 15 16.0014ZM20.3333 16.0014C20.3333 15.4491 20.7811 15.0014 21.3333 15.0014H21.3467C21.899 15.0014 22.3467 15.4491 22.3467 16.0014C22.3467 16.5537 21.899 17.0014 21.3467 17.0014H21.3333C20.7811 17.0014 20.3333 16.5537 20.3333 16.0014Z" fill="#1D472E"/>
</svg>
