<svg width="122" height="85" viewBox="0 0 122 85" fill="none" xmlns="http://www.w3.org/2000/svg">
<rect x="1" y="1" width="120" height="82.2857" rx="6" fill="white"/>
<path fill-rule="evenodd" clip-rule="evenodd" d="M34.9429 53.2547H29.6094C29.2444 53.2547 28.934 53.52 28.8771 53.8801L26.72 67.5569C26.6771 67.8269 26.8861 68.0701 27.1598 68.0701H29.7061C30.0711 68.0701 30.3815 67.8049 30.4384 67.444L31.0202 63.7552C31.0763 63.3939 31.3875 63.129 31.7517 63.129H33.4401C36.9535 63.129 38.9811 61.4288 39.5109 58.0598C39.7495 56.5858 39.521 55.4277 38.8306 54.6164C38.0727 53.726 36.728 53.2547 34.9429 53.2547ZM35.5583 58.25C35.2667 60.1638 33.8044 60.1638 32.3905 60.1638H31.5856L32.1502 56.5894C32.1838 56.3736 32.3709 56.2145 32.5893 56.2145H32.9582C33.9213 56.2145 34.83 56.2145 35.2995 56.7634C35.5792 57.0911 35.6651 57.5776 35.5583 58.25ZM50.8862 58.1886H48.3321C48.1145 58.1886 47.9264 58.3478 47.8929 58.5639L47.7799 59.2782L47.6013 59.0194C47.0484 58.2168 45.8155 57.9486 44.5848 57.9486C41.7622 57.9486 39.3517 60.0862 38.8822 63.085C38.6382 64.5806 38.9851 66.0108 39.8335 67.0084C40.612 67.9254 41.7258 68.3076 43.0506 68.3076C45.3247 68.3076 46.586 66.8452 46.586 66.8452L46.472 67.5551C46.4291 67.8265 46.638 68.0698 46.9101 68.0698H49.2109C49.5768 68.0698 49.8854 67.8045 49.9432 67.4436L51.3236 58.7018C51.3673 58.4329 51.159 58.1886 50.8862 58.1886ZM47.3259 63.1597C47.0794 64.6188 45.9213 65.5983 44.4444 65.5983C43.7028 65.5983 43.1098 65.3605 42.7294 64.9097C42.3519 64.4622 42.2083 63.8248 42.3285 63.1153C42.5587 61.6684 43.7364 60.6572 45.1908 60.6572C45.9158 60.6572 46.5056 60.8979 46.8939 61.3526C47.2829 61.8121 47.4374 62.453 47.3259 63.1597ZM61.9223 58.1882H64.489C64.8485 58.1882 65.0582 58.5914 64.8539 58.8862L56.3174 71.2082C56.1792 71.4078 55.9515 71.5265 55.7082 71.5265H53.1447C52.7838 71.5265 52.5731 71.1201 52.782 70.8245L55.4401 67.0726L52.6131 58.7762C52.5153 58.4878 52.7283 58.1882 53.035 58.1882H55.557C55.8847 58.1882 56.1738 58.4033 56.2684 58.717L57.7686 63.7277L61.3087 58.5134C61.4473 58.3099 61.6776 58.1882 61.9223 58.1882Z" fill="#253B80"/>
<path fill-rule="evenodd" clip-rule="evenodd" d="M89.7502 67.5568L91.9391 53.6299C91.9726 53.4137 92.1599 53.2546 92.3776 53.2538H94.8418C95.1139 53.2538 95.3229 53.4978 95.28 53.7678L93.1214 67.4438C93.0651 67.8047 92.7547 68.07 92.3891 68.07H90.1883C89.9162 68.07 89.7072 67.8268 89.7502 67.5568ZM72.9866 53.2546H67.6521C67.2879 53.2546 66.9776 53.5198 66.9205 53.88L64.7634 67.5568C64.7205 67.8268 64.9294 68.07 65.2019 68.07H67.939C68.1935 68.07 68.4111 67.8845 68.4508 67.6319L69.0629 63.755C69.1192 63.3938 69.4303 63.1289 69.7944 63.1289H71.482C74.9961 63.1289 77.0233 61.4287 77.5535 58.0596C77.7928 56.5857 77.5629 55.4276 76.8728 54.6163C76.1153 53.7259 74.7716 53.2546 72.9866 53.2546ZM73.6019 58.2498C73.3111 60.1637 71.8487 60.1637 70.4339 60.1637H69.6298L70.1954 56.5893C70.2289 56.3735 70.4144 56.2143 70.6335 56.2143H71.0024C71.9649 56.2143 72.8744 56.2143 73.3435 56.7633C73.6236 57.091 73.7088 57.5775 73.6019 58.2498ZM88.9284 58.1885H86.3761C86.1567 58.1885 85.9705 58.3476 85.9376 58.5638L85.8247 59.278L85.6453 59.0193C85.0924 58.2166 83.8603 57.9485 82.6296 57.9485C79.807 57.9485 77.3972 60.0861 76.9277 63.0848C76.6844 64.5804 77.0298 66.0107 77.8783 67.0082C78.6582 67.9253 79.7705 68.3075 81.0954 68.3075C83.3694 68.3075 84.6304 66.8451 84.6304 66.8451L84.5167 67.555C84.4738 67.8264 84.6828 68.0696 84.9567 68.0696H87.2564C87.6205 68.0696 87.9309 67.8044 87.9879 67.4435L89.3691 58.7017C89.4113 58.4328 89.2023 58.1885 88.9284 58.1885ZM85.3685 63.1596C85.1234 64.6187 83.9638 65.5982 82.4867 65.5982C81.7464 65.5982 81.1524 65.3603 80.7716 64.9096C80.3941 64.4621 80.2523 63.8247 80.371 63.1152C80.6024 61.6683 81.7786 60.6571 83.233 60.6571C83.9584 60.6571 84.5478 60.8978 84.9365 61.3525C85.327 61.8119 85.4814 62.4529 85.3685 63.1596Z" fill="#179BD7"/>
<path d="M54.6814 48.3619L55.3371 44.1971L53.8766 44.1631H46.9021L51.749 13.43C51.7638 13.3372 51.8129 13.2507 51.8844 13.1893C51.9558 13.1278 52.0475 13.094 52.1428 13.094H63.9028C67.807 13.094 70.5012 13.9064 71.908 15.51C72.5674 16.2622 72.9874 17.0483 73.1906 17.9134C73.4036 18.8211 73.4075 19.9056 73.1993 21.2283L73.1841 21.3249V22.1724L73.8439 22.546C74.3993 22.8406 74.8403 23.1779 75.1789 23.564C75.7433 24.2072 76.1082 25.0247 76.2623 25.9938C76.4214 26.9905 76.3688 28.1766 76.1082 29.5193C75.8072 31.064 75.3207 32.4092 74.6638 33.51C74.0593 34.5243 73.2895 35.3654 72.3757 36.0175C71.5031 36.6369 70.4662 37.1071 69.294 37.4081C68.1578 37.7037 66.8629 37.8531 65.4424 37.8531H64.5272C63.8728 37.8531 63.2369 38.0888 62.7382 38.5114C62.238 38.9427 61.9066 39.5317 61.8052 40.1762L61.7363 40.5512L60.5778 47.8916L60.5251 48.1612C60.5114 48.2467 60.4876 48.2893 60.4526 48.3182C60.4212 48.3442 60.3761 48.3619 60.332 48.3619H54.6814Z" fill="#253B80"/>
<path d="M74.4681 21.423C74.4331 21.6474 74.393 21.8769 74.3479 22.1126C72.7968 30.0751 67.4911 32.8259 60.7145 32.8259H57.2642C56.4356 32.8259 55.7372 33.4276 55.608 34.2451L53.8414 45.4487L53.3412 48.6243C53.2571 49.161 53.6711 49.6449 54.2124 49.6449H60.3323C61.057 49.6449 61.6723 49.1184 61.7863 48.4038L61.8466 48.0927L62.999 40.7808L63.073 40.3798C63.1856 39.6627 63.8023 39.1362 64.527 39.1362H65.4423C71.3712 39.1362 76.0128 36.7289 77.3694 29.763C77.936 26.853 77.6426 24.4233 76.1431 22.7144C75.6894 22.1991 75.1264 21.7716 74.4681 21.423Z" fill="#179BD7"/>
<path d="M72.8452 20.7766C72.6085 20.7077 72.3638 20.645 72.113 20.5886C71.8611 20.5334 71.6026 20.4845 71.337 20.4419C70.4066 20.2914 69.3874 20.22 68.2953 20.22H59.0779C58.8509 20.22 58.6354 20.2714 58.4423 20.3642C58.0172 20.5685 57.7014 20.971 57.6249 21.4637L55.6637 33.8833L55.6074 34.2456C55.7366 33.4282 56.435 32.8264 57.2636 32.8264H60.7138C67.4905 32.8264 72.7965 30.0744 74.3473 22.1131C74.3935 21.8774 74.4325 21.648 74.4675 21.4236C74.0752 21.2154 73.65 21.0374 73.1924 20.8857C73.0798 20.8481 72.9632 20.8117 72.8452 20.7766Z" fill="#222D65"/>
<path d="M57.6249 21.4634C57.7014 20.9707 58.0176 20.5682 58.4424 20.3651C58.6369 20.2723 58.8513 20.2209 59.0779 20.2209H68.2957C69.3878 20.2209 70.407 20.2924 71.3371 20.4428C71.603 20.4855 71.8614 20.5344 72.1134 20.5895C72.3642 20.646 72.6085 20.7086 72.8456 20.7776C72.9633 20.8127 73.0799 20.849 73.1939 20.8854C73.6515 21.0371 74.0767 21.2164 74.469 21.4233C74.9306 18.4807 74.4654 16.4772 72.8745 14.663C71.1205 12.6658 67.9547 11.8108 63.9039 11.8108H52.1435C51.316 11.8108 50.6104 12.4126 50.4823 13.2313L45.5841 44.2803C45.4874 44.8946 45.9612 45.449 46.5806 45.449H53.8412L55.6641 33.883L57.6249 21.4634Z" fill="#253B80"/>
<rect x="0.5" y="0.5" width="121" height="83.2857" rx="5.5" stroke="#E2E7E1"/>
</svg>
