<svg width="25" height="20" viewBox="0 0 25 20" fill="none" xmlns="http://www.w3.org/2000/svg">
<path d="M-4.76837e-06 20L-3.00529e-06 9.91632C-0.00155154 8.56709 0.265974 7.23135 0.78663 5.98867C2.06401 2.94141 4.74283 0.655957 8.06555 0.011047C8.61448 -0.0953314 8.96141 0.592241 8.55136 0.975643C8.06634 1.42997 7.62267 1.92728 7.22567 2.4616C5.03486 5.41357 4.92836 8.63425 4.95361 9.87587L10 9.87588L10 20L-4.76837e-06 20Z" fill="#C75227"/>
<path d="M15 20L15 9.91632C14.9984 8.56709 15.266 7.23135 15.7866 5.98867C17.064 2.94141 19.7428 0.655957 23.0655 0.011047C23.6145 -0.0953314 23.9614 0.592241 23.5514 0.975643C23.0663 1.42997 22.6227 1.92728 22.2257 2.4616C20.0349 5.41357 19.9284 8.63425 19.9536 9.87587L25 9.87588L25 20L15 20Z" fill="#C75227"/>
</svg>
