<svg width="109" height="140" viewBox="0 0 109 140" fill="none" xmlns="http://www.w3.org/2000/svg">
<path fill-rule="evenodd" clip-rule="evenodd" d="M75.7959 5.41943L103.49 33.2036L83.0495 33.2036L83.0444 33.2036C82.0915 33.2069 81.1474 33.0217 80.2664 32.6587C79.3855 32.2957 78.5851 31.7621 77.9114 31.0886C77.2377 30.4152 76.7039 29.6151 76.3409 28.7346C75.9778 27.8541 75.7926 26.9105 75.7959 25.9582L75.7959 25.953V5.41943ZM105.587 36.2036V128.501C105.589 129.561 105.382 130.612 104.978 131.593C104.574 132.573 103.98 133.465 103.231 134.216C102.482 134.967 101.592 135.563 100.612 135.971C99.6322 136.378 98.5816 136.588 97.5204 136.589H11.5178C9.37073 136.589 7.31169 135.737 5.79363 134.219C4.27559 132.702 3.42285 130.643 3.42285 128.498V11.5155C3.42285 9.36963 4.27559 7.31155 5.79363 5.79403C7.31169 4.27649 9.37073 3.42386 11.5178 3.42386H72.7959L72.7959 25.9478L72.7959 25.9501C72.7915 27.2975 73.0537 28.6325 73.5674 29.8782C74.0813 31.1246 74.8369 32.2571 75.7904 33.2103C76.744 34.1636 77.8768 34.9188 79.1235 35.4325C80.3695 35.9459 81.7048 36.208 83.0524 36.2036H105.587ZM108.587 36.1476C108.591 34.8328 108.077 33.5692 107.155 32.6312L76.4841 1.86039L76.4784 1.85471C75.5399 0.933322 74.2759 0.419263 72.9608 0.423859H11.5178C8.57542 0.423859 5.75342 1.59231 3.67267 3.67234C1.59191 5.75239 0.422852 8.57365 0.422852 11.5155V128.498C0.422852 131.439 1.59191 134.261 3.67267 136.341C5.75343 138.421 8.57542 139.589 11.5178 139.589H97.5235C98.9788 139.588 100.42 139.299 101.763 138.741C103.107 138.182 104.328 137.365 105.355 136.334C106.383 135.304 107.197 134.081 107.752 132.736C108.306 131.391 108.59 129.949 108.587 128.494V36.1476ZM22.9982 34.6936C22.9982 33.8652 23.6698 33.1936 24.4982 33.1936H53.4534C54.2818 33.1936 54.9534 33.8652 54.9534 34.6936C54.9534 35.522 54.2818 36.1936 53.4534 36.1936H24.4982C23.6698 36.1936 22.9982 35.522 22.9982 34.6936ZM22.9982 53.6968C22.9982 52.8684 23.6698 52.1968 24.4982 52.1968H84.1512C84.9797 52.1968 85.6512 52.8684 85.6512 53.6968C85.6512 54.5252 84.9797 55.1968 84.1512 55.1968H24.4982C23.6698 55.1968 22.9982 54.5252 22.9982 53.6968ZM22.9982 72.6997C22.9982 71.8713 23.6698 71.1997 24.4982 71.1997H84.1512C84.9797 71.1997 85.6512 71.8713 85.6512 72.6997C85.6512 73.5281 84.9797 74.1997 84.1512 74.1997H24.4982C23.6698 74.1997 22.9982 73.5281 22.9982 72.6997ZM22.9982 91.7129C22.9982 90.8845 23.6698 90.2129 24.4982 90.2129H84.1512C84.9797 90.2129 85.6512 90.8845 85.6512 91.7129C85.6512 92.5413 84.9797 93.2129 84.1512 93.2129H24.4982C23.6698 93.2129 22.9982 92.5413 22.9982 91.7129ZM22.9982 110.716C22.9982 109.887 23.6698 109.216 24.4982 109.216H84.1512C84.9797 109.216 85.6512 109.887 85.6512 110.716C85.6512 111.544 84.9797 112.216 84.1512 112.216H24.4982C23.6698 112.216 22.9982 111.544 22.9982 110.716Z" fill="#BD9A68"/>
</svg>
