<svg width="72" height="72" viewBox="0 0 72 72" fill="none" xmlns="http://www.w3.org/2000/svg">
<path d="M23.2929 47.2929C22.9024 47.6834 22.9024 48.3166 23.2929 48.7071C23.6834 49.0976 24.3166 49.0976 24.7071 48.7071L23.2929 47.2929ZM47 33C47 37.4183 43.4183 41 39 41V43C44.5228 43 49 38.5228 49 33H47ZM31 33C31 28.5817 34.5817 25 39 25V23C33.4772 23 29 27.4772 29 33H31ZM39 25C43.4183 25 47 28.5817 47 33H49C49 27.4772 44.5228 23 39 23V25ZM31.9289 38.6569L23.2929 47.2929L24.7071 48.7071L33.3431 40.0711L31.9289 38.6569ZM39 41C36.7906 41 34.792 40.1057 33.3431 38.6569L31.9289 40.0711C33.7375 41.8796 36.2389 43 39 43V41ZM33.3431 38.6569C31.8943 37.208 31 35.2094 31 33H29C29 35.7611 30.1204 38.2625 31.9289 40.0711L33.3431 38.6569ZM62 36C62 50.3594 50.3594 62 36 62V64C51.464 64 64 51.464 64 36H62ZM36 62C21.6406 62 10 50.3594 10 36H8C8 51.464 20.536 64 36 64V62ZM10 36C10 21.6406 21.6406 10 36 10V8C20.536 8 8 20.536 8 36H10ZM36 10C50.3594 10 62 21.6406 62 36H64C64 20.536 51.464 8 36 8V10Z" fill="#2EFFB4"/>
</svg>
