<svg width="20" height="21" viewBox="0 0 20 21" fill="none" xmlns="http://www.w3.org/2000/svg">
<path fill-rule="evenodd" clip-rule="evenodd" d="M15.0008 3.50012C14.1723 3.50012 13.5007 4.17177 13.5007 5.00028C13.5007 5.24329 13.5577 5.4701 13.6582 5.67073C13.9057 6.16479 14.415 6.50045 15.0008 6.50045C15.8293 6.50045 16.501 5.8288 16.501 5.00028C16.501 4.17177 15.8293 3.50012 15.0008 3.50012ZM11.5007 5.00028C11.5007 3.0672 13.0677 1.50012 15.0008 1.50012C16.9339 1.50012 18.501 3.0672 18.501 5.00028C18.501 6.93337 16.9339 8.50045 15.0008 8.50045C13.9931 8.50045 13.0859 8.07453 12.448 7.39472L8.44792 9.39477C8.48238 9.59184 8.50033 9.79432 8.50033 10.0006C8.50033 10.2069 8.48238 10.4094 8.44792 10.6065L12.448 12.6065C13.0859 11.9267 13.9931 11.5008 15.0008 11.5008C16.9339 11.5008 18.501 13.0678 18.501 15.0009C18.501 16.934 16.9339 18.5011 15.0008 18.5011C13.0677 18.5011 11.5007 16.934 11.5007 15.0009C11.5007 14.7946 11.5186 14.5922 11.5531 14.3951L7.55296 12.395C6.91507 13.0749 6.00784 13.5008 5.00016 13.5008C3.06708 13.5008 1.5 11.9337 1.5 10.0006C1.5 8.06752 3.06708 6.50045 5.00016 6.50045C6.00784 6.50045 6.91507 6.92636 7.55296 7.60618L11.5531 5.60613C11.5186 5.40906 11.5007 5.20657 11.5007 5.00028ZM5.00016 8.50045C4.17165 8.50045 3.5 9.17209 3.5 10.0006C3.5 10.8291 4.17165 11.5008 5.00016 11.5008C5.58601 11.5008 6.09527 11.1651 6.34279 10.6711C6.44329 10.4704 6.50033 10.2436 6.50033 10.0006C6.50033 9.7576 6.44329 9.53079 6.34279 9.33017C6.09527 8.8361 5.58601 8.50045 5.00016 8.50045ZM15.0008 13.5008C14.415 13.5008 13.9057 13.8364 13.6582 14.3305C13.5577 14.5311 13.5007 14.7579 13.5007 15.0009C13.5007 15.8295 14.1723 16.5011 15.0008 16.5011C15.8293 16.5011 16.501 15.8295 16.501 15.0009C16.501 14.1724 15.8293 13.5008 15.0008 13.5008Z" fill="#626E60"/>
</svg>
