<svg width="395" height="78" viewBox="0 0 395 78" fill="none" xmlns="http://www.w3.org/2000/svg">
<path d="M316.004 51.9999L316.004 77.9998L387 78C391.418 78 395 74.4183 395 70L395 52.0001L316.004 51.9999Z" fill="#2EFFB4"/>
<path d="M158.013 51.9999L158.013 77.9998L237.008 78L237.008 52.0001L158.013 51.9999Z" fill="#2EFFB4"/>
<path d="M237.008 25.9999L237.008 51.9998L316.004 52L316.004 26.0002L237.008 25.9999Z" fill="#2EFFB4"/>
<path d="M316.004 0.000110626L316.004 26L395 26.0003L395 0.000388193L316.004 0.000110626Z" fill="#2EFFB4"/>
<path d="M79.0169 26.0001L79.017 52L158.013 51.9997L158.013 25.9999L79.0169 26.0001Z" fill="#2EFFB4"/>
<path d="M0.0211721 52.0001L0.0212402 78L79.017 77.9998L79.0169 51.9999L0.0211721 52.0001Z" fill="#2EFFB4"/>
</svg>
