<svg width="32" height="33" viewBox="0 0 32 33" fill="none" xmlns="http://www.w3.org/2000/svg">
<path fill-rule="evenodd" clip-rule="evenodd" d="M6.66667 3.00134C7.21895 3.00134 7.66667 3.44906 7.66667 4.00134V5.66801H9.33333C9.88562 5.66801 10.3333 6.11572 10.3333 6.66801C10.3333 7.22029 9.88562 7.66801 9.33333 7.66801H7.66667V9.33468C7.66667 9.88696 7.21895 10.3347 6.66667 10.3347C6.11438 10.3347 5.66667 9.88696 5.66667 9.33468V7.66801H4C3.44772 7.66801 3 7.22029 3 6.66801C3 6.11572 3.44772 5.66801 4 5.66801H5.66667V4.00134C5.66667 3.44906 6.11438 3.00134 6.66667 3.00134ZM17.3333 3.00134C17.7638 3.00134 18.1459 3.27677 18.282 3.68512L21.1788 12.3754L28.3511 15.065C28.7414 15.2114 29 15.5845 29 16.0013C29 16.4182 28.7414 16.7913 28.3511 16.9377L21.1788 19.6273L18.282 28.3176C18.1459 28.7259 17.7638 29.0013 17.3333 29.0013C16.9029 29.0013 16.5208 28.7259 16.3846 28.3176L13.4879 19.6273L6.31554 16.9377C5.92524 16.7913 5.66667 16.4182 5.66667 16.0013C5.66667 15.5845 5.92524 15.2114 6.31554 15.065L13.4879 12.3754L16.3846 3.68512C16.5208 3.27677 16.9029 3.00134 17.3333 3.00134ZM17.3333 7.16362L15.2344 13.4604C15.139 13.7467 14.9194 13.9746 14.6368 14.0805L9.51467 16.0013L14.6368 17.9222C14.9194 18.0281 15.139 18.256 15.2344 18.5423L17.3333 24.8391L19.4323 18.5423C19.5277 18.256 19.7473 18.0281 20.0298 17.9222L25.152 16.0013L20.0298 14.0805C19.7473 13.9746 19.5277 13.7467 19.4323 13.4604L17.3333 7.16362ZM8 21.668C8.55228 21.668 9 22.1157 9 22.668V24.3347H10.6667C11.219 24.3347 11.6667 24.7824 11.6667 25.3347C11.6667 25.887 11.219 26.3347 10.6667 26.3347H9V28.0013C9 28.5536 8.55228 29.0013 8 29.0013C7.44772 29.0013 7 28.5536 7 28.0013V26.3347H5.33333C4.78105 26.3347 4.33333 25.887 4.33333 25.3347C4.33333 24.7824 4.78105 24.3347 5.33333 24.3347H7V22.668C7 22.1157 7.44772 21.668 8 21.668Z" fill="#1D472E"/>
</svg>
