<svg width="262" height="48" viewBox="0 0 262 48" fill="none" xmlns="http://www.w3.org/2000/svg">
<path d="M39.3926 31.6598H39.9006L42.0407 33.6823C44.2137 35.7472 45.6248 36.7161 48.2306 36.7161C51.8477 36.7161 53.8326 34.8347 53.8326 31.735C53.8326 29.4773 52.8918 28.1932 50.7611 27.0644C48.6304 25.9355 45.5072 25.1829 43.3248 23.8753C41.1423 22.5677 40.0323 20.6816 40.0323 17.8783C40.0323 13.6451 43.2636 10.5642 48.3999 10.5642C50.0744 10.5642 51.5513 10.7947 53.3434 10.7947H55.032L56.6735 15.9921H56.1702L53.9501 13.9273C51.6924 11.8295 50.446 11.3591 48.3858 11.3591C45.3896 11.3591 43.48 12.996 43.48 15.6441C43.48 17.4691 44.3784 18.7955 46.3021 19.8067C48.2259 20.818 51.4761 21.6882 53.7385 22.9205C56.0009 24.1528 57.2003 26.0343 57.2003 29.148C57.2003 33.9739 53.6585 37.5157 48.0942 37.5157C46.0717 37.5157 44.3313 37.2429 42.4123 37.2429H41.1047L39.3926 31.6598Z" fill="white"/>
<path d="M65.0834 14.4541H65.3798V19.0448H70.5537V20.644H65.3798V31.9843C65.3798 33.9692 66.2734 35.0558 68.3759 35.0558C69.187 35.0925 69.9893 34.8755 70.6713 34.4349L70.9441 34.7453C70.468 35.6476 69.7495 36.3991 68.8695 36.9151C67.9895 37.4312 66.9829 37.6913 65.963 37.6662C63.4325 37.6662 61.1748 36.3022 61.1748 32.6052V20.644H58.7007V20.2254L65.0834 14.4541Z" fill="white"/>
<path d="M88.2017 33.8374V37.2616H85.3795C84.5924 37.3044 83.8156 37.0657 83.1883 36.5883C82.5609 36.1109 82.1239 35.4259 81.9553 34.6558C80.9064 36.1704 79.3072 37.5344 76.7814 37.5344C74.058 37.5344 72.1907 35.8223 72.1907 33.1742C72.1907 30.9165 73.7852 29.4772 76.3957 28.3483C78.1507 27.571 79.9741 26.9585 81.8424 26.5186V23.2873C81.8424 21.1095 80.4314 20.2534 78.1454 20.2534C77.4898 20.2619 76.8369 20.3407 76.1981 20.4886V24.5713H72.012C72.2848 22.7463 73.6441 21.2271 75.3045 20.2534C76.9941 19.2232 78.9322 18.672 80.9111 18.6589C84.1425 18.6589 85.9298 20.2534 85.9298 23.4472V33.8374H88.2017ZM81.8424 34.1478V27.2806C80.5557 27.6111 79.3047 28.068 78.1078 28.6446C76.8613 29.2655 76.2264 30.1263 76.2264 31.7208C76.2264 33.8233 77.3129 35.1073 79.105 35.1073C80.1062 35.1466 81.0848 34.8036 81.8424 34.1478Z" fill="white"/>
<path d="M89.9512 10.5218V10.3478L95.5578 9.4541V35.432L96.7243 37.0688V37.2616H90.1864V37.0688L91.3528 35.432V12.7795L89.9512 10.5218Z" fill="white"/>
<path d="M99.2927 10.5218V10.3478L104.89 9.4353V35.432L106.056 37.0688V37.2617H99.5279V37.0688L100.694 35.432V12.7795L99.2927 10.5218Z" fill="white"/>
<path d="M108.907 37.0689L110.064 35.432V21.5001L109.015 19.2423V19.0448H114.297V35.432L115.464 37.0689V37.2617H108.926L108.907 37.0689ZM114.396 15.3478H110.036V11.3403H114.396V15.3478Z" fill="white"/>
<path d="M117.975 28.273C117.975 22.5488 121.738 18.6589 127.124 18.6589C132.298 18.6589 136.112 22.5488 136.112 28.0379C136.112 33.7574 132.349 37.652 127.006 37.652C121.823 37.652 117.975 33.7574 117.975 28.273ZM131.442 28.1555C131.442 22.1208 130.002 19.3974 127.044 19.3974C124.085 19.3974 122.684 22.0831 122.684 28.1555C122.684 34.2278 124.095 36.9135 127.044 36.9135C129.993 36.9135 131.442 34.1854 131.442 28.1555Z" fill="white"/>
<path d="M156.742 37.0687V37.2616H150.242V37.0687L151.408 35.4319V25.0417C151.408 22.3936 149.776 21.3447 147.518 21.3447C146.282 21.3281 145.071 21.6945 144.052 22.3936V35.4319L145.223 37.0687V37.2616H138.68V37.0687L139.852 35.4319V21.4999L138.798 19.2422V19.0446H144.052V21.8668C144.792 20.8905 145.744 20.0959 146.837 19.5432C147.93 18.9906 149.135 18.6946 150.359 18.6777C153.652 18.6777 155.576 20.8555 155.576 24.2044V35.4319L156.742 37.0687Z" fill="white"/>
<path d="M193.289 12.7795V35.2767L194.648 37.0688V37.2616H187.372V37.0688L188.736 35.2767V13.5603H188.345L179.743 37.2616H179.159L170.401 13.5603H170.016V33.3953L171.803 37.0547V37.2475H167.325V37.0547L169.08 33.3953V13.4051L167.56 10.9921V10.8181H174.371L181.455 29.9664L188.421 10.8181H194.648V11.0157L193.289 12.7795Z" fill="white"/>
<path d="M213.646 33.8374V37.2616H210.8C210.013 37.3044 209.237 37.0657 208.609 36.5883C207.982 36.1109 207.545 35.4259 207.376 34.6558C206.327 36.1704 204.733 37.5344 202.202 37.5344C199.474 37.5344 197.607 35.8223 197.607 33.1742C197.607 30.9165 199.206 29.4772 201.812 28.3483C203.567 27.5717 205.39 26.9592 207.259 26.5186V23.2873C207.259 21.1095 205.848 20.2534 203.562 20.2534C202.907 20.2615 202.256 20.3404 201.619 20.4886V24.5713H197.452C197.724 22.7463 199.089 21.2271 200.744 20.2534C202.432 19.2227 204.369 18.6714 206.346 18.6589C209.577 18.6589 211.37 20.2534 211.37 23.4472V33.8374H213.646ZM207.259 34.1478V27.2806C205.972 27.6119 204.721 28.0687 203.524 28.6446C202.278 29.2655 201.643 30.1263 201.643 31.7208C201.643 33.8233 202.734 35.1073 204.521 35.1073C205.522 35.1476 206.502 34.8044 207.259 34.1478V34.1478Z" fill="white"/>
<path d="M220.842 14.4541H221.158V19.0448H226.294V20.644H221.158V31.9843C221.158 33.9692 222.051 35.0558 224.154 35.0558C224.965 35.0919 225.767 34.8749 226.449 34.4349L226.722 34.7453C226.246 35.6476 225.527 36.3991 224.647 36.9151C223.767 37.4312 222.761 37.6913 221.741 37.6662C219.21 37.6662 216.953 36.3022 216.953 32.6052V20.644H214.483V20.2254L220.842 14.4541Z" fill="white"/>
<path d="M227.498 29.7878C227.498 26.9092 228.782 24.4963 230.692 22.549C232.601 20.6017 235.09 18.7344 237.775 18.7344H241.397V22.4314H233.923C231.665 22.4314 230.381 23.2122 230.381 26.6364C230.381 31.1894 233.025 34.3032 237.695 34.3032C239.125 34.3587 240.539 33.9941 241.764 33.2543L242.037 33.5647C241.453 34.8257 240.51 35.8863 239.326 36.6134C238.142 37.3406 236.77 37.7019 235.381 37.6522C230.654 37.6522 227.498 34.3032 227.498 29.7878Z" fill="white"/>
<path d="M261.905 37.0688V37.2616H255.404V37.0688L256.533 35.432V25.0418C256.533 22.3936 254.934 21.3447 252.639 21.3447C251.415 21.3224 250.216 21.6898 249.214 22.3936V35.432L250.343 37.0688V37.2616H243.848V37.0688L245.014 35.432V12.7795L243.603 10.5218V10.3478L249.21 9.4541V21.848C249.937 20.8688 250.881 20.0712 251.968 19.5179C253.055 18.9646 254.255 18.6706 255.475 18.659C258.767 18.659 260.729 20.8368 260.729 24.1857V35.432L261.905 37.0688Z" fill="white"/>
<path d="M14.6235 2.52573C24.8256 2.52573 26.9704 14.2047 26.9704 23.9882C26.9704 33.7716 24.8256 45.4741 14.6235 45.4741C4.42148 45.4741 2.28135 33.7951 2.28135 23.9882C2.28135 14.1812 4.42148 2.52573 14.6235 2.52573ZM14.6235 0.99707C9.4496 0.99707 5.508 3.75807 3.22677 8.99315C1.58522 12.7325 0.752686 17.7888 0.752686 23.9882C0.752686 30.1875 1.58522 35.2767 3.22677 39.0396C5.508 44.2606 9.4496 47.0357 14.6235 47.0357C19.7975 47.0357 23.7438 44.2747 26.025 39.0396C27.6666 35.2767 28.4991 30.2298 28.4991 24.0164C28.4991 17.803 27.6666 12.7278 26.025 8.99785C23.7438 3.76277 19.8022 0.99707 14.6235 0.99707Z" fill="#2EFFB4"/>
<path d="M18.2971 22.7371C18.934 22.9589 19.6312 22.932 20.2491 22.6618C20.4796 22.5678 21.6602 22.0457 22.0082 21.0297C22.3093 20.1407 21.0675 13.7486 19.3413 10.9358L20.282 9.73642L19.8869 9.26606C19.2503 8.49755 18.444 7.88727 17.5315 7.48326C16.619 7.07924 15.6252 6.89252 14.6283 6.93779C13.7001 6.8985 12.7743 7.05965 11.9139 7.41029C11.0536 7.76092 10.2789 8.29281 9.64254 8.96974C8.32309 10.3861 7.59018 12.2503 7.59178 14.186C7.59178 16.8623 8.72064 20.851 14.1768 24.6279C19.1155 28.0286 20.1362 31.514 20.1315 33.8046C20.1335 35.3546 19.5468 36.8475 18.49 37.9814C17.9956 38.5022 17.3935 38.9088 16.7257 39.1728C16.0579 39.4369 15.3405 39.552 14.6236 39.5101C13.9552 39.5483 13.2861 39.45 12.6569 39.2212C12.0278 38.9923 11.4518 38.6377 10.9642 38.1789L11.8156 37.0736L11.4581 36.6032C9.79776 34.4537 8.63597 28.0663 8.68771 27.436C8.89457 27.1079 9.20616 26.8593 9.57198 26.7304C9.70884 26.6642 9.85754 26.6259 10.0094 26.6178C10.1612 26.6097 10.3131 26.632 10.4563 26.6834C10.6004 26.7646 10.723 26.8791 10.8137 27.0174C10.7161 27.3719 10.7106 27.7455 10.7979 28.1028C10.8852 28.46 11.0622 28.7891 11.3123 29.0587C11.7892 29.6281 12.3064 30.1626 12.8598 30.6579C14.4684 32.1819 15.6819 33.4377 15.2727 34.4208L16.5004 35.3615C17.7985 33.2355 15.5596 31.1283 13.9087 29.5526C13.4159 29.113 12.9524 28.6416 12.5211 28.1415C12.2107 27.737 12.2389 27.6147 12.2907 27.4454C12.5352 26.5564 11.7733 25.564 10.9548 25.2582C10.3183 25.0341 9.62025 25.061 9.00285 25.3335C8.76767 25.4275 7.59178 25.9496 7.23901 26.9656C6.94268 27.8593 8.17972 34.2515 9.90594 37.0595L8.96522 38.2589L9.36503 38.7293C9.99757 39.5004 10.8005 40.1142 11.7105 40.5223C12.6206 40.9304 13.613 41.1216 14.6095 41.081C15.5401 41.1215 16.4685 40.9599 17.3307 40.6076C18.193 40.2552 18.9688 39.7203 19.6047 39.0397C20.9271 37.6248 21.6619 35.7601 21.6602 33.8234C21.6602 31.1471 20.5313 27.1632 15.0752 23.3862C10.1364 19.9714 9.11103 16.5002 9.12044 14.1907C9.11846 12.6407 9.7052 11.1478 10.762 10.0139C11.2551 9.49024 11.8565 9.08046 12.5243 8.81319C13.192 8.54591 13.9101 8.42758 14.6283 8.46645C15.2969 8.42993 15.966 8.52948 16.595 8.75909C17.224 8.98871 17.7999 9.34359 18.2877 9.80227L17.4317 10.9076L17.7938 11.378C19.4542 13.5275 20.616 19.915 20.5595 20.5452C20.3513 20.8721 20.0402 21.1203 19.6753 21.2508C19.5385 21.3176 19.3895 21.3558 19.2375 21.3631C19.0855 21.3703 18.9335 21.3465 18.791 21.2931C18.6462 21.2146 18.5246 21.0994 18.4382 20.9592C18.5357 20.6042 18.5406 20.2303 18.4525 19.8729C18.3644 19.5156 18.1862 19.1867 17.9349 18.9178C17.4594 18.3472 16.9421 17.8127 16.3875 17.3186C14.7835 15.7946 13.5653 14.5388 13.9792 13.5557L12.7516 12.615C11.4581 14.741 13.6923 16.8482 15.3386 18.4192C15.8392 18.8583 16.3105 19.3297 16.7496 19.8303C17.0601 20.2395 17.0272 20.3618 16.9801 20.5311C16.7167 21.4389 17.4787 22.4549 18.2971 22.7371Z" fill="#2EFFB4"/>
</svg>
