<svg version="1.1" id="Layer_1" xmlns="http://www.w3.org/2000/svg" xmlns:xlink="http://www.w3.org/1999/xlink" x="0" y="0" viewBox="0 0 1440 1196" xml:space="preserve" enable-background="new 0 0 1440 1196"><style>.st0{fill:#fff}.st1{fill:#1d472e}.st2{fill:#2effb4}.st4{fill:none}.st5{fill:#f4f1ef}.st8{fill:#161716}.st9{fill:none;stroke:#626e60;stroke-width:2;stroke-linecap:round;stroke-linejoin:round}.st10{fill:#626e60}.st11,.st12{fill:none;stroke:#161716;stroke-width:2;stroke-linecap:round;stroke-linejoin:round}.st12{stroke-width:1.5}.st13{fill:#bd9a68}.st14{fill:#3139da}.st15{fill:#b0b6af}.st16{fill:none;stroke:#b0b6af}.st17{fill:#8bbaf0}</style><path class="st0" d="M0 0h1440v1196H0z"/><path class="st1" d="M0 0h1440v92H0z"/><path class="st0" d="M640.5 51h4.1c3.2 0 5.5-2.4 5.5-5.9 0-3.5-2.2-5.9-5.5-5.9h-4.1V51zm1.5-1.2v-9.4h2.7c2.3 0 4 1.9 4 4.7 0 2.8-1.7 4.7-4 4.7H642zm15.6-2.3c0 1.6-1.2 2.6-2.8 2.6-1 0-1.7-.5-1.7-1.4 0-1.7 2.6-1.5 4.5-2v.8zm0 3.5h1.3v-5.5c0-2.2-1.2-3.2-3.3-3.2-2.2 0-3.2 1.1-3.4 2.9h1.3c.2-1.3.8-1.8 2.1-1.8 1.4 0 2 .8 2 1.8 0 .6-.2.7-1.5.9-1.8.3-4.3.3-4.3 2.8 0 1.2.9 2.3 2.7 2.3 1.5 0 2.5-.6 3.1-1.5V51zm3.2-2.8c.1 2 1.3 2.9 3.5 2.9 2 0 3.2-1 3.2-2.5 0-3.3-5.1-1.8-5.1-3.9 0-.7.4-1.4 1.7-1.4 1.2 0 1.8.5 1.9 1.8h1.3c-.1-1.9-1.3-2.9-3.2-2.9-2 0-3 1.1-3 2.5 0 3.4 5.1 1.7 5.1 4 0 .9-.7 1.4-1.8 1.4-1.3 0-2.2-.5-2.3-1.9h-1.3zm8.9 2.8h1.3v-5c0-1.6 1-2.6 2.5-2.6 1.3 0 1.8.8 1.8 2.3V51h1.3v-5.6c0-2-.8-3.1-2.8-3.1-1.4 0-2.2.6-2.8 1.5v-4.6h-1.3V51zm9.8 0h1.3v-1.4c.6.9 1.4 1.5 2.8 1.5 2.3 0 3.7-1.7 3.7-4.5 0-2.6-1.3-4.4-3.7-4.4-1.5 0-2.2.6-2.8 1.5v-4.6h-1.3V51zm3.8-.9c-1.8 0-2.6-1.2-2.6-3.3 0-2.2.8-3.4 2.6-3.4 1.7 0 2.7 1.2 2.7 3.3 0 2.2-1.1 3.4-2.7 3.4zm10.1 1.1c2.5 0 4.2-1.8 4.2-4.4 0-2.7-1.7-4.4-4.2-4.4s-4.2 1.8-4.2 4.4c0 2.6 1.7 4.4 4.2 4.4zm0-1.1c-1.7 0-2.9-1.3-2.9-3.4 0-2 1.2-3.4 2.9-3.4s2.9 1.3 2.9 3.4c0 2-1.2 3.4-2.9 3.4zm11.6-2.6c0 1.6-1.2 2.6-2.8 2.6-1 0-1.7-.5-1.7-1.4 0-1.7 2.6-1.5 4.5-2v.8zm0 3.5h1.3v-5.5c0-2.2-1.2-3.2-3.3-3.2-2.2 0-3.2 1.1-3.4 2.9h1.3c.2-1.3.8-1.8 2.1-1.8 1.4 0 2 .8 2 1.8 0 .6-.2.7-1.5.9-1.8.3-4.3.3-4.3 2.8 0 1.2.9 2.3 2.7 2.3 1.5 0 2.5-.6 3.1-1.5V51zm4 0h1.3v-4.9c0-1.6.9-2.5 2.4-2.5.2 0 .4 0 .6.1v-1.3h-.4c-1.2 0-2 .6-2.5 1.5v-1.3H709V51zm9.1-.9c-1.7 0-2.7-1.2-2.7-3.3 0-2.2 1.1-3.4 2.7-3.4 1.8 0 2.6 1.2 2.6 3.3s-.8 3.4-2.6 3.4zm2.5.9h1.3V39.2h-1.3v4.6c-.6-.9-1.4-1.5-2.8-1.5-2.3 0-3.7 1.7-3.7 4.5 0 2.7 1.3 4.4 3.7 4.4 1.4 0 2.2-.6 2.8-1.5V51zM749.1 47.5c.2 2.5 1.7 3.6 4.4 3.6 2.5 0 4-1.2 4-3.3 0-4.5-6.7-2.3-6.7-5.5 0-1 .6-2 2.4-2 1.7 0 2.6.8 2.7 2.4h1.4c-.2-2.3-1.7-3.6-4.2-3.6-2.4 0-3.8 1.3-3.8 3.4 0 4.4 6.7 2.1 6.7 5.6 0 1.3-1 2-2.6 2s-2.8-.6-3-2.4h-1.3zm10.6 1.3c0 1.7.9 2.4 2.3 2.4.4 0 .7 0 1.1-.1V50c-.3 0-.6.1-.8.1-.8 0-1.2-.4-1.2-1.3v-5.1h2v-1.1h-2v-2.2h-1.3v2.2h-1.2v1.1h1.2v5.1zm10.3-1.3c0 1.6-1.2 2.6-2.8 2.6-1 0-1.7-.5-1.7-1.4 0-1.7 2.6-1.5 4.5-2v.8zm0 3.5h1.3v-5.5c0-2.2-1.2-3.2-3.3-3.2-2.2 0-3.2 1.1-3.4 2.9h1.3c.2-1.3.8-1.8 2.1-1.8 1.4 0 2 .8 2 1.8 0 .6-.2.7-1.5.9-1.8.3-4.3.3-4.3 2.8 0 1.2.9 2.3 2.7 2.3 1.5 0 2.5-.6 3.1-1.5V51zm4 0h1.3V39.2H774V51zm4.1 0h1.3V39.2h-1.3V51zm4.8-10.3c.5 0 .9-.4.9-.9s-.4-.9-.9-.9-.9.4-.9.9.3.9.9.9zm-.7 10.3h1.3v-8.6h-1.3V51zm7.8.2c2.5 0 4.2-1.8 4.2-4.4 0-2.7-1.7-4.4-4.2-4.4s-4.2 1.8-4.2 4.4c0 2.6 1.7 4.4 4.2 4.4zm0-1.1c-1.7 0-2.9-1.3-2.9-3.4 0-2 1.2-3.4 2.9-3.4s2.9 1.3 2.9 3.4c0 2-1.2 3.4-2.9 3.4zm6.5.9h1.3v-5c0-1.6 1-2.6 2.5-2.6 1.3 0 1.8.8 1.8 2.3V51h1.3v-5.6c0-2-.8-3.1-2.8-3.1-1.4 0-2.2.6-2.8 1.5v-1.3h-1.3V51zm14.2 0h1.4v-9.8l3.6 6.7h1.1l3.6-6.7V51h1.4V39.2H820l-3.7 7.1-3.6-7.1h-1.8V51zm18.8-3.5c0 1.6-1.2 2.6-2.8 2.6-1 0-1.7-.5-1.7-1.4 0-1.7 2.6-1.5 4.5-2v.8zm0 3.5h1.3v-5.5c0-2.2-1.2-3.2-3.3-3.2-2.2 0-3.2 1.1-3.4 2.9h1.3c.2-1.3.8-1.8 2.1-1.8 1.4 0 2 .8 2 1.8 0 .6-.2.7-1.5.9-1.8.3-4.3.3-4.3 2.8 0 1.2.9 2.3 2.7 2.3 1.5 0 2.5-.6 3.1-1.5V51zm3.9-2.2c0 1.7.9 2.4 2.3 2.4.4 0 .7 0 1.1-.1V50c-.3 0-.6.1-.8.1-.8 0-1.2-.4-1.2-1.3v-5.1h2v-1.1h-2v-2.2h-1.3v2.2h-1.2v1.1h1.2v5.1zm10.8-.8c-.1 1.4-1 2.1-2.3 2.1-1.6 0-2.6-1.1-2.6-3.3 0-2.2 1-3.3 2.6-3.3 1.3 0 2.2.7 2.3 2.1h1.3c-.1-2-1.5-3.2-3.6-3.2-2.6 0-4 1.8-4 4.4 0 2.6 1.3 4.4 4 4.4 2.1 0 3.5-1.2 3.6-3.2h-1.3zm3.5 3h1.3v-5c0-1.6 1-2.6 2.5-2.6 1.3 0 1.8.8 1.8 2.3V51h1.3v-5.6c0-2-.8-3.1-2.8-3.1-1.4 0-2.2.6-2.8 1.5v-4.6h-1.3V51zM882.5 51h1.4v-5.5h5.5v-1.2H884v-3.9h5.7v-1.2h-7.2V51zm14.5-3.5c0 1.6-1.2 2.6-2.8 2.6-1 0-1.7-.5-1.7-1.4 0-1.7 2.6-1.5 4.5-2v.8zm0 3.5h1.3v-5.5c0-2.2-1.2-3.2-3.3-3.2-2.2 0-3.2 1.1-3.4 2.9h1.3c.2-1.3.8-1.8 2.1-1.8 1.4 0 2 .8 2 1.8 0 .6-.2.7-1.5.9-1.8.3-4.3.3-4.3 2.8 0 1.2.9 2.3 2.7 2.3 1.5 0 2.5-.6 3.1-1.5V51zm4 0h1.3v-4.9c0-1.6.9-2.5 2.4-2.5.2 0 .4 0 .6.1v-1.3h-.4c-1.2 0-2 .6-2.5 1.5v-1.3H901V51zm5.8 0h1.3v-5c0-1.6.9-2.6 2.3-2.6 1.2 0 1.7.8 1.7 2.3V51h1.3v-5.2c0-1.6.9-2.4 2.2-2.4 1.2 0 1.7.8 1.7 2.3V51h1.3v-5.6c0-2-.8-3.1-2.7-3.1-1.3 0-2.1.6-2.7 1.6-.3-1-1.1-1.6-2.4-1.6-1.3 0-2 .6-2.5 1.5v-1.3H907V51zm13.9-2.8c.1 2 1.3 2.9 3.5 2.9 2 0 3.2-1 3.2-2.5 0-3.3-5.1-1.8-5.1-3.9 0-.7.4-1.4 1.7-1.4 1.2 0 1.8.5 1.9 1.8h1.3c-.1-1.9-1.3-2.9-3.2-2.9-2 0-3 1.1-3 2.5 0 3.4 5.1 1.7 5.1 4 0 .9-.7 1.4-1.8 1.4-1.3 0-2.2-.5-2.3-1.9h-1.3zM954.5 51h4.1c3.2 0 5.5-2.4 5.5-5.9 0-3.5-2.2-5.9-5.5-5.9h-4.1V51zm1.5-1.2v-9.4h2.7c2.3 0 4 1.9 4 4.7 0 2.8-1.7 4.7-4 4.7H956zm11.2-9.1c.5 0 .9-.4.9-.9s-.4-.9-.9-.9-.9.4-.9.9.4.9.9.9zm-.6 10.3h1.3v-8.6h-1.3V51zm4.1 0h1.3v-4.9c0-1.6.9-2.5 2.4-2.5.2 0 .4 0 .6.1v-1.3h-.4c-1.2 0-2 .6-2.5 1.5v-1.3h-1.3V51zm11.4-2.8c-.2 1.3-1.1 1.9-2.4 1.9-1.5 0-2.5-1.1-2.5-3.2h6.3v-.4c0-2.4-1.1-4.1-3.7-4.1s-3.9 1.8-3.9 4.4c0 2.7 1.2 4.4 3.9 4.4 2.1 0 3.5-1.2 3.6-3h-1.3zm-4.9-2.3c.2-1.7 1.1-2.5 2.6-2.5s2.3 1 2.4 2.5h-5zm14.5 2.1c-.1 1.4-1 2.1-2.3 2.1-1.6 0-2.6-1.1-2.6-3.3 0-2.2 1-3.3 2.6-3.3 1.3 0 2.2.7 2.3 2.1h1.3c-.1-2-1.5-3.2-3.6-3.2-2.6 0-4 1.8-4 4.4 0 2.6 1.3 4.4 4 4.4 2.1 0 3.5-1.2 3.6-3.2h-1.3zm3.8.8c0 1.7.9 2.4 2.3 2.4.4 0 .7 0 1.1-.1V50c-.3 0-.6.1-.8.1-.8 0-1.2-.4-1.2-1.3v-5.1h2v-1.1h-2v-2.2h-1.3v2.2h-1.2v1.1h1.2v5.1zm8.7 2.4c2.5 0 4.2-1.8 4.2-4.4 0-2.7-1.7-4.4-4.2-4.4s-4.2 1.8-4.2 4.4c0 2.6 1.7 4.4 4.2 4.4zm0-1.1c-1.7 0-2.9-1.3-2.9-3.4 0-2 1.2-3.4 2.9-3.4s2.9 1.3 2.9 3.4c0 2-1.2 3.4-2.9 3.4zm6.5.9h1.3v-4.9c0-1.6.9-2.5 2.3-2.5.2 0 .4 0 .6.1v-1.3h-.4c-1.2 0-2 .6-2.5 1.5v-1.3h-1.3V51zm7 3.1h1.4l4.3-11.7h-1.4l-2.5 7-2.7-7h-1.4l3.4 8.6-1.1 3.1zM1052.3 51h1.4V40.4h3.9v-1.2h-9.2v1.2h3.9V51zm5.2 0h1.3v-4.9c0-1.6.9-2.5 2.3-2.5.2 0 .4 0 .6.1v-1.3h-.4c-1.2 0-1.9.6-2.5 1.5v-1.3h-1.3V51zm11.4-2.8c-.2 1.3-1.1 1.9-2.4 1.9-1.5 0-2.5-1.1-2.5-3.2h6.3v-.4c0-2.4-1.1-4.1-3.7-4.1s-3.9 1.8-3.9 4.4c0 2.7 1.2 4.4 3.9 4.4 2.1 0 3.5-1.2 3.6-3h-1.3zm-4.9-2.3c.2-1.7 1.1-2.5 2.6-2.5s2.3 1 2.3 2.5h-4.9zm8.7 5.1h1.3v-5c0-1.6 1-2.6 2.5-2.6 1.3 0 1.8.8 1.8 2.3V51h1.3v-5.6c0-2-.8-3.1-2.8-3.1-1.4 0-2.2.6-2.8 1.5v-1.3h-1.3V51zm13.3-.9c-1.7 0-2.7-1.2-2.7-3.3 0-2.2 1.1-3.4 2.7-3.4 1.8 0 2.6 1.2 2.6 3.3s-.9 3.4-2.6 3.4zm2.5.9h1.3V39.2h-1.3v4.6c-.6-.9-1.4-1.5-2.8-1.5-2.3 0-3.7 1.7-3.7 4.5 0 2.7 1.3 4.4 3.7 4.4 1.4 0 2.2-.6 2.8-1.5V51zm3.4-2.8c.1 2 1.3 2.9 3.5 2.9 2 0 3.2-1 3.2-2.5 0-3.3-5.1-1.8-5.1-3.9 0-.7.4-1.4 1.7-1.4 1.2 0 1.8.5 1.9 1.8h1.3c-.1-1.9-1.3-2.9-3.2-2.9-2 0-3 1.1-3 2.5 0 3.4 5.1 1.7 5.1 4 0 .9-.7 1.4-1.8 1.4-1.3 0-2.2-.5-2.3-1.9h-1.3zM1127 44.6v-4.2h3.1c1.4 0 2.2.8 2.2 2 0 1.3-1 2.1-2.2 2.1h-3.1zm-1.5 6.4h1.4v-5.2h1c1.3 0 1.3 0 2.5 1.6l2.7 3.6h1.7l-3-4c-.4-.5-.8-1.1-1.2-1.3 1.8-.2 3-1.5 3-3.3 0-2-1.4-3.2-3.5-3.2h-4.6V51zm16.4-2.8c-.2 1.3-1.1 1.9-2.4 1.9-1.5 0-2.5-1.1-2.5-3.2h6.3v-.4c0-2.4-1.1-4.1-3.7-4.1s-3.9 1.8-3.9 4.4c0 2.7 1.2 4.4 3.9 4.4 2.1 0 3.5-1.2 3.6-3h-1.3zm-4.9-2.3c.2-1.7 1.1-2.5 2.6-2.5s2.3 1 2.3 2.5h-4.9zm12.6 4.2c-1.8 0-2.6-1.2-2.6-3.3 0-2.2.8-3.4 2.6-3.4 1.7 0 2.7 1.2 2.7 3.3 0 2.2-1.1 3.4-2.7 3.4zm-3.8 4h1.3v-4.5c.6.9 1.4 1.5 2.8 1.5 2.3 0 3.7-1.7 3.7-4.5 0-2.6-1.3-4.4-3.7-4.4-1.5 0-2.2.6-2.8 1.5v-1.3h-1.3v11.7zm13.9-2.9c2.5 0 4.2-1.8 4.2-4.4 0-2.7-1.7-4.4-4.2-4.4s-4.2 1.8-4.2 4.4c0 2.6 1.7 4.4 4.2 4.4zm0-1.1c-1.7 0-2.9-1.3-2.9-3.4 0-2 1.2-3.4 2.9-3.4s2.9 1.3 2.9 3.4c0 2-1.2 3.4-2.9 3.4zm6.5.9h1.3v-4.9c0-1.6.9-2.5 2.3-2.5.2 0 .4 0 .6.1v-1.3h-.4c-1.2 0-2 .6-2.5 1.5v-1.3h-1.3V51zm6-2.2c0 1.7.9 2.4 2.3 2.4.4 0 .7 0 1-.1V50c-.3 0-.6.1-.8.1-.8 0-1.2-.4-1.2-1.3v-5.1h2v-1.1h-2v-2.2h-1.3v2.2h-1.2v1.1h1.2v5.1zm4.5-.6c.1 2 1.3 2.9 3.5 2.9 2 0 3.2-1 3.2-2.5 0-3.3-5.1-1.8-5.1-3.9 0-.7.4-1.4 1.7-1.4 1.2 0 1.8.5 1.9 1.8h1.3c-.1-1.9-1.3-2.9-3.2-2.9-2 0-3 1.1-3 2.5 0 3.4 5.1 1.7 5.1 4 0 .9-.7 1.4-1.8 1.4-1.3 0-2.2-.5-2.3-1.9h-1.3zM195.4 53.7h.5l2.1 2c2.2 2.1 3.6 3 6.2 3 3.6 0 5.6-1.9 5.6-5 0-2.3-.9-3.5-3.1-4.7-2.1-1.1-5.3-1.9-7.4-3.2-2.2-1.3-3.3-3.2-3.3-6 0-4.2 3.2-7.3 8.4-7.3 1.7 0 3.2.2 4.9.2h1.7l1.6 5.2h-.5l-2.2-2.1c-2.3-2.1-3.5-2.6-5.6-2.6-3 0-4.9 1.6-4.9 4.3 0 1.8.9 3.2 2.8 4.2s5.2 1.9 7.4 3.1c2.3 1.2 3.5 3.1 3.5 6.2 0 4.8-3.5 8.4-9.1 8.4-2 0-3.8-.3-5.7-.3H197l-1.6-5.4zM221.1 36.5h.3V41h5.2v1.6h-5.2V54c0 2 .9 3.1 3 3.1.8 0 1.6-.2 2.3-.6l.3.3c-.5.9-1.2 1.7-2.1 2.2-.9.5-1.9.8-2.9.8-2.5 0-4.8-1.4-4.8-5.1v-12h-2.5v-.4l6.4-5.8zM244.2 55.8v3.4h-2.8c-.8 0-1.6-.2-2.2-.7-.6-.5-1.1-1.2-1.2-1.9-1 1.5-2.6 2.9-5.2 2.9-2.7 0-4.6-1.7-4.6-4.4 0-2.3 1.6-3.7 4.2-4.8 1.8-.8 3.6-1.4 5.4-1.8v-3.2c0-2.2-1.4-3-3.7-3-.7 0-1.3.1-1.9.2v4.1H228c.3-1.8 1.6-3.3 3.3-4.3 1.7-1 3.6-1.6 5.6-1.6 3.2 0 5 1.6 5 4.8v10.4h2.3zm-6.4.3v-6.9c-1.3.3-2.5.8-3.7 1.4-1.2.6-1.9 1.5-1.9 3.1 0 2.1 1.1 3.4 2.9 3.4 1 0 2-.3 2.7-1zM246 32.5v-.2l5.6-.9v26l1.2 1.6v.2h-6.5V59l1.2-1.6V34.8l-1.5-2.3zM255.3 32.5v-.2l5.6-.9v26l1.2 1.6v.2h-6.5V59l1.2-1.6V34.8l-1.5-2.3zM264.9 59.1l1.2-1.6v-14l-1-2.3V41h5.3v16.4l1.2 1.6v.2h-6.5l-.2-.1zm5.5-21.8H266v-4h4.4v4zM274 50.3c0-5.7 3.8-9.6 9.1-9.6 5.2 0 9 3.9 9 9.4 0 5.7-3.8 9.6-9.1 9.6-5.2 0-9-3.9-9-9.4zm13.4-.1c0-6-1.4-8.8-4.4-8.8-3 0-4.4 2.7-4.4 8.8 0 6.1 1.4 8.8 4.4 8.8s4.4-2.8 4.4-8.8zM312.7 59.1v.2h-6.5v-.2l1.2-1.6V47c0-2.6-1.6-3.7-3.9-3.7-1.2 0-2.4.3-3.5 1v13l1.2 1.6v.2h-6.5v-.2l1.2-1.6V43.5l-1.1-2.3V41h5.3v2.8c.7-1 1.7-1.8 2.8-2.3 1.1-.6 2.3-.8 3.5-.9 3.3 0 5.2 2.2 5.2 5.5v11.2l1.1 1.8zM349.3 34.8v22.5l1.4 1.8v.2h-7.3v-.2l1.4-1.8V35.6h-.4l-8.6 23.7h-.6l-8.8-23.7h-.4v19.8l1.8 3.7v.2h-4.5v-.2l1.8-3.7v-20l-1.5-2.4v-.2h6.8l7.1 19.1 7-19.1h6.2v.2l-1.4 1.8zM369.6 55.8v3.4h-2.8c-.8 0-1.6-.2-2.2-.7-.6-.5-1.1-1.2-1.2-1.9-1 1.5-2.6 2.9-5.2 2.9-2.7 0-4.6-1.7-4.6-4.4 0-2.3 1.6-3.7 4.2-4.8 1.8-.8 3.6-1.4 5.4-1.8v-3.2c0-2.2-1.4-3-3.7-3-.7 0-1.3.1-1.9.2v4.1h-4.2c.3-1.8 1.6-3.3 3.3-4.3 1.7-1 3.6-1.6 5.6-1.6 3.2 0 5 1.6 5 4.8v10.4h2.3zm-6.3.3v-6.9c-1.3.3-2.5.8-3.7 1.4-1.2.6-1.9 1.5-1.9 3.1 0 2.1 1.1 3.4 2.9 3.4.9 0 1.9-.3 2.7-1zM376.8 36.5h.3V41h5.1v1.6h-5.1V54c0 2 .9 3.1 3 3.1.8 0 1.6-.2 2.3-.6l.3.3c-.5.9-1.2 1.7-2.1 2.2-.9.5-1.9.8-2.9.8-2.5 0-4.8-1.4-4.8-5.1v-12h-2.5v-.4l6.4-5.8zM383.5 51.8c0-2.9 1.3-5.3 3.2-7.2 1.9-1.9 4.4-3.8 7.1-3.8h3.6v3.7h-7.5c-2.3 0-3.5.8-3.5 4.2 0 4.6 2.6 7.7 7.3 7.7 1.4.1 2.8-.3 4.1-1l.3.3c-.6 1.3-1.5 2.3-2.7 3-1.2.7-2.6 1.1-3.9 1-4.8 0-8-3.4-8-7.9zM417.9 59.1v.2h-6.5v-.2l1.1-1.6V47c0-2.6-1.6-3.7-3.9-3.7-1.2 0-2.4.3-3.4 1v13l1.1 1.6v.2h-6.5v-.2l1.2-1.6V34.8l-1.4-2.3v-.2l5.6-.9v12.4c.7-1 1.7-1.8 2.8-2.3 1.1-.6 2.3-.8 3.5-.9 3.3 0 5.3 2.2 5.3 5.5v11.2l1.1 1.8z"/><path class="st2" d="M170.6 24.5c10.2 0 12.3 11.7 12.3 21.5s-2.1 21.5-12.3 21.5c-10.2 0-12.3-11.7-12.3-21.5s2.1-21.5 12.3-21.5zm0-1.5c-5.2 0-9.1 2.8-11.4 8-1.6 3.7-2.5 8.8-2.5 15 0 6.2.8 11.3 2.5 15.1 2.3 5.2 6.2 8 11.4 8s9.1-2.8 11.4-8c1.6-3.8 2.5-8.8 2.5-15 0-6.2-.8-11.3-2.5-15-2.3-5.3-6.2-8.1-11.4-8.1z"/><path class="st2" d="M174.3 44.7c.6.2 1.3.2 2-.1.2-.1 1.4-.6 1.8-1.6.3-.9-.9-7.3-2.7-10.1l.9-1.2-.4-.5c-.6-.8-1.4-1.4-2.4-1.8-.9-.4-1.9-.6-2.9-.5-.9 0-1.9.1-2.7.5-.9.4-1.6.9-2.3 1.6-1.3 1.4-2.1 3.3-2.1 5.2 0 2.7 1.1 6.7 6.6 10.4 4.9 3.4 6 6.9 6 9.2 0 1.5-.6 3-1.6 4.2-.5.5-1.1.9-1.8 1.2-.7.3-1.4.4-2.1.3-.7 0-1.3-.1-2-.3-.6-.2-1.2-.6-1.7-1l.9-1.1-.4-.5c-1.7-2.1-2.8-8.5-2.8-9.2.2-.3.5-.6.9-.7.1-.1.3-.1.4-.1.2 0 .3 0 .4.1.1.1.3.2.4.3-.1.4-.1.7 0 1.1.1.4.3.7.5 1 .5.6 1 1.1 1.5 1.6 1.6 1.5 2.8 2.8 2.4 3.8l1.2.9c1.3-2.1-.9-4.2-2.6-5.8-.5-.4-1-.9-1.4-1.4-.3-.4-.3-.5-.2-.7.2-.9-.5-1.9-1.3-2.2-.6-.2-1.3-.2-2 .1-.2.1-1.4.6-1.8 1.6-.3.9.9 7.3 2.7 10.1l-.9 1.2.4.5c.6.8 1.4 1.4 2.3 1.8.9.4 1.9.6 2.9.6.9 0 1.9-.1 2.7-.5.9-.4 1.6-.9 2.3-1.6 1.3-1.4 2.1-3.3 2.1-5.2 0-2.7-1.1-6.7-6.6-10.4-4.9-3.4-6-6.9-6-9.2 0-1.5.6-3 1.6-4.2.5-.5 1.1-.9 1.8-1.2s1.4-.4 2.1-.3c.7 0 1.3.1 2 .3s1.2.6 1.7 1l-.9 1.1.4.5c1.7 2.1 2.8 8.5 2.8 9.2-.2.3-.5.6-.9.7-.1.1-.3.1-.4.1-.2 0-.3 0-.4-.1-.1-.1-.3-.2-.4-.3.1-.4.1-.7 0-1.1-.1-.4-.3-.7-.5-1-.5-.6-1-1.1-1.5-1.6-1.6-1.5-2.8-2.8-2.4-3.8l-1.2-.9c-1.3 2.1.9 4.2 2.6 5.8.5.4 1 .9 1.4 1.4.3.4.3.5.2.7-.2.8.6 1.9 1.4 2.1z"/><path class="st0" d="M1229 26h35c11 0 20 9 20 20s-9 20-20 20h-35c-11 0-20-9-20-20s9-20 20-20z"/><path d="M1256 40h16m-16 6h16m-16 6h16" fill="none" stroke="#1d472e" stroke-width="2" stroke-linecap="round" stroke-linejoin="round"/><circle class="st4" cx="1229" cy="46" r="15"/><path class="st5" d="M164 148h1112c4.4 0 8 3.6 8 8v174c0 4.4-3.6 8-8 8H164c-4.4 0-8-3.6-8-8V156c0-4.4 3.6-8 8-8z"/><defs><filter id="Adobe_OpacityMaskFilter" filterUnits="userSpaceOnUse" x="90" y="-927.2" width="590.4" height="1364.4"><feColorMatrix values="1 0 0 0 0 0 1 0 0 0 0 0 1 0 0 0 0 0 1 0"/></filter></defs><mask maskUnits="userSpaceOnUse" x="90" y="-927.2" width="590.4" height="1364.4" id="mask0_9061_70434_1_"><circle cx="216" cy="208" r="36" fill="#999" filter="url(#Adobe_OpacityMaskFilter)"/></mask><g mask="url(#mask0_9061_70434_1_)"><path class="st4" d="M90-927.2h590.4V437.2H90z"/><path class="st4" d="M162 172h96v99.6h-96z"/><path class="st4" d="M159.6 154H324v112.8H159.6z"/></g><path class="st1" d="M280.6 190.8v32.4l-2 2.6v.3h10.5v-.3l-2-2.6v-32.4l2-2.6v-.3h-10.5v.3l2 2.6zm56.1 32l-13.3-34.9h-7.2l1.3 3.5-11 29.2-3.4 5.1v.3h6.4v-.3l-1.7-4.9 2.7-7.2h15.6l3.7 9.6-.7 2.5v.3h9.9v-.3l-2.3-2.9zm-25.3-11.6l6.8-18.2 7 18.2h-13.8zm69.8 12.2v-16.2c0-4.8-2.7-7.9-7.3-7.9-4.1 0-7.1 2.4-8.9 4.8-.8-2.4-3.1-4.8-7.1-4.8-4.1 0-7.1 2.4-8.8 4.6v-4h-7.6v.3l1.5 3.2v20l-1.7 2.4v.3h9.4v-.3l-1.7-2.4v-18.8c.9-.7 2.6-1.5 4.7-1.5 3.2 0 5.4 1.5 5.4 5v15.2l-1.7 2.4v.3h9.4v-.3l-1.6-2.4v-18.8c1-.8 2.6-1.5 4.6-1.5 3.3 0 5.4 1.5 5.4 5.3v15l-1.6 2.4v.3h9.4v-.3l-1.8-2.3zm19.5-32.6v32.4l-2 2.6v.3h10.5v-.3l-2-2.6v-32.4l2-2.6v-.3h-10.5v.3l2 2.6zm37.4 32.6v-16.2c0-4.8-2.7-8-7.5-8-4.3 0-7.3 2.4-9.1 4.6v-4h-7.6v.3l1.5 3.2v20l-1.7 2.4v.3h9.4v-.3l-1.7-2.4v-18.8c.9-.7 2.7-1.5 5-1.5 3.2 0 5.6 1.5 5.6 5.3v15l-1.7 2.4v.3h9.4v-.3l-1.6-2.3zm21.9-23.6v.3l1.6 4.3-6 18.6-6.9-20.6.6-2.4v-.3h-8.8v.3l2.1 3 7.8 23h5.5l6.9-21.4 2.9-4.5v-.3H460zm15.5-11.1h-6.3v5.8h6.3v-5.8zm-7.9 37.3h9.4v-.3l-1.7-2.4v-23.6h-7.6v.3l1.5 3.2v20l-1.7 2.4v.4zm37.8-2.6v-16.2c0-4.8-2.7-8-7.5-8-4.3 0-7.3 2.4-9.1 4.6v-4h-7.6v.3l1.5 3.2v20l-1.7 2.4v.3h9.4v-.3l-1.7-2.4v-18.8c.9-.7 2.7-1.5 5-1.5 3.2 0 5.6 1.5 5.6 5.3v15l-1.7 2.4v.3h9.4v-.3l-1.6-2.3zm16.4 3.2c5 0 8.2-2.9 9.6-5.9l-.4-.4c-1.3.8-3.2 1.5-5.8 1.5-6.7 0-10.5-4.5-10.5-11 0-4.9 1.8-6 5.1-6h10.8v-5.3h-5.2c-3.9 0-7.4 2.7-10.2 5.5-2.7 2.8-4.6 6.3-4.6 10.4-.1 6.3 4.4 11.2 11.2 11.2zm20.5-37.9H536v5.8h6.3v-5.8zm-7.9 37.3h9.4v-.3l-1.7-2.4v-23.6h-7.6v.3l1.5 3.2v20l-1.7 2.4v.4zm29.3-26.8c-3.8 0-6.5 2.1-8.3 4.5V186l-8 1.3v.3l2 3.2V226h10.4c8.2 0 14-6.4 14-14.7-.1-6.8-3.8-12.1-10.1-12.1zm-1.7 25.5l-6.6-2.1v-18.1c1.1-.8 2.6-1.5 4.7-1.5 5.2 0 7.9 4 7.9 11.1 0 5.9-2 9.8-6 10.6zm17.1-33.9v32.6l-1.7 2.4v.3h9.4v-.3l-1.7-2.4V186l-8.1 1.3v.3l2.1 3.2zm34.2 28.8c-1.5 1.3-4 2.4-7.2 2.4-6.8 0-10.3-4.7-10.3-12v-.7h17.9c-.6-6.2-4.8-10-10.8-10-7.4 0-12.4 6.1-12.4 14.2 0 7.4 4.9 13.2 12.5 13.2 6 0 9.4-3.3 10.8-6.6l-.5-.5zm-11.5-19.2c3.4 0 5 2.7 5.4 7.7h-11.4c.5-5.1 2.7-7.7 6-7.7z"/><path class="st8" d="M277.2 270.1c.2 2.8 1.9 4.1 5 4.1 2.8 0 4.5-1.4 4.5-3.8 0-5.1-7.5-2.6-7.5-6.2 0-1.2.7-2.3 2.7-2.3 1.9 0 2.9.9 3.1 2.7h1.6c-.2-2.6-1.9-4.1-4.7-4.1-2.7 0-4.3 1.5-4.3 3.8 0 4.9 7.5 2.4 7.5 6.2 0 1.5-1.1 2.2-2.9 2.2-1.8 0-3.2-.7-3.4-2.7h-1.6zm18.4.8c-.2 1.5-1.3 2.1-2.7 2.1-1.7 0-2.8-1.2-2.8-3.6h7.1v-.5c0-2.7-1.2-4.6-4.2-4.6-2.9 0-4.4 2.1-4.4 5 0 3 1.4 5 4.4 5 2.3 0 3.9-1.4 4.1-3.4h-1.5zm-5.5-2.6c.2-1.9 1.3-2.8 2.9-2.8 1.6 0 2.6 1.1 2.6 2.8h-5.5zm9.8 5.7h1.4v-5.5c0-1.8 1-2.9 2.6-2.9.2 0 .4 0 .6.1v-1.5h-.4c-1.4 0-2.2.6-2.8 1.7v-1.5h-1.4v9.6zm9.1 0h1.4l3.8-9.6h-1.5l-2.9 7.9-2.9-7.9h-1.6l3.7 9.6zm7.7-11.6c.6 0 1-.4 1-1s-.4-1-1-1-1 .5-1 1c0 .6.4 1 1 1zm-.8 11.6h1.4v-9.6h-1.4v9.6zm11.1-3.4c-.1 1.6-1.1 2.3-2.6 2.3-1.8 0-3-1.2-3-3.8 0-2.5 1.2-3.7 3-3.7 1.5 0 2.5.8 2.6 2.3h1.5c-.1-2.3-1.6-3.6-4-3.6-3 0-4.5 2-4.5 5s1.5 5 4.5 5c2.4 0 3.9-1.3 4-3.6H327zm10.6.3c-.2 1.5-1.3 2.1-2.7 2.1-1.7 0-2.8-1.2-2.8-3.6h7.1v-.5c0-2.7-1.2-4.6-4.2-4.6-2.9 0-4.4 2.1-4.4 5 0 3 1.4 5 4.4 5 2.3 0 3.9-1.4 4.1-3.4h-1.5zm-5.5-2.6c.2-1.9 1.3-2.8 2.9-2.8 1.6 0 2.6 1.1 2.6 2.8h-5.5zm15 5.7h1.6v-6.1h6.2v-1.4h-6.2v-4.4h6.4v-1.4h-8V274zm16.8-3.1c-.2 1.5-1.3 2.1-2.7 2.1-1.7 0-2.8-1.2-2.8-3.6h7.1v-.5c0-2.7-1.2-4.6-4.2-4.6-2.9 0-4.4 2.1-4.4 5 0 3 1.4 5 4.4 5 2.3 0 3.9-1.4 4.1-3.4h-1.5zm-5.5-2.6c.2-1.9 1.3-2.8 2.9-2.8 1.6 0 2.6 1.1 2.6 2.8h-5.5zm16.3 2.6c-.2 1.5-1.3 2.1-2.7 2.1-1.7 0-2.8-1.2-2.8-3.6h7.1v-.5c0-2.7-1.2-4.6-4.2-4.6-2.9 0-4.4 2.1-4.4 5 0 3 1.4 5 4.4 5 2.3 0 3.9-1.4 4.1-3.4h-1.5zm-5.6-2.6c.2-1.9 1.3-2.8 2.9-2.8 1.6 0 2.6 1.1 2.6 2.8h-5.5zm9.4-2.4c0 .6.5 1.1 1.1 1.1s1.1-.4 1.1-1.1c0-.7-.5-1.1-1.1-1.1s-1.1.4-1.1 1.1zm0 7.1c0 .6.5 1.1 1.1 1.1s1.1-.4 1.1-1.1c0-.7-.5-1.1-1.1-1.1s-1.1.4-1.1 1.1zm13.2-6.7c-1.2-.4-2.1-.9-2.1-2.3 0-1 .6-2.1 2.1-2.2v4.5zm1.2 1.8c1.2.4 2.2.9 2.2 2.4 0 1.3-.8 2.1-2.2 2.2v-4.6zm-1.2 7.5h1.2v-1.5c2.3-.2 3.7-1.5 3.7-3.7 0-2.7-1.9-3.3-3.7-3.8v-4.8c1.4.2 2 1.3 2.1 2.6h1.5c-.2-2.4-1.5-3.7-3.6-4v-1.5h-1.2v1.5c-2.2.2-3.5 1.6-3.5 3.7 0 2.5 1.8 3.1 3.5 3.6v4.9c-1.3-.2-2.3-1-2.4-2.7h-1.5c.2 2.6 1.6 3.9 3.9 4.1v1.6zm7.1-1.6h7.6v-1.3h-2.9v-12h-1.2l-4.2 2.6.7 1.1 3.3-2v10.2h-3.2v1.4zm10.7 0h1.7l5.8-12v-1.3h-8.6v1.3h6.9l-5.8 12zm9.3 0h8.4v-1.3h-6.5c3.3-3.5 6.3-5.4 6.3-8.4 0-2.3-1.4-3.8-4.1-3.8-2.6 0-4.2 1.7-4.3 4.2h1.5c.2-1.8 1.2-2.8 2.9-2.8 1.6 0 2.5 1 2.5 2.5 0 2.7-3.1 4.6-6.7 8.4v1.2zm9.3 2.8h1.2l2.2-4.4h-1.8l-1.6 4.4zm9.5-2.6c2.5 0 4.6-1.9 4.6-6.8s-2.1-6.8-4.6-6.8c-2.5 0-4.6 1.9-4.6 6.8s2.1 6.8 4.6 6.8zm0-1.3c-1.6 0-3.1-1.3-3.1-5.5s1.5-5.5 3.1-5.5 3.1 1.3 3.1 5.5-1.5 5.5-3.1 5.5zm10.3 1.3c2.5 0 4.6-1.9 4.6-6.8s-2.1-6.8-4.6-6.8c-2.5 0-4.6 1.9-4.6 6.8s2.1 6.8 4.6 6.8zm0-1.3c-1.6 0-3.1-1.3-3.1-5.5s1.5-5.5 3.1-5.5 3.1 1.3 3.1 5.5-1.5 5.5-3.1 5.5zm10.3 1.3c2.5 0 4.6-1.9 4.6-6.8s-2.1-6.8-4.6-6.8c-2.5 0-4.6 1.9-4.6 6.8s2.1 6.8 4.6 6.8zm0-1.3c-1.6 0-3.1-1.3-3.1-5.5s1.5-5.5 3.1-5.5 3.1 1.3 3.1 5.5-1.5 5.5-3.1 5.5zM281.5 302h1.6v-5.5l5.4-7.8h-1.9l-4.3 6.3-4.2-6.3h-1.9l5.3 7.8v5.5zm13.9.2c3.8 0 6.3-2.7 6.3-6.8s-2.5-6.9-6.3-6.9-6.3 2.8-6.3 6.9 2.6 6.8 6.3 6.8zm0-1.4c-2.7 0-4.7-2.1-4.7-5.4 0-3.3 1.9-5.4 4.7-5.4 2.8 0 4.7 2.2 4.7 5.4s-1.9 5.4-4.7 5.4zm9.1 1.2h5.9c2.5 0 4.1-1.4 4.1-3.8 0-1.7-1.1-3-2.6-3.5 1-.6 1.6-1.7 1.6-2.8 0-2-1.4-3.3-3.7-3.3h-5.3V302zm1.6-7.6V290h3.5c1.5 0 2.3.9 2.3 2.1 0 1.3-.9 2.2-2.3 2.2h-3.5zm0 6.2v-4.8h4.2c1.4 0 2.6.9 2.6 2.5 0 1.4-.9 2.3-2.5 2.3h-4.3zm10.4-6.7c0 .6.5 1.1 1.1 1.1s1.1-.4 1.1-1.1c0-.7-.4-1.1-1.1-1.1s-1.1.4-1.1 1.1zm0 7.1c0 .6.5 1.1 1.1 1.1s1.1-.4 1.1-1.1c0-.7-.4-1.1-1.1-1.1s-1.1.4-1.1 1.1zm9.5 1h8.4v-1.3h-6.5c3.3-3.5 6.3-5.4 6.3-8.4 0-2.3-1.4-3.8-4.1-3.8-2.6 0-4.2 1.7-4.3 4.2h1.5c.2-1.8 1.2-2.8 2.9-2.8 1.6 0 2.5 1 2.5 2.5 0 2.7-3.1 4.6-6.7 8.4v1.2zm14.4.2c2.5 0 4.6-1.9 4.6-6.8s-2.1-6.8-4.6-6.8c-2.5 0-4.6 1.9-4.6 6.8s2.1 6.8 4.6 6.8zm0-1.3c-1.6 0-3.1-1.3-3.1-5.5s1.5-5.5 3.1-5.5 3.1 1.3 3.1 5.5-1.5 5.5-3.1 5.5zm10.3 1.3c2.5 0 4.6-1.9 4.6-6.8s-2.1-6.8-4.6-6.8c-2.5 0-4.6 1.9-4.6 6.8s2.1 6.8 4.6 6.8zm0-1.3c-1.6 0-3.1-1.3-3.1-5.5s1.5-5.5 3.1-5.5 3.1 1.3 3.1 5.5-1.5 5.5-3.1 5.5zm10.3 1.3c2.5 0 4.6-1.9 4.6-6.8s-2.1-6.8-4.6-6.8c-2.5 0-4.6 1.9-4.6 6.8s2.1 6.8 4.6 6.8zm0-1.3c-1.6 0-3.1-1.3-3.1-5.5s1.5-5.5 3.1-5.5 3.1 1.3 3.1 5.5-1.5 5.5-3.1 5.5z"/><path class="st9" d="M774.5 204a3.32 3.32 0 00-4.7 0l-3.3 3.3a3.32 3.32 0 000 4.7c1.3 1.3 3.4 1.3 4.7 0l.9-.9m-.6-4.1c1.3 1.3 3.4 1.3 4.7 0l3.3-3.3c1.3-1.3 1.3-3.4 0-4.7s-3.4-1.3-4.7 0l-.9.9"/><path class="st10" d="M792.2 208.1c.2 2.8 1.9 4.1 5 4.1 2.8 0 4.5-1.4 4.5-3.8 0-5.1-7.5-2.6-7.5-6.2 0-1.2.7-2.3 2.7-2.3 1.9 0 2.9.9 3.1 2.7h1.6c-.2-2.6-1.9-4.1-4.7-4.1-2.7 0-4.3 1.5-4.3 3.8 0 4.9 7.5 2.4 7.5 6.2 0 1.5-1.1 2.2-2.9 2.2-1.8 0-3.2-.7-3.4-2.7h-1.6zm11.9 1.4c0 1.9 1 2.7 2.5 2.7.4 0 .8-.1 1.2-.1v-1.3c-.4.1-.6.1-.9.1-.8 0-1.4-.4-1.4-1.5v-5.8h2.3v-1.2h-2.3v-2.5h-1.4v2.5h-1.4v1.2h1.4v5.9zm11.7-1.4c0 1.8-1.3 2.9-3.2 2.9-1.1 0-1.9-.6-1.9-1.6 0-1.9 2.9-1.7 5.1-2.3v1zm0 3.9h1.4v-6.2c0-2.5-1.3-3.7-3.7-3.7-2.5 0-3.6 1.2-3.9 3.3h1.4c.2-1.5 1-2.1 2.4-2.1 1.5 0 2.3.8 2.3 2 0 .7-.2.8-1.7 1-2 .3-4.9.4-4.9 3.2 0 1.4 1 2.6 3 2.6 1.7 0 2.8-.6 3.5-1.6v1.5zm4.4 0h1.4v-13.3h-1.4V212zm4.7 0h1.4v-13.3h-1.4V212zm5.3-11.6c.6 0 1-.4 1-1s-.5-1-1-1c-.6 0-1 .5-1 1 0 .6.4 1 1 1zm-.7 11.6h1.4v-9.6h-1.4v9.6zm8.8.2c2.8 0 4.7-2 4.7-5s-1.9-5-4.7-5-4.7 2-4.7 5 1.8 5 4.7 5zm0-1.2c-1.9 0-3.3-1.5-3.3-3.8s1.3-3.8 3.3-3.8c1.9 0 3.3 1.5 3.3 3.8-.1 2.3-1.4 3.8-3.3 3.8zm7.3 1h1.4v-5.6c0-1.8 1.1-2.9 2.8-2.9 1.5 0 2.1.9 2.1 2.6v5.9h1.4v-6.3c0-2.2-.8-3.5-3.2-3.5-1.6 0-2.5.6-3.1 1.7v-1.5h-1.4v9.6zm15.9 0h1.5v-11.1l4 7.5h1.2l4-7.5V212h1.5v-13.3h-2.1l-4.1 7.9-4.1-7.9h-2.1V212zm21.2-3.9c0 1.8-1.3 2.9-3.2 2.9-1.1 0-1.9-.6-1.9-1.6 0-1.9 2.9-1.7 5.1-2.3v1zm0 3.9h1.4v-6.2c0-2.5-1.3-3.7-3.7-3.7-2.5 0-3.6 1.2-3.9 3.3h1.4c.2-1.5 1-2.1 2.4-2.1 1.5 0 2.3.8 2.3 2 0 .7-.2.8-1.7 1-2 .3-4.9.4-4.9 3.2 0 1.4 1 2.6 3 2.6 1.7 0 2.8-.6 3.5-1.6v1.5zm4.4-2.5c0 1.9 1 2.7 2.5 2.7.4 0 .8-.1 1.2-.1v-1.3c-.4.1-.6.1-.9.1-.8 0-1.3-.4-1.3-1.5v-5.8h2.3v-1.2h-2.3v-2.5h-1.4v2.5h-1.4v1.2h1.4v5.9zm12.1-.9c-.1 1.6-1.1 2.3-2.6 2.3-1.8 0-3-1.2-3-3.8 0-2.5 1.2-3.7 3-3.7 1.5 0 2.5.8 2.6 2.3h1.5c-.1-2.3-1.6-3.6-4.1-3.6-3 0-4.5 2-4.5 5s1.5 5 4.5 5c2.4 0 3.9-1.3 4.1-3.6h-1.5zm4 3.4h1.4v-5.6c0-1.8 1.1-2.9 2.8-2.9 1.5 0 2.1.9 2.1 2.6v5.9h1.4v-6.3c0-2.2-.8-3.5-3.2-3.5-1.6 0-2.5.6-3.1 1.7v-5.2h-1.4V212zm15.9 0h8v-1.4h-6.4v-11.9h-1.6V212zm11.3-11.6c.6 0 1-.4 1-1s-.4-1-1-1-1 .5-1 1c0 .6.4 1 1 1zm-.7 11.6h1.4v-9.6h-1.4v9.6zm4.6 0h1.4v-5.6c0-1.8 1.1-2.9 2.8-2.9 1.5 0 2.1.9 2.1 2.6v5.9h1.4v-6.3c0-2.2-.8-3.5-3.1-3.5-1.6 0-2.5.6-3.2 1.7v-1.5h-1.4v9.6zm11 0h1.4v-5.2l4.9 5.2h1.9l-5-5.3 4.5-4.4h-1.9l-4.4 4.4v-8h-1.4V212z"/><path class="st9" d="M981.3 208.8v.8c0 1.4 1.1 2.5 2.5 2.5h8.3c1.4 0 2.5-1.1 2.5-2.5v-.8m-3.3-3.3l-3.3 3.3m0 0l-3.3-3.3m3.3 3.3v-10"/><path class="st10" d="M1007.7 212h4.7c3.7 0 6.2-2.7 6.2-6.7s-2.5-6.7-6.2-6.7h-4.7V212zm1.6-1.4v-10.5h3.1c2.6 0 4.5 2.1 4.5 5.3 0 3.2-1.9 5.3-4.5 5.3h-3.1zm16.1 1.6c2.8 0 4.7-2 4.7-5s-1.9-5-4.7-5c-2.9 0-4.7 2-4.7 5s1.9 5 4.7 5zm0-1.2c-2 0-3.3-1.5-3.3-3.8s1.3-3.8 3.3-3.8c1.9 0 3.3 1.5 3.3 3.8s-1.3 3.8-3.3 3.8zm8.7 1h1.4l2.5-7.5 2.5 7.5h1.4l3-9.6h-1.5l-2.2 7.7-2.4-7.7h-1.4l-2.4 7.7-2.2-7.7h-1.5l2.8 9.6zm12.5 0h1.4v-5.6c0-1.8 1.1-2.9 2.8-2.9 1.5 0 2.1.9 2.1 2.6v5.9h1.4v-6.3c0-2.2-.8-3.5-3.2-3.5-1.6 0-2.5.6-3.2 1.7v-1.5h-1.4v9.6zm11 0h1.4v-13.3h-1.4V212zm8.8.2c2.8 0 4.7-2 4.7-5s-1.9-5-4.7-5c-2.8 0-4.7 2-4.7 5s1.8 5 4.7 5zm0-1.2c-1.9 0-3.3-1.5-3.3-3.8s1.3-3.8 3.3-3.8c1.9 0 3.3 1.5 3.3 3.8-.1 2.3-1.4 3.8-3.3 3.8zm13-2.9c0 1.8-1.3 2.9-3.2 2.9-1.1 0-1.9-.6-1.9-1.6 0-1.9 2.9-1.7 5.1-2.3v1zm0 3.9h1.4v-6.2c0-2.5-1.3-3.7-3.7-3.7-2.5 0-3.6 1.2-3.9 3.3h1.4c.2-1.5 1-2.1 2.4-2.1 1.5 0 2.3.8 2.3 2 0 .7-.2.8-1.7 1-2 .3-4.9.4-4.9 3.2 0 1.4 1 2.6 3 2.6 1.7 0 2.8-.6 3.5-1.6v1.5zm8.4-1c-1.9 0-3-1.4-3-3.8 0-2.5 1.2-3.8 3-3.8 2 0 2.9 1.4 2.9 3.8s-.9 3.8-2.9 3.8zm2.8 1h1.4v-13.3h-1.4v5.2c-.6-1-1.5-1.7-3.1-1.7-2.6 0-4.2 1.9-4.2 5 0 3 1.5 5 4.2 5 1.6 0 2.5-.7 3.1-1.7v1.5z"/><path class="st9" d="M1125.2 206.6c.2-.3.3-.7.3-1.1s-.1-.8-.3-1.1m0 2.2c-.4.8-1.3 1.4-2.2 1.4-1.4 0-2.5-1.1-2.5-2.5s1.1-2.5 2.5-2.5c1 0 1.8.6 2.2 1.4m0 2.2l5.5 2.8m-5.5-5l5.5-2.8m.1 0c.4.8 1.3 1.4 2.2 1.4 1.4 0 2.5-1.1 2.5-2.5s-1.1-2.5-2.5-2.5-2.5 1.1-2.5 2.5c0 .4.1.8.3 1.1zm0 7.8c-.2.3-.3.7-.3 1.1 0 1.4 1.1 2.5 2.5 2.5s2.5-1.1 2.5-2.5-1.1-2.5-2.5-2.5c-1 0-1.8.6-2.2 1.4z"/><path class="st10" d="M1147.2 208.1c.2 2.8 1.9 4.1 5 4.1 2.8 0 4.5-1.4 4.5-3.8 0-5.1-7.5-2.6-7.5-6.2 0-1.2.7-2.3 2.7-2.3 1.9 0 2.9.9 3.1 2.7h1.6c-.2-2.6-1.9-4.1-4.7-4.1-2.7 0-4.3 1.5-4.3 3.8 0 4.9 7.5 2.4 7.5 6.2 0 1.5-1.1 2.2-2.9 2.2-1.8 0-3.2-.7-3.4-2.7h-1.6zm12 3.9h1.4v-5.6c0-1.8 1.1-2.9 2.8-2.9 1.5 0 2.1.9 2.1 2.6v5.9h1.4v-6.3c0-2.2-.8-3.5-3.1-3.5-1.6 0-2.5.6-3.2 1.7v-5.2h-1.4V212zm16.6-3.9c0 1.8-1.3 2.9-3.2 2.9-1.1 0-1.9-.6-1.9-1.6 0-1.9 2.9-1.7 5.1-2.3v1zm0 3.9h1.4v-6.2c0-2.5-1.3-3.7-3.7-3.7-2.5 0-3.6 1.2-3.8 3.3h1.4c.2-1.5 1-2.1 2.4-2.1 1.5 0 2.3.8 2.3 2 0 .7-.2.8-1.7 1-2 .3-4.9.4-4.9 3.2 0 1.4 1 2.6 3 2.6 1.7 0 2.8-.6 3.5-1.6v1.5zm4.4 0h1.4v-5.5c0-1.8 1-2.9 2.6-2.9.2 0 .4 0 .6.1v-1.5h-.4c-1.4 0-2.2.6-2.8 1.7v-1.5h-1.4v9.6zm12.8-3.1c-.2 1.5-1.3 2.1-2.7 2.1-1.7 0-2.8-1.2-2.8-3.6h7v-.5c0-2.7-1.2-4.6-4.2-4.6-2.9 0-4.4 2.1-4.4 5 0 3 1.4 5 4.4 5 2.3 0 3.9-1.4 4.1-3.4h-1.4zm-5.5-2.6c.2-1.9 1.3-2.8 2.9-2.8 1.6 0 2.6 1.1 2.7 2.8h-5.6z"/><circle class="st0" cx="1240" cy="206" r="20"/><path class="st11" d="M1233.8 206c0 .6-.5 1-1 1-.6 0-1-.5-1-1s.5-1 1-1 1 .4 1 1zm7.2 0c0 .6-.5 1-1 1s-1-.5-1-1 .5-1 1-1 1 .4 1 1zm7.3 0c0 .6-.5 1-1 1-.6 0-1-.5-1-1s.5-1 1-1c.6 0 1 .4 1 1z"/><path class="st5" d="M164 510h1112c4.4 0 8 3.6 8 8v607c0 4.4-3.6 8-8 8H164c-4.4 0-8-3.6-8-8V518c0-4.4 3.6-8 8-8z"/><path class="st12" d="M979 550h4m-4 2.7h4m1.3 3.3h-6.7c-.7 0-1.3-.6-1.3-1.3v-9.3c0-.7.6-1.3 1.3-1.3h3.7c.2 0 .3.1.5.2l3.6 3.6c.1.1.2.3.2.5v6.4c.1.6-.5 1.2-1.3 1.2z"/><path class="st8" d="M994.3 555h3.8c2.9 0 4.8-2.1 4.8-5.2s-2-5.2-4.8-5.2h-3.8V555zm1.6-1.4V546h2.2c1.9 0 3.2 1.6 3.2 3.8 0 2.3-1.3 3.8-3.2 3.8h-2.2zm12.4 1.5c2.3 0 3.8-1.6 3.8-3.9s-1.5-3.9-3.8-3.9-3.7 1.6-3.7 3.9c0 2.4 1.4 3.9 3.7 3.9zm0-1.1c-1.4 0-2.2-1.1-2.2-2.7 0-1.7.9-2.7 2.2-2.7 1.4 0 2.2 1.1 2.2 2.7.1 1.6-.8 2.7-2.2 2.7zm6.9 1h1.5l1.8-5.4 1.8 5.4h1.5l2.3-7.5h-1.6l-1.6 5.6-1.7-5.6h-1.5l-1.7 5.6-1.6-5.6h-1.6l2.4 7.5zm10.3 0h1.5v-4.3c0-1.3.8-2.1 2-2.1 1.1 0 1.5.6 1.5 1.8v4.5h1.5V550c0-1.7-.7-2.7-2.5-2.7-1.3 0-1.9.5-2.4 1.3v-1.2h-1.5v7.6zm8.8 0h1.5v-10.4h-1.5V555zm7.2.1c2.3 0 3.8-1.6 3.8-3.9s-1.5-3.9-3.8-3.9-3.7 1.6-3.7 3.9c-.1 2.4 1.4 3.9 3.7 3.9zm0-1.1c-1.4 0-2.2-1.1-2.2-2.7 0-1.7.8-2.7 2.2-2.7 1.4 0 2.2 1.1 2.2 2.7s-.9 2.7-2.2 2.7zm10 1h1.5v-4.6c0-2-1-3-3-3-2.1 0-2.9 1-3.1 2.6h1.4c.1-1 .7-1.4 1.7-1.4s1.5.5 1.5 1.3c0 .5-.2.6-1.3.8-1.5.3-3.7.3-3.7 2.5 0 1.1.8 2 2.4 2 1.3 0 2.1-.5 2.6-1.2v1zm0-3c0 1.2-.9 2-2.2 2-.8 0-1.3-.4-1.3-1.1 0-1.3 2-1.2 3.5-1.6v.7zm8.9 3h1.5v-10.4h-1.5v4c-.5-.8-1.2-1.3-2.4-1.3-2.1 0-3.2 1.6-3.2 3.9 0 2.2 1.1 3.9 3.2 3.9 1.3 0 1.9-.5 2.4-1.3v1.2zm-2-1c-1.3 0-2.1-1-2.1-2.7 0-1.8.8-2.8 2.1-2.8 1.4 0 2 1 2 2.7 0 1.8-.7 2.8-2 2.8zm10.1 1h1.6v-4.3h.6c1 0 1.1 0 2.1 1.4l2.2 2.9h2l-2.6-3.3c-.4-.5-.7-.9-1-1.1 1.6-.3 2.6-1.4 2.6-3 0-1.8-1.2-2.9-3.2-2.9h-4.3V555zm1.6-5.6V546h2.4c1.1 0 1.8.7 1.8 1.7 0 1.1-.7 1.7-1.8 1.7h-2.4zm12.8 3c-.1 1-.8 1.5-1.8 1.5-1.2 0-1.9-.8-1.9-2.4h5.3v-.2c0-2.4-.9-3.9-3.3-3.9-2.3 0-3.5 1.6-3.5 3.9s1.1 3.9 3.5 3.9c2 0 3.1-1.1 3.3-2.7h-1.6zm-3.8-1.9c.2-1.3.8-2 2-2s1.8.8 1.8 2h-3.8zm7.4 7.2h1.5v-3.9c.5.8 1.2 1.3 2.4 1.3 2 0 3.2-1.6 3.2-3.9 0-2.2-1.1-3.9-3.2-3.9-1.2 0-1.9.5-2.4 1.3v-1.2h-1.5v10.3zm3.5-3.7c-1.4 0-2-1-2-2.7s.6-2.8 2-2.8c1.3 0 2.1 1 2.1 2.7 0 1.8-.8 2.8-2.1 2.8zm8.9 1.1c2.3 0 3.8-1.6 3.8-3.9s-1.5-3.9-3.8-3.9-3.7 1.6-3.7 3.9c-.1 2.4 1.4 3.9 3.7 3.9zm0-1.1c-1.4 0-2.2-1.1-2.2-2.7 0-1.7.9-2.7 2.2-2.7 1.4 0 2.2 1.1 2.2 2.7s-.8 2.7-2.2 2.7zm5.6 1h1.5v-4.1c0-1.3.8-2 1.9-2 .2 0 .5 0 .6.1v-1.6h-.4c-1 0-1.6.5-2.1 1.3v-1.2h-1.5v7.5zm5.7-2.2c0 1.7.8 2.4 2.3 2.4.4 0 .7-.1 1-.1v-1.3c-.3 0-.5.1-.7.1-.7 0-1.1-.3-1.1-1.1v-3.9h1.8v-1.2h-1.8v-1.9h-1.5v1.9h-1.1v1.2h1.1v3.9zm4.5-.3c.1 1.8 1.3 2.6 3.2 2.6 1.9 0 2.9-.9 2.9-2.2 0-2.9-4.4-1.7-4.4-3.4 0-.5.3-1 1.3-1 .9 0 1.4.4 1.5 1.4h1.5c-.1-1.7-1.1-2.5-3-2.5s-2.8 1-2.8 2.3c0 2.9 4.4 1.6 4.4 3.4 0 .7-.5 1-1.4 1-1 0-1.7-.4-1.8-1.5h-1.4z"/><path class="st13" d="M969 535h157v-2H969v2zm160 3v24h2v-24h-2zm-3 27H969v2h157v-2zm-160-3v-24h-2v24h2zm3 3c-1.7 0-3-1.3-3-3h-2c0 2.8 2.2 5 5 5v-2zm160-3c0 1.7-1.3 3-3 3v2c2.8 0 5-2.2 5-5h-2zm-3-27c1.7 0 3 1.3 3 3h2c0-2.8-2.2-5-5-5v2zm-157-2c-2.8 0-5 2.2-5 5h2c0-1.7 1.3-3 3-3v-2z"/><path class="st12" d="M1156.7 547.3v-2.7m0 .1h2.7m-2.7 0l3.3 3.3m7.3-.7v-2.7m0 .1h-2.7m2.7 0l-3.3 3.3m-7.3 4.7v2.7m0-.1h2.7m-2.7 0l3.3-3.3m7.3 3.3l-3.3-3.3m3.3 3.3v-2.7m0 2.7h-2.7"/><path class="st8" d="M1175.3 555h1.6v-4.6h4.7v-1.3h-4.7V546h4.9v-1.4h-6.6V555zm8.2-2.6c0 1.7.7 2.7 2.4 2.7 1.2 0 1.9-.5 2.4-1.3v1.2h1.5v-7.5h-1.5v4.3c0 1.3-.7 2.1-1.9 2.1-1 0-1.4-.6-1.4-1.8v-4.5h-1.5v4.8zm8.7 2.6h1.5v-10.4h-1.5V555zm3.9 0h1.5v-10.4h-1.5V555zm7.8-3.2c.1 2.3 1.5 3.3 4.1 3.3 2.3 0 3.6-1.1 3.6-3 0-4-5.8-2.2-5.8-4.7 0-.8.5-1.5 1.9-1.5 1.3 0 2.1.6 2.2 1.9h1.6c-.2-2.1-1.5-3.3-3.9-3.3-2.2 0-3.4 1.2-3.4 3.1 0 3.8 5.8 2 5.8 4.7 0 1-.8 1.5-2 1.5-1.3 0-2.3-.5-2.5-2h-1.6zm14.5.4c-.1 1.1-.7 1.7-1.8 1.7-1.3 0-2-.9-2-2.7 0-1.8.7-2.6 2-2.6 1 0 1.7.6 1.8 1.7h1.5c-.1-1.9-1.3-2.9-3.3-2.9-2.3 0-3.5 1.6-3.5 3.9s1.2 3.9 3.5 3.9c2 0 3.1-1 3.3-2.9h-1.5zm3.6 2.8h1.5v-4.1c0-1.3.8-2 1.9-2 .2 0 .5 0 .6.1v-1.6h-.4c-1 0-1.6.5-2.1 1.3v-1.2h-1.5v7.5zm10.2-2.6c-.1 1-.8 1.5-1.8 1.5-1.2 0-1.9-.8-1.9-2.4h5.3v-.2c0-2.4-.9-3.9-3.3-3.9-2.3 0-3.5 1.6-3.5 3.9s1.1 3.9 3.5 3.9c2 0 3.1-1.1 3.3-2.7h-1.6zm-3.7-1.9c.2-1.3.8-2 2-2s1.8.8 1.8 2h-3.8zm12.2 1.9c-.1 1-.8 1.5-1.9 1.5-1.2 0-1.9-.8-1.9-2.4h5.3v-.2c0-2.4-.9-3.9-3.3-3.9-2.3 0-3.5 1.6-3.5 3.9s1.1 3.9 3.5 3.9c2 0 3.1-1.1 3.3-2.7h-1.5zm-3.8-1.9c.1-1.3.8-2 2-2 1.1 0 1.8.8 1.8 2h-3.8zm7.4 4.5h1.5v-4.3c0-1.3.8-2.1 2-2.1 1.1 0 1.4.6 1.4 1.8v4.5h1.5V550c0-1.7-.7-2.7-2.4-2.7-1.3 0-1.9.5-2.4 1.3v-1.2h-1.5v7.6z"/><path class="st13" d="M1150 535h106v-2h-106v2zm109 3v24h2v-24h-2zm-3 27h-106v2h106v-2zm-109-3v-24h-2v24h2zm3 3c-1.7 0-3-1.3-3-3h-2c0 2.8 2.2 5 5 5v-2zm109-3c0 1.7-1.3 3-3 3v2c2.8 0 5-2.2 5-5h-2zm-3-27c1.7 0 3 1.3 3 3h2c0-2.8-2.2-5-5-5v2zm-106-2c-2.8 0-5 2.2-5 5h2c0-1.7 1.3-3 3-3v-2z"/><circle class="st14" cx="205" cy="1005.5" r="9"/><path class="st8" d="M223.2 1009.6c.2 2.8 1.9 4.1 4.9 4.1 2.8 0 4.5-1.4 4.5-3.8 0-5.1-7.5-2.6-7.5-6.2 0-1.2.7-2.3 2.7-2.3 1.9 0 2.9.9 3.1 2.7h1.6c-.2-2.6-1.9-4.1-4.7-4.1-2.7 0-4.3 1.5-4.3 3.8 0 4.9 7.5 2.4 7.5 6.2 0 1.5-1.1 2.2-2.9 2.2-1.8 0-3.2-.7-3.4-2.7h-1.5zm12.1 3.9h1.5v-11.1l4 7.5h1.2l4-7.5v11.1h1.5v-13.3h-2.1l-4.1 7.9-4.1-7.9h-2.1v13.3zm20.3-3.9c.2 2.8 1.9 4.1 5 4.1 2.8 0 4.5-1.4 4.5-3.8 0-5.1-7.5-2.6-7.5-6.2 0-1.2.7-2.3 2.7-2.3 1.9 0 2.9.9 3.1 2.7h1.6c-.2-2.6-1.9-4.1-4.7-4.1-2.7 0-4.3 1.5-4.3 3.8 0 4.9 7.5 2.4 7.5 6.2 0 1.5-1.1 2.2-2.9 2.2-1.8 0-3.2-.7-3.4-2.7h-1.6zm18.4.7c-.2 1.5-1.3 2.1-2.7 2.1-1.7 0-2.8-1.2-2.8-3.6h7.1v-.5c0-2.7-1.2-4.6-4.2-4.6-2.9 0-4.4 2.1-4.4 5 0 3 1.4 5 4.4 5 2.3 0 3.9-1.3 4.1-3.4H274zm-5.5-2.5c.2-1.9 1.3-2.9 2.9-2.9 1.6 0 2.6 1.1 2.6 2.9h-5.5zm15.4 1.8c0 1.8-1.3 2.9-3.2 2.9-1.1 0-1.9-.6-1.9-1.6 0-1.9 2.9-1.7 5.1-2.3v1zm0 3.9h1.4v-6.2c0-2.5-1.3-3.7-3.7-3.7-2.5 0-3.6 1.2-3.9 3.3h1.4c.2-1.5 1-2.1 2.4-2.1 1.5 0 2.3.9 2.3 2 0 .7-.2.8-1.7 1-2 .3-4.9.4-4.9 3.2 0 1.4 1 2.6 3 2.6 1.7 0 2.8-.6 3.5-1.6v1.5zm4.4 0h1.4v-5.5c0-1.8 1-2.9 2.6-2.9.2 0 .4 0 .6.1v-1.5h-.4c-1.4 0-2.2.6-2.8 1.7v-1.5h-1.4v9.6zm12.9-3.4c-.1 1.6-1.1 2.3-2.6 2.3-1.8 0-3-1.2-3-3.8s1.2-3.8 3-3.8c1.5 0 2.5.8 2.6 2.3h1.5c-.1-2.3-1.6-3.6-4-3.6-3 0-4.5 2-4.5 5s1.5 5 4.5 5c2.4 0 3.9-1.3 4-3.6h-1.5zm3.9 3.4h1.4v-5.6c0-1.8 1.1-2.9 2.8-2.9 1.5 0 2.1.9 2.1 2.6v5.9h1.4v-6.3c0-2.2-.8-3.5-3.1-3.5-1.6 0-2.5.7-3.1 1.7v-5.2h-1.4v13.3zm17.4-3.2c-.2 1.5-1.3 2.1-2.7 2.1-1.7 0-2.8-1.2-2.8-3.6h7.1v-.5c0-2.7-1.2-4.6-4.2-4.6-2.9 0-4.4 2.1-4.4 5 0 3 1.4 5 4.4 5 2.3 0 3.9-1.3 4.1-3.4h-1.5zm-5.5-2.5c.2-1.9 1.3-2.9 2.9-2.9 1.6 0 2.6 1.1 2.6 2.9H317zm9.1 2.6c.1 2.2 1.5 3.3 3.9 3.3 2.3 0 3.6-1.1 3.6-2.8 0-3.8-5.7-2-5.7-4.4 0-.8.5-1.5 1.9-1.5 1.3 0 2 .6 2.2 2h1.4c-.1-2.2-1.4-3.3-3.6-3.3s-3.4 1.2-3.4 2.8c0 3.8 5.7 1.9 5.7 4.5 0 1.1-.8 1.5-2 1.5-1.5 0-2.4-.5-2.6-2.1h-1.4zM200.4 1075.5h20.2v-3.5h-7.7v-32h-3.3l-11.3 7.1 1.8 3 8.8-5.2v27.2h-8.4v3.4zm24.9-10.9c.4 7.9 5.3 11.4 12.2 11.4 7.4 0 12.2-4.4 12.2-11.4 0-7.2-4.5-11.5-11.9-11.5-1.8 0-3.6.4-5.1 1.1l2.4-10.7h14.1v-3.5h-17.1l-4.2 19.2.5.1c2.4-1.6 5.9-2.8 8.8-2.8 5.6 0 8.4 3.4 8.4 8.1 0 4.9-3.1 8-8 8-3.8 0-7.7-1.9-8.3-7.9h-4zm29.4 10.8h22.5v-3.5h-17.4c8.9-9.3 16.9-14.4 16.9-22.3 0-6.2-3.8-10.1-10.9-10.1-6.8 0-11.1 4.5-11.5 11.1h4.1c.4-4.9 3.3-7.6 7.6-7.6 4.2 0 6.6 2.7 6.6 6.6 0 7.1-8.2 12.3-17.9 22.3v3.5z"/><path class="st15" d="M559 990h2v95h-2z"/><circle class="st15" cx="626" cy="1004" r="9"/><path class="st15" d="M644.1 1012h8.4v-1.3H646c3.3-3.5 6.3-5.4 6.3-8.4 0-2.3-1.4-3.8-4.1-3.8-2.6 0-4.2 1.7-4.3 4.2h1.5c.2-1.8 1.2-2.8 2.9-2.8 1.6 0 2.5 1 2.5 2.5 0 2.7-3.1 4.6-6.7 8.4v1.2zm14.4.2c2.5 0 4.6-1.9 4.6-6.8s-2.1-6.8-4.6-6.8c-2.5 0-4.6 1.9-4.6 6.8 0 4.8 2.1 6.8 4.6 6.8zm0-1.3c-1.6 0-3.1-1.3-3.1-5.5 0-4.3 1.5-5.5 3.1-5.5s3.1 1.3 3.1 5.5-1.5 5.5-3.1 5.5zm5.1 1.9h1.4l5.7-14.2h-1.4l-5.7 14.2zm8.2-.8h8.4v-1.3h-6.5c3.3-3.5 6.3-5.4 6.3-8.4 0-2.3-1.4-3.8-4.1-3.8-2.6 0-4.2 1.7-4.3 4.2h1.5c.2-1.8 1.2-2.8 2.9-2.8 1.6 0 2.5 1 2.5 2.5 0 2.7-3.1 4.6-6.7 8.4v1.2zm14.4.2c2.5 0 4.6-1.9 4.6-6.8s-2.1-6.8-4.6-6.8c-2.5 0-4.6 1.9-4.6 6.8-.1 4.8 2.1 6.8 4.6 6.8zm0-1.3c-1.6 0-3.1-1.3-3.1-5.5 0-4.3 1.5-5.5 3.1-5.5s3.1 1.3 3.1 5.5-1.5 5.5-3.1 5.5zm12 1.1h1.5v-11.1l4 7.5h1.2l4-7.5v11.1h1.5v-13.3h-2.1l-4.1 7.9-4.1-7.9H698v13.3zm21.2-3.9c0 1.8-1.3 2.9-3.2 2.9-1.1 0-1.9-.6-1.9-1.6 0-1.9 2.9-1.7 5.1-2.3v1zm0 3.9h1.4v-6.2c0-2.5-1.3-3.7-3.7-3.7-2.5 0-3.6 1.2-3.9 3.3h1.4c.2-1.5 1-2.1 2.4-2.1 1.5 0 2.3.9 2.3 2 0 .7-.2.8-1.7 1-2 .3-4.9.4-4.9 3.2 0 1.4 1 2.6 3 2.6 1.7 0 2.8-.6 3.5-1.6v1.5zm4.4-2.5c0 1.9 1 2.7 2.5 2.7.4 0 .8 0 1.2-.1v-1.3c-.4 0-.6.1-.9.1-.8 0-1.3-.4-1.3-1.5v-5.8h2.3v-1.2h-2.3v-2.5h-1.4v2.5h-1.4v1.2h1.4v5.9zm12.1-.9c-.1 1.6-1.1 2.3-2.6 2.3-1.8 0-3-1.2-3-3.8s1.2-3.8 3-3.8c1.5 0 2.5.8 2.6 2.3h1.5c-.1-2.3-1.6-3.6-4-3.6-3 0-4.5 2-4.5 5s1.5 5 4.5 5c2.4 0 3.9-1.3 4-3.6h-1.5zm4 3.4h1.4v-5.6c0-1.8 1.1-2.9 2.8-2.9 1.5 0 2.1.9 2.1 2.6v5.9h1.4v-6.3c0-2.2-.8-3.5-3.2-3.5-1.6 0-2.5.7-3.1 1.7v-5.2h-1.4v13.3zm17.4-3.2c-.2 1.5-1.3 2.1-2.7 2.1-1.7 0-2.8-1.2-2.8-3.6h7.1v-.5c0-2.7-1.2-4.6-4.2-4.6-2.9 0-4.4 2.1-4.4 5 0 3 1.4 5 4.4 5 2.3 0 3.9-1.3 4.1-3.4h-1.5zm-5.5-2.5c.2-1.9 1.3-2.9 2.9-2.9 1.6 0 2.6 1.1 2.6 2.9h-5.5zm9.1 2.6c.1 2.2 1.5 3.3 3.9 3.3 2.3 0 3.6-1.1 3.6-2.8 0-3.8-5.7-2-5.7-4.4 0-.8.5-1.5 1.9-1.5 1.3 0 2 .6 2.2 2h1.4c-.1-2.2-1.4-3.3-3.6-3.3s-3.4 1.2-3.4 2.8c0 3.8 5.7 1.9 5.7 4.5 0 1.1-.8 1.5-2 1.5-1.5 0-2.4-.5-2.6-2.1h-1.4zM643.1 1049.1c-.3-6.8-4.3-11.1-11.2-11.1-8.7 0-12.7 7-12.7 18.6 0 12.6 4.8 17.9 12.4 17.9 7.4 0 11.8-4.8 11.8-11.6 0-7.4-5.3-11-11.3-11-4.3 0-7.8 1.9-9.2 5.3.1-12.4 3.9-15.7 8.7-15.7 4.5 0 7 3 7.4 7.7h4.1zm-11.4 21.9c-4.6 0-7.7-3.6-7.7-8.2s3.2-7.5 7.6-7.5c4.7 0 7.7 3.3 7.7 7.7 0 4.6-3.1 8-7.6 8zm14.9-8c.3 6.5 3.7 11.5 12.3 11.5 7.8 0 12.1-4.1 12.1-10.3 0-4.6-2.4-7.9-6.3-9.4 2.6-1.6 4.6-4.2 4.6-7.9 0-5.3-4.1-8.9-10.5-8.9-6.9 0-10.9 4.1-11.3 11h4.1c.4-4.8 2.9-7.6 7.1-7.6 4.1 0 6.5 2.6 6.5 6.1 0 3.5-2.6 6.3-6.3 6.3H655v3.4h5c4 0 6.9 2.6 6.9 7 0 4.2-2.6 6.7-7.6 6.7-5.1 0-8.2-2.7-8.6-8.1h-4.1zM921 990h2v95h-2z"/><circle class="st15" cx="988" cy="1004" r="9"/><path class="st15" d="M1006.7 1012h1.6v-5.3h3.7c2.6 0 4.1-1.6 4.1-4s-1.6-4-3.9-4h-5.5v13.3zm1.6-6.6v-5.3h3.8c1.4 0 2.3 1.1 2.3 2.7s-.9 2.6-2.3 2.6h-3.8zm16.2 3.4c-.2 1.5-1.3 2.1-2.7 2.1-1.7 0-2.8-1.2-2.9-3.6h7.1v-.5c0-2.7-1.2-4.6-4.2-4.6-2.9 0-4.4 2.1-4.4 5 0 3 1.4 5 4.4 5 2.3 0 3.9-1.3 4.1-3.4h-1.4zm-5.5-2.5c.2-1.9 1.3-2.9 2.9-2.9 1.6 0 2.6 1.1 2.6 2.9h-5.5zm9.8 5.7h1.4v-5.5c0-1.8 1.1-2.9 2.7-2.9.2 0 .4 0 .6.1v-1.5h-.4c-1.4 0-2.2.6-2.8 1.7v-1.5h-1.4v9.6zm6.8.1h1.4v-8.5h2v-1.2h-2v-1.1c0-1 .4-1.4 1.2-1.4.3 0 .5 0 .8.1v-1.3c-.4-.1-.7-.1-1.1-.1-1.4 0-2.4.8-2.4 2.7v1.2h-1.3v1.2h1.3v8.4zm11.7-3.3c-.2 1.5-1.3 2.1-2.7 2.1-1.7 0-2.8-1.2-2.8-3.6h7.1v-.5c0-2.7-1.3-4.6-4.2-4.6-2.9 0-4.4 2.1-4.4 5 0 3 1.4 5 4.4 5 2.3 0 3.9-1.3 4.1-3.4h-1.5zm-5.5-2.5c.2-1.9 1.3-2.9 2.9-2.9 1.6 0 2.6 1.1 2.7 2.9h-5.6zm16.2 2.3c-.1 1.6-1.1 2.3-2.6 2.3-1.8 0-3-1.2-3-3.8s1.2-3.8 3-3.8c1.5 0 2.5.8 2.6 2.3h1.5c-.1-2.3-1.6-3.6-4.1-3.6-2.9 0-4.5 2-4.5 5s1.5 5 4.5 5c2.4 0 3.9-1.3 4.1-3.6h-1.5zm4.3.9c0 1.9 1 2.7 2.5 2.7.4 0 .8 0 1.2-.1v-1.3c-.4 0-.7.1-.9.1-.8 0-1.3-.4-1.3-1.5v-5.8h2.3v-1.2h-2.3v-2.5h-1.4v2.5h-1.4v1.2h1.4v5.9zm11 2.5h1.5v-11.1l4 7.5h1.2l4-7.5v11.1h1.6v-13.3h-2.1l-4.1 7.9-4.1-7.9h-2.1v13.3zm21.2-3.9c0 1.8-1.3 2.9-3.2 2.9-1.1 0-1.9-.6-1.9-1.6 0-1.9 2.9-1.7 5.1-2.3v1zm0 3.9h1.4v-6.2c0-2.5-1.3-3.7-3.7-3.7-2.5 0-3.6 1.2-3.8 3.3h1.4c.2-1.5 1-2.1 2.4-2.1 1.5 0 2.3.9 2.3 2 0 .7-.2.8-1.7 1-2 .3-4.9.4-4.9 3.2 0 1.4 1 2.6 3 2.6 1.7 0 2.8-.6 3.5-1.6v1.5zm4.4-2.5c0 1.9 1 2.7 2.5 2.7.4 0 .8 0 1.2-.1v-1.3c-.4 0-.7.1-.9.1-.9 0-1.4-.4-1.4-1.5v-5.8h2.3v-1.2h-2.3v-2.5h-1.4v2.5h-1.4v1.2h1.4v5.9zm12.2-.9c-.1 1.6-1.1 2.3-2.6 2.3-1.8 0-3-1.2-3-3.8s1.2-3.8 3-3.8c1.5 0 2.5.8 2.6 2.3h1.5c-.2-2.3-1.6-3.6-4.1-3.6-2.9 0-4.5 2-4.5 5s1.5 5 4.5 5c2.4 0 3.9-1.3 4.1-3.6h-1.5zm3.9 3.4h1.4v-5.6c0-1.8 1.1-2.9 2.8-2.9 1.5 0 2.1.9 2.1 2.6v5.9h1.4v-6.3c0-2.2-.9-3.5-3.2-3.5-1.6 0-2.5.7-3.2 1.7v-5.2h-1.4v13.3zm17.4-3.2c-.2 1.5-1.3 2.1-2.7 2.1-1.7 0-2.8-1.2-2.8-3.6h7.1v-.5c0-2.7-1.2-4.6-4.2-4.6-2.9 0-4.4 2.1-4.4 5 0 3 1.4 5 4.4 5 2.3 0 3.9-1.3 4.1-3.4h-1.5zm-5.5-2.5c.2-1.9 1.3-2.9 2.9-2.9 1.6 0 2.6 1.1 2.6 2.9h-5.5zm9.1 2.6c.1 2.2 1.5 3.3 3.9 3.3 2.3 0 3.6-1.1 3.6-2.8 0-3.8-5.8-2-5.8-4.4 0-.8.5-1.5 1.9-1.5 1.3 0 2 .6 2.2 2h1.4c-.1-2.2-1.4-3.3-3.6-3.3s-3.4 1.2-3.4 2.8c0 3.8 5.7 1.9 5.7 4.5 0 1.1-.8 1.5-2 1.5-1.5 0-2.5-.5-2.6-2.1h-1.3zM980.4 1063.1c.4 7.9 5.3 11.4 12.2 11.4 7.4 0 12.2-4.4 12.2-11.4 0-7.2-4.5-11.5-11.9-11.5-1.8 0-3.6.4-5.1 1.1l2.4-10.7h14.1v-3.5h-17.1l-4.2 19.2.5.1c2.4-1.6 5.9-2.8 8.8-2.8 5.6 0 8.4 3.4 8.4 8.1 0 4.9-3.1 8-8 8-3.8 0-7.7-1.9-8.3-7.9h-4z"/><path class="st16" d="M221 593.5h1023M221 657.5h1023M221 721.5h1023M221 785.5h1023M221 849.5h1023M221 913.5h1023"/><path class="st10" d="M197.5 598h6.7v-1.3h-4.7c2.4-2.5 4.7-4 4.7-6.2 0-1.7-1.1-3-3.3-3-2.1 0-3.4 1.3-3.5 3.4h1.6c.1-1.4.8-2.1 1.9-2.1 1.1 0 1.7.7 1.7 1.7 0 1.8-2 3.2-5.1 6.3v1.2zm7.7-3.2c.1 2.4 1.5 3.4 3.7 3.4s3.6-1.3 3.6-3.4c0-2.1-1.4-3.3-3.5-3.3-.5 0-1 .1-1.5.3l.6-2.8h4.1v-1.3H207l-1.2 5.7h.3c.7-.4 1.7-.7 2.5-.7 1.4 0 2.2.9 2.2 2.1 0 1.3-.8 2.1-2.1 2.1-1.1 0-2.1-.5-2.2-2.1h-1.3z"/><circle class="st14" cx="305" cy="657" r="6"/><circle class="st17" cx="305" cy="801" r="6"/><circle class="st14" cx="447" cy="780" r="6"/><circle class="st17" cx="447" cy="833" r="6"/><circle class="st14" cx="589" cy="812" r="6"/><circle class="st17" cx="589" cy="838" r="6"/><circle class="st14" cx="731" cy="698" r="6"/><circle class="st17" cx="731" cy="791" r="6"/><circle class="st14" cx="873" cy="866" r="6"/><circle class="st17" cx="873" cy="878" r="6"/><circle class="st14" cx="1015" cy="748" r="6"/><circle class="st17" cx="1015" cy="812" r="6"/><circle class="st14" cx="1157" cy="716" r="6"/><circle class="st17" cx="1157" cy="773" r="6"/><path d="M305 657l142 123 142 32 142-114 142 168.5L1015 748l142-32" fill="none" stroke="#3139da" stroke-width="2"/><path d="M305 801.5l142 32 142 5L731 791l142.5 87.5 141.5-66 142-39" fill="none" stroke="#8bbaf0" stroke-width="2"/><path class="st10" d="M286.5 938h5.9v-1.3h-2v-9.1h-1.2l-3.3 2.2.7 1.1 2.3-1.4v7.2h-2.3v1.3zm12.3 0h1.6v-8l2.7 5.5h1.3l2.7-5.5v8h1.6v-10.4h-2.1l-2.8 5.9-2.8-5.9h-2.1V938zm16.8 0h1.5v-4.6c0-2-1-3-3-3-2.1 0-2.9 1-3.1 2.6h1.4c.1-1 .7-1.4 1.7-1.4s1.5.5 1.5 1.3c0 .5-.2.6-1.3.8-1.5.3-3.7.3-3.7 2.5 0 1.1.8 2 2.4 2 1.2 0 2.1-.5 2.6-1.2v1zm0-3c0 1.2-.9 2-2.2 2-.8 0-1.3-.4-1.3-1.1 0-1.3 2-1.2 3.5-1.6v.7zm3.7 3h1.5v-4.1c0-1.3.8-2 1.9-2 .2 0 .5 0 .6.1v-1.6h-.4c-1 0-1.6.5-2.1 1.3v-1.2h-1.5v7.5zM427.6 934.8c.1 2.4 1.5 3.4 3.7 3.4s3.6-1.3 3.6-3.4c0-2.1-1.4-3.3-3.5-3.3-.5 0-1 .1-1.5.3l.6-2.8h4.1v-1.3h-5.2l-1.2 5.7h.3c.7-.4 1.7-.7 2.5-.7 1.4 0 2.2.9 2.2 2.1 0 1.3-.8 2.1-2.1 2.1-1.1 0-2.1-.5-2.2-2.1h-1.3zm13.2 3.2h1.6v-8l2.7 5.5h1.3l2.7-5.5v8h1.6v-10.4h-2.1l-2.8 5.9-2.8-5.9h-2.1V938zm16.8 0h1.5v-4.6c0-2-1-3-3-3-2.1 0-2.9 1-3.1 2.6h1.4c.1-1 .7-1.4 1.7-1.4s1.5.5 1.5 1.3c0 .5-.2.6-1.3.8-1.5.3-3.7.3-3.7 2.5 0 1.1.8 2 2.4 2 1.2 0 2.1-.5 2.6-1.2v1zm0-3c0 1.2-.9 2-2.2 2-.8 0-1.3-.4-1.3-1.1 0-1.3 2-1.2 3.5-1.6v.7zm3.7 3h1.5v-4.1c0-1.3.8-2 1.9-2 .2 0 .5 0 .6.1v-1.6h-.4c-1 0-1.6.5-2.1 1.3v-1.2h-1.5v7.5zM566.5 938h5.9v-1.3h-2v-9.1h-1.2l-3.3 2.2.7 1.1 2.3-1.4v7.2h-2.3v1.3zm10.9.1c2 0 3.7-1.5 3.7-5.3s-1.6-5.3-3.7-5.3c-2 0-3.7 1.5-3.7 5.3s1.6 5.3 3.7 5.3zm0-1.2c-1.1 0-2.1-.9-2.1-4s1-4 2.1-4 2.1.9 2.1 4-1 4-2.1 4zm9.5 1.1h1.6v-8l2.7 5.5h1.3l2.7-5.5v8h1.6v-10.4h-2.1l-2.8 5.9-2.8-5.9H587V938zm16.7 0h1.5v-4.6c0-2-1-3-3-3-2.1 0-2.9 1-3.1 2.6h1.4c.1-1 .7-1.4 1.7-1.4s1.5.5 1.5 1.3c0 .5-.2.6-1.3.8-1.5.3-3.7.3-3.7 2.5 0 1.1.8 2 2.4 2 1.2 0 2.1-.5 2.6-1.2v1zm0-3c0 1.2-.9 2-2.2 2-.8 0-1.3-.4-1.3-1.1 0-1.3 2-1.2 3.5-1.6v.7zm3.8 3h1.5v-4.1c0-1.3.8-2 1.9-2 .2 0 .5 0 .6.1v-1.6h-.4c-1 0-1.6.5-2.1 1.3v-1.2h-1.5v7.5zM708.5 938h5.9v-1.3h-2v-9.1h-1.2l-3.3 2.2.7 1.1 2.3-1.4v7.2h-2.3v1.3zm7.1-3.2c.1 2.4 1.5 3.4 3.7 3.4s3.6-1.3 3.6-3.4c0-2.1-1.4-3.3-3.5-3.3-.5 0-1 .1-1.5.3l.6-2.8h4.1v-1.3h-5.2l-1.2 5.7h.3c.7-.4 1.7-.7 2.5-.7 1.4 0 2.2.9 2.2 2.1 0 1.3-.8 2.1-2.1 2.1-1.1 0-2.1-.5-2.2-2.1h-1.3zm13.3 3.2h1.6v-8l2.7 5.5h1.3l2.7-5.5v8h1.6v-10.4h-2.1l-2.8 5.9-2.8-5.9H729V938zm16.7 0h1.5v-4.6c0-2-1-3-3-3-2.1 0-2.9 1-3.1 2.6h1.4c.1-1 .7-1.4 1.7-1.4s1.5.5 1.5 1.3c0 .5-.2.6-1.3.8-1.5.3-3.7.3-3.7 2.5 0 1.1.8 2 2.4 2 1.2 0 2.1-.5 2.6-1.2v1zm0-3c0 1.2-.9 2-2.2 2-.8 0-1.3-.4-1.3-1.1 0-1.3 2-1.2 3.5-1.6v.7zm3.8 3h1.5v-4.1c0-1.3.8-2 1.9-2 .2 0 .5 0 .6.1v-1.6h-.4c-1 0-1.6.5-2.1 1.3v-1.2h-1.5v7.5zM849.9 938h6.7v-1.3h-4.7c2.4-2.5 4.7-4 4.7-6.2 0-1.7-1-3-3.3-3-2.1 0-3.4 1.3-3.5 3.4h1.6c.1-1.4.8-2.1 1.9-2.1 1.1 0 1.7.7 1.7 1.7 0 1.8-2 3.2-5.1 6.3v1.2zm11.5.1c2 0 3.7-1.5 3.7-5.3s-1.6-5.3-3.7-5.3c-2 0-3.7 1.5-3.7 5.3s1.6 5.3 3.7 5.3zm0-1.2c-1.1 0-2.1-.9-2.1-4s1-4 2.1-4 2.1.9 2.1 4-1 4-2.1 4zm9.5 1.1h1.6v-8l2.7 5.5h1.3l2.7-5.5v8h1.6v-10.4h-2.1l-2.8 5.9-2.8-5.9H871V938zm16.7 0h1.5v-4.6c0-2-1-3-3-3-2.1 0-2.9 1-3.1 2.6h1.4c.1-1 .7-1.4 1.7-1.4s1.5.5 1.5 1.3c0 .5-.2.6-1.3.8-1.5.3-3.7.3-3.7 2.5 0 1.1.8 2 2.4 2 1.2 0 2.1-.5 2.6-1.2v1zm0-3c0 1.2-.9 2-2.2 2-.8 0-1.3-.4-1.3-1.1 0-1.3 2-1.2 3.5-1.6v.7zm3.8 3h1.5v-4.1c0-1.3.8-2 1.9-2 .2 0 .5 0 .6.1v-1.6h-.4c-1 0-1.6.5-2.1 1.3v-1.2h-1.5v7.5zM991.9 938h6.7v-1.3h-4.7c2.4-2.5 4.7-4 4.7-6.2 0-1.7-1-3-3.3-3-2.1 0-3.4 1.3-3.5 3.4h1.6c.1-1.4.8-2.1 1.9-2.1 1.1 0 1.7.7 1.7 1.7 0 1.8-2 3.2-5.1 6.3v1.2zm7.7-3.2c.1 2.4 1.5 3.4 3.7 3.4s3.6-1.3 3.6-3.4c0-2.1-1.4-3.3-3.5-3.3-.5 0-1 .1-1.5.3l.6-2.8h4.1v-1.3h-5.2l-1.2 5.7h.3c.7-.4 1.7-.7 2.5-.7 1.4 0 2.2.9 2.2 2.1 0 1.3-.8 2.1-2 2.1-1.1 0-2.1-.5-2.2-2.1h-1.4zm13.3 3.2h1.6v-8l2.7 5.5h1.3l2.8-5.5v8h1.6v-10.4h-2.1l-2.8 5.9-2.8-5.9h-2.1V938zm16.7 0h1.5v-4.6c0-2-1-3-3-3-2.1 0-2.9 1-3.1 2.6h1.4c.1-1 .7-1.4 1.6-1.4 1 0 1.5.5 1.5 1.3 0 .5-.2.6-1.3.8-1.5.3-3.7.3-3.7 2.5 0 1.1.8 2 2.4 2 1.3 0 2.1-.5 2.6-1.2v1zm0-3c0 1.2-.9 2-2.2 2-.8 0-1.3-.4-1.3-1.1 0-1.3 2-1.2 3.5-1.6v.7zm3.8 3h1.5v-4.1c0-1.3.8-2 1.9-2 .2 0 .5 0 .6.1v-1.6h-.4c-1 0-1.6.5-2.1 1.3v-1.2h-1.5v7.5zM1133.6 934.7c.1 2 1.1 3.4 3.7 3.4 2.4 0 3.7-1.2 3.7-3 0-1.3-.7-2.3-1.8-2.7.8-.5 1.3-1.2 1.3-2.3 0-1.5-1.1-2.6-3.1-2.6-2.1 0-3.4 1.2-3.5 3.3h1.6c.1-1.3.7-2 1.8-2s1.7.7 1.7 1.6c0 .9-.6 1.7-1.7 1.7h-1v1.2h1.4c1.1 0 1.8.7 1.8 1.8s-.7 1.8-2 1.8-2.2-.7-2.3-2.2h-1.6zm11.8 3.4c2 0 3.7-1.5 3.7-5.3s-1.6-5.3-3.7-5.3-3.7 1.5-3.7 5.3 1.6 5.3 3.7 5.3zm0-1.2c-1.1 0-2.1-.9-2.1-4s1-4 2.1-4 2.1.9 2.1 4-1 4-2.1 4zm9.5 1.1h1.6v-8l2.7 5.5h1.3l2.8-5.5v8h1.6v-10.4h-2.1l-2.8 5.9-2.8-5.9h-2.1V938zm16.7 0h1.5v-4.6c0-2-1-3-3-3-2.1 0-2.9 1-3.1 2.6h1.4c.1-1 .7-1.4 1.6-1.4 1 0 1.5.5 1.5 1.3 0 .5-.2.6-1.3.8-1.5.3-3.7.3-3.7 2.5 0 1.1.8 2 2.4 2 1.3 0 2.1-.5 2.6-1.2v1zm0-3c0 1.2-.9 2-2.2 2-.8 0-1.3-.4-1.3-1.1 0-1.3 2-1.2 3.5-1.6v.7zm3.8 3h1.5v-4.1c0-1.3.8-2 1.9-2 .2 0 .5 0 .6.1v-1.6h-.4c-1 0-1.6.5-2.1 1.3v-1.2h-1.5v7.5zM197.5 662h6.7v-1.3h-4.7c2.4-2.5 4.7-4 4.7-6.2 0-1.7-1.1-3-3.3-3-2.1 0-3.4 1.3-3.5 3.4h1.6c.1-1.4.8-2.1 1.9-2.1 1.1 0 1.7.7 1.7 1.7 0 1.8-2 3.2-5.1 6.3v1.2zm11.4.1c2 0 3.7-1.5 3.7-5.3s-1.6-5.3-3.7-5.3c-2 0-3.7 1.5-3.7 5.3.1 3.8 1.7 5.3 3.7 5.3zm0-1.2c-1.1 0-2.1-.9-2.1-4s1-4 2.1-4 2.1.9 2.1 4-1 4-2.1 4zM198 726h5.9v-1.3h-2v-9.1h-1.2l-3.3 2.2.7 1.1 2.3-1.4v7.2H198v1.3zm7.2-3.2c.1 2.4 1.5 3.4 3.7 3.4s3.6-1.3 3.6-3.4c0-2.1-1.4-3.3-3.5-3.3-.5 0-1 .1-1.5.3l.6-2.8h4.1v-1.3H207l-1.2 5.7h.3c.7-.4 1.7-.7 2.5-.7 1.4 0 2.2.9 2.2 2.1 0 1.3-.8 2.1-2.1 2.1-1.1 0-2.1-.5-2.2-2.1h-1.3zM198 790h5.9v-1.3h-2v-9.1h-1.2l-3.3 2.2.7 1.1 2.3-1.4v7.2H198v1.3zm10.9.1c2 0 3.7-1.5 3.7-5.3s-1.6-5.3-3.7-5.3c-2 0-3.7 1.5-3.7 5.3.1 3.8 1.7 5.3 3.7 5.3zm0-1.2c-1.1 0-2.1-.9-2.1-4s1-4 2.1-4 2.1.9 2.1 4-1 4-2.1 4zM205.2 850.8c.1 2.4 1.5 3.4 3.7 3.4s3.6-1.3 3.6-3.4c0-2.1-1.4-3.3-3.5-3.3-.5 0-1 .1-1.5.3l.6-2.8h4.1v-1.3H207l-1.2 5.7h.3c.7-.4 1.7-.7 2.5-.7 1.4 0 2.2.9 2.2 2.1 0 1.3-.8 2.1-2.1 2.1-1.1 0-2.1-.5-2.2-2.1h-1.3zM208.9 918.1c2 0 3.7-1.5 3.7-5.3s-1.6-5.3-3.7-5.3c-2 0-3.7 1.5-3.7 5.3.1 3.8 1.7 5.3 3.7 5.3zm0-1.2c-1.1 0-2.1-.9-2.1-4s1-4 2.1-4 2.1.9 2.1 4-1 4-2.1 4z"/><path class="st1" d="M159.4 463h1.6c2.4 0 4.5.3 7 .3 6.9 0 11.2-4.4 11.2-10.3 0-3.8-1.5-6.1-4.3-7.7-2.8-1.5-6.8-2.6-9.2-3.8-2.4-1.2-3.5-2.9-3.5-5.1 0-3.3 2.4-5.3 6-5.3 2.5 0 4.1.6 6.9 3.2l2.7 2.5h.6l-2-6.4h-2.1c-2.2 0-4-.3-6.1-.3-6.3 0-10.3 3.8-10.3 9 0 3.5 1.4 5.8 4 7.4 2.7 1.6 6.6 2.5 9.2 3.9 2.6 1.4 3.8 3 3.8 5.8 0 3.8-2.4 6.1-6.9 6.1-3.2 0-4.9-1.2-7.6-3.7l-2.6-2.5h-.6l2.2 6.9zm21.6-21v.5h3.1v14.7c0 4.6 2.8 6.2 5.9 6.2 3 0 5.1-1.6 6.1-3.6l-.3-.4c-.7.5-1.6.8-2.8.8-2.6 0-3.7-1.3-3.7-3.8v-14h6.3v-2h-6.3v-5.7h-.4L181 442zm33.7 16.8V446c0-3.9-2.2-5.9-6.2-5.9-2.4 0-4.8.7-6.9 2-2.1 1.2-3.7 3.1-4.1 5.3h5.1v-5c.7-.1 1.5-.3 2.4-.3 2.8 0 4.6 1.1 4.6 3.7v4c-2 .5-4.2 1.2-6.7 2.3-3.2 1.4-5.2 3.2-5.2 6 0 3.3 2.3 5.4 5.7 5.4 3.1 0 5.1-1.7 6.4-3.6.4 1.7 1.8 3.2 4.2 3.2h3.5v-4.2h-2.8zm-8.5 1.5c-2.2 0-3.6-1.6-3.6-4.2 0-2 .8-3 2.3-3.8 1.4-.7 2.9-1.2 4.6-1.7v8.5c-.8.7-1.7 1.2-3.3 1.2zm15.1-27.5v27.9l-1.4 2v.2h8.1v-.2l-1.4-2v-32.1l-6.9 1.1v.2l1.6 2.9zm11.6 0v27.9l-1.4 2v.2h8.1v-.2l-1.4-2v-32.1l-6.9 1.1v.2l1.6 2.9zm16.9-1.8h-5.4v4.9h5.4V431zm-6.8 32h8.1v-.2l-1.4-2v-20.2h-6.5v.2l1.3 2.8v17.2l-1.4 2v.2zm22.3.5c6.6 0 11.2-4.8 11.2-11.9 0-6.8-4.7-11.6-11.1-11.6-6.6 0-11.3 4.8-11.3 11.9.1 6.8 4.8 11.6 11.2 11.6zm.1-.9c-3.6 0-5.4-3.4-5.4-10.8 0-7.5 1.7-10.8 5.4-10.8 3.6 0 5.4 3.4 5.4 10.8s-1.7 10.8-5.4 10.8zm35.2-1.9v-13.9c0-4.1-2.4-6.8-6.4-6.8-3.6 0-6.2 2-7.8 3.9v-3.5h-6.5v.2l1.3 2.8v17.2l-1.4 2v.2h8.1v-.2l-1.4-2v-16.1c.8-.6 2.3-1.3 4.3-1.3 2.8 0 4.8 1.3 4.8 4.6v12.8l-1.4 2v.2h8v-.2l-1.6-1.9zm48.2-30.1v-.2h-7.7l-8.6 23.6-8.7-23.6h-8.4v.2l1.9 3v24.7l-2.2 4.5v.2h5.5v-.2l-2.2-4.5v-24.5h.5l10.8 29.2h.7l10.6-29.2h.5v26.8l-1.7 2.2v.2h9v-.2l-1.7-2.2v-27.7l1.7-2.3zm20.6 28.2V446c0-3.9-2.2-5.9-6.2-5.9-2.4 0-4.8.7-6.9 2-2.1 1.2-3.7 3.1-4.1 5.3h5.1v-5c.7-.1 1.5-.3 2.4-.3 2.8 0 4.6 1.1 4.6 3.7v4c-2 .5-4.2 1.2-6.7 2.3-3.2 1.4-5.2 3.2-5.2 6 0 3.3 2.3 5.4 5.7 5.4 3.1 0 5.1-1.7 6.4-3.6.4 1.7 1.8 3.2 4.2 3.2h3.5v-4.2h-2.8zm-8.4 1.5c-2.2 0-3.6-1.6-3.6-4.2 0-2 .8-3 2.3-3.8 1.4-.7 2.9-1.2 4.6-1.7v8.5c-.8.7-1.7 1.2-3.3 1.2zm12.2-18.3v.5h3.1v14.7c0 4.6 2.8 6.2 5.9 6.2 3 0 5.1-1.6 6.1-3.6l-.3-.4c-.7.5-1.6.8-2.8.8-2.6 0-3.7-1.3-3.7-3.8v-14h6.3v-2h-6.3v-5.7h-.4l-7.9 7.3zm25.8 21.5c4.3 0 7.1-2.5 8.2-5l-.3-.4c-1.1.7-2.7 1.3-5 1.3-5.8 0-9-3.8-9-9.5 0-4.2 1.6-5.2 4.4-5.2h9.2v-4.6H402c-3.3 0-6.4 2.3-8.7 4.7-2.4 2.4-3.9 5.4-3.9 8.9-.1 5.7 3.8 9.8 9.6 9.8zm31.3-2.8v-13.9c0-4.1-2.4-6.8-6.5-6.8-3.6 0-6.2 2-7.7 3.9v-15.3l-6.9 1.1v.2l1.7 2.8v27.9l-1.4 2v.2h8v-.2l-1.4-2v-16.1c.8-.6 2.3-1.3 4.2-1.3 2.8 0 4.8 1.3 4.8 4.6v12.8l-1.4 2v.2h8v-.2l-1.4-1.9zm41.6-.4l-11.4-29.9h-6.1l1.1 3-9.4 25.1-2.9 4.4v.2h5.5v-.2l-1.4-4.2 2.3-6.2H463l3.2 8.3-.6 2.2v.2h8.4v-.2l-2.1-2.7zm-21.7-10l5.9-15.6 6 15.6h-11.9zm34.1 13.2c4.3 0 7.1-2.5 8.2-5l-.3-.4c-1.1.7-2.7 1.3-5 1.3-5.8 0-9-3.8-9-9.5 0-4.2 1.6-5.2 4.4-5.2h9.2v-4.6h-4.5c-3.3 0-6.4 2.3-8.7 4.7-2.4 2.4-3.9 5.4-3.9 8.9-.1 5.7 3.8 9.8 9.6 9.8zm9.5-21.5v.5h3.1v14.7c0 4.6 2.8 6.2 5.9 6.2 3 0 5.1-1.6 6.1-3.6l-.3-.4c-.7.5-1.6.8-2.8.8-2.6 0-3.7-1.3-3.7-3.8v-14h6.3v-2H502v-5.7h-.4l-7.8 7.3zm23.8-11h-5.4v4.9h5.4V431zm-6.8 32h8.1v-.2l-1.4-2v-20.2H511v.2l1.3 2.8v17.2l-1.4 2v.2zm26.3-22.5v.2l1.3 3.7-5.2 16-5.9-17.6.5-2.1v-.2h-7.6v.2l1.8 2.5 6.7 19.7h4.8l6-18.4 2.4-3.8v-.2h-4.8zm13.3-9.5H545v4.9h5.4V431zm-6.8 32h8.1v-.2l-1.4-2v-20.2h-6.5v.2l1.3 2.8v17.2l-1.4 2v.2zm10.2-21v.5h3.1v14.7c0 4.6 2.8 6.2 5.9 6.2 3 0 5.1-1.6 6.1-3.6l-.3-.4c-.7.5-1.6.8-2.8.8-2.6 0-3.7-1.3-3.7-3.8v-14h6.3v-2H562v-5.7h-.4l-7.8 7.3zm32.4-1.5v.2l1.3 3.6-5.1 12.5-5.8-14.1.6-2v-.2h-7.8v.2l1.8 2.3 8.5 20.6-.1.2c-.7 1.8-1.5 3.5-2.5 4.8h-6.3v4.8h1.1c3.8 0 6.7-4.4 8.8-9.5l7.9-19.5 2.4-3.6v-.2h-4.8z"/><path class="st0" d="M812 252h440c4.4 0 8 3.6 8 8v46c0 4.4-3.6 8-8 8H812c-4.4 0-8-3.6-8-8v-46c0-4.4 3.6-8 8-8z"/><path class="st8" d="M821.2 281h1.1v-3.5h2.5c1.7 0 2.7-1.1 2.7-2.7s-1.1-2.7-2.6-2.7h-3.7v8.9zm1-4.4V273h2.6c.9 0 1.5.8 1.5 1.8s-.6 1.8-1.5 1.8h-2.6zm6.8 4.4h1v-3.7c0-1.2.7-1.9 1.8-1.9h.4v-1h-.3c-.9 0-1.5.4-1.9 1.1v-1h-1v6.5zm7.1.1c1.9 0 3.2-1.3 3.2-3.3s-1.3-3.3-3.2-3.3-3.2 1.3-3.2 3.3 1.3 3.3 3.2 3.3zm0-.8c-1.3 0-2.2-1-2.2-2.5s.9-2.5 2.2-2.5c1.3 0 2.2 1 2.2 2.5-.1 1.5-.9 2.5-2.2 2.5zm9.1-7c.4 0 .7-.3.7-.7s-.3-.7-.7-.7c-.4 0-.7.3-.7.7s.3.7.7.7zm-4.1 7.8h1v-5.7h1.3v-.8h-1.3v-.8c0-.7.3-1 .8-1 .2 0 .3 0 .6.1v-.8c-.2-.1-.5-.1-.7-.1-.9 0-1.6.5-1.6 1.8v.8h-.9v.8h.9v5.7zm3.6-.1h1v-6.4h-1v6.4zm3.3 0h1v-8.9h-1v8.9zm7.5-2.1c-.1 1-.9 1.4-1.8 1.4-1.1 0-1.9-.8-1.9-2.4h4.7v-.3c0-1.8-.8-3.1-2.8-3.1-1.9 0-2.9 1.4-2.9 3.3 0 2 .9 3.3 3 3.3 1.6 0 2.6-.9 2.7-2.2h-1zm-3.7-1.7c.2-1.3.9-1.9 1.9-1.9 1.1 0 1.7.8 1.8 1.9h-3.7zm11.3-1V273h2.3c1 0 1.6.6 1.6 1.5 0 1-.7 1.6-1.6 1.6h-2.3zm-1 4.8h1.1v-3.9h.8c1 0 1 0 1.9 1.2l2 2.7h1.3l-2.3-3c-.3-.4-.6-.8-.9-1 1.3-.2 2.3-1.1 2.3-2.5 0-1.5-1-2.4-2.7-2.4h-3.4v8.9zm12.2-2.6c0 1.2-.9 1.9-2.1 1.9-.8 0-1.3-.4-1.3-1 0-1.3 1.9-1.1 3.4-1.5v.6zm0 2.6h1v-4.1c0-1.7-.9-2.4-2.4-2.4-1.6 0-2.4.8-2.6 2.2h1c.1-1 .6-1.4 1.6-1.4s1.5.6 1.5 1.3c0 .5-.1.5-1.1.7-1.3.2-3.3.3-3.3 2.1 0 .9.7 1.7 2 1.7 1.1 0 1.9-.4 2.3-1.1v1zm3-1.7c0 1.2.7 1.8 1.7 1.8.3 0 .5 0 .8-.1v-.9c-.2 0-.4.1-.6.1-.6 0-.9-.3-.9-1v-3.9h1.5v-.8h-1.5v-1.7h-1v1.7h-.9v.8h.9v4zm4.4-6c.4 0 .7-.3.7-.7s-.3-.7-.7-.7c-.4 0-.7.3-.7.7s.4.7.7.7zm-.4 7.7h1v-6.4h-1v6.4zm3.2 0h1v-3.7c0-1.2.7-2 1.9-2 1 0 1.4.6 1.4 1.8v3.9h1v-4.2c0-1.5-.6-2.3-2.1-2.3-1.1 0-1.7.4-2.1 1.1v-1h-1v6.4zm9.4-2.6c-.9 0-1.5-.6-1.5-1.6s.6-1.6 1.5-1.6 1.5.6 1.5 1.6c.1 1-.6 1.6-1.5 1.6zm.9-3.8c-.3-.1-.6-.1-.9-.1-1.5 0-2.4.9-2.4 2.3 0 .7.3 1.3.7 1.7-.5.3-.9.7-.9 1.2s.3.7.7.9c-.6.3-.9.8-.9 1.4 0 .8.7 1.5 3 1.5 2.5 0 3.2-.9 3.2-1.8 0-2.4-5-1-5-2.2 0-.2.2-.4.5-.6.4.2.8.3 1.3.3 1.5 0 2.4-.9 2.4-2.3 0-.6-.2-1-.5-1.4h1.2v-.8h-2.4zm1.4 7.2c0 .6-.6 1-2.1 1-1.6 0-2.2-.4-2.2-1 0-.3.1-.6.7-1 1.5.2 3.6 0 3.6 1zm2.4-6.2c0 .4.3.7.7.7.4 0 .7-.3.7-.7 0-.4-.3-.7-.7-.7-.4 0-.7.3-.7.7zm0 4.7c0 .4.3.7.7.7.4 0 .7-.3.7-.7 0-.4-.3-.7-.7-.7-.4 0-.7.3-.7.7zm6.8.7h2v-8.9h-2v8.9zm3.9 0h1.9v-3.6c0-.8.5-1.4 1.3-1.4.7 0 1 .4 1 1.3v3.7h1.9v-4.2c0-1.5-.6-2.3-2.1-2.3-1.1 0-1.7.5-2.1 1.2v-1h-1.9v6.3zm7.9-2.4c0 1.8.8 2.6 2.5 2.6.4 0 .7 0 1-.1v-1.7c-.3 0-.4.1-.6.1-.7 0-1-.3-1-.9v-2.4h1.5v-1.5h-1.5V273h-1.9v1.7h-.9v1.5h.9v2.4zm8.4 0c0 .6-.4 1-1.1 1-.8 0-1.1-.5-1.2-1.5h4.2v-.3c0-2.1-.8-3.4-2.9-3.4-2.1 0-3.2 1.3-3.2 3.3 0 2 .9 3.3 3.1 3.3 1.9 0 2.9-1.1 3-2.5h-1.9zm-2.2-1.5c.1-.8.4-1.3 1.2-1.3.8 0 1.1.6 1.1 1.3h-2.3zm5.5 3.9h1.9v-3.2c0-.9.6-1.4 1.4-1.4.3 0 .6.1.8.1v-2c-.2-.1-.4-.1-.6-.1-.7 0-1.2.4-1.6 1.2v-1h-1.9v6.4zm5.1 0h1.9v-3.6c0-.9.4-1.4 1.1-1.4.6 0 .8.4.8 1.3v3.7h1.9v-3.6c0-.9.4-1.4 1-1.4.5 0 .8.3.8 1.3v3.7h1.9v-4.2c0-1.6-.7-2.3-2-2.3-.9 0-1.5.5-1.9 1.2-.3-.8-.8-1.2-1.8-1.2-.9 0-1.4.5-1.8 1.2v-1H934v6.3zm15.1-2.4c0 .6-.4 1-1.1 1-.8 0-1.1-.5-1.2-1.5h4.2v-.3c0-2.1-.8-3.4-2.9-3.4-2.1 0-3.2 1.3-3.2 3.3 0 2 .9 3.3 3.1 3.3 1.9 0 2.9-1.1 3-2.5h-1.9zm-2.3-1.5c.1-.8.4-1.3 1.2-1.3.8 0 1.1.6 1.1 1.3h-2.3zm9.8 3.9h1.9v-8.9h-1.9v3.5c-.4-.7-1-1.2-2-1.2-1.8 0-2.6 1.6-2.6 3.3 0 1.8.8 3.3 2.6 3.3 1 0 1.6-.5 2-1.1v1.1zm-1.3-1.2c-.9 0-1.4-.8-1.4-2s.5-2 1.4-2c.9 0 1.4.8 1.4 2s-.5 2-1.4 2zm5.9-6c.7 0 1.1-.4 1.1-1.1 0-.7-.4-1.1-1.1-1.1-.7 0-1.1.4-1.1 1.1 0 .6.4 1.1 1.1 1.1zm-1 7.2h1.9v-6.4h-1.9v6.4zm7.4 0h1.9v-3.7c0-1.8-.8-2.8-2.9-2.8-2 0-2.7.9-2.9 2.3h1.8c0-.6.5-.9 1.1-.9s1 .3 1 .7c0 .4-.1.5-1 .7-1.3.2-3.1.3-3.1 2.1 0 1 .6 1.7 2 1.7 1 0 1.7-.4 2.1-.9v.8zm0-2.5c0 .8-.6 1.3-1.4 1.3-.5 0-.9-.3-.9-.7 0-.8 1.3-.8 2.3-1v.4zm3.6.1c0 1.8.8 2.6 2.5 2.6.4 0 .7 0 1-.1v-1.7c-.3 0-.4.1-.6.1-.7 0-1-.3-1-.9v-2.4h1.5v-1.5h-1.5V273h-1.9v1.7h-.9v1.5h.9v2.4zm8.4 0c0 .6-.4 1-1.1 1-.8 0-1.1-.5-1.2-1.5h4.2v-.3c0-2.1-.8-3.4-2.9-3.4s-3.2 1.3-3.2 3.3c0 2 .9 3.3 3.1 3.3 1.9 0 2.9-1.1 3-2.5h-1.9zm-2.3-1.5c.1-.8.4-1.3 1.2-1.3.8 0 1.1.6 1.1 1.3h-2.3z"/><path d="M823 292h418c1.7 0 3 1.3 3 3s-1.3 3-3 3H823c-1.7 0-3-1.3-3-3s1.3-3 3-3z" fill="#e2e7e1"/><path class="st1" d="M820 295c0-1.7 1.3-3 3-3h219.1v6H823c-1.7 0-3-1.3-3-3z"/><defs><path id="SVGID_1_" d="M1228 79.6h16v4.7h-16z"/></defs><clipPath id="SVGID_2_"><use xlink:href="#SVGID_1_" overflow="visible"/></clipPath><g clip-path="url(#SVGID_2_)"><path class="st12" d="M1236.7 82.7h-.7v-.8h-.7m6.7 0c0 .2-.2.5-.5.7-.3.2-.7.4-1.3.6-.6.2-1.2.3-1.9.4-.7.1-1.5.1-2.3.1s-1.6 0-2.3-.1c-.7-.1-1.4-.2-1.9-.4-.6-.2-1-.4-1.3-.6-.3-.2-.5-.4-.5-.7 0-.5.6-.9 1.8-1.3 1.1-.3 2.7-.5 4.2-.5s3.1.2 4.2.5c1.2.4 1.8.9 1.8 1.3z"/></g><path class="st0" d="M936 428.5h160c1.9 0 3.5 1.6 3.5 3.5v32c0 1.9-1.6 3.5-3.5 3.5H936c-1.9 0-3.5-1.6-3.5-3.5v-32c0-1.9 1.6-3.5 3.5-3.5z"/><path class="st8" d="M949.3 454h6.3v-1.1h-5v-9.3h-1.2V454zm12.5-3c0 1.4-1 2.2-2.5 2.2-.9 0-1.5-.5-1.5-1.2 0-1.5 2.2-1.3 4-1.8v.8zm0 3h1.1v-4.8c0-1.9-1-2.8-2.9-2.8s-2.8.9-3 2.6h1.1c.2-1.2.7-1.6 1.8-1.6 1.2 0 1.8.7 1.8 1.6 0 .5-.2.6-1.3.8-1.6.3-3.8.3-3.8 2.5 0 1.1.8 2 2.4 2 1.3 0 2.2-.5 2.7-1.3v1zm3-2.4c.1 1.7 1.2 2.6 3.1 2.6 1.8 0 2.8-.8 2.8-2.2 0-2.9-4.5-1.6-4.5-3.4 0-.6.4-1.2 1.5-1.2 1 0 1.6.5 1.7 1.6h1.1c-.1-1.7-1.1-2.5-2.8-2.5-1.7 0-2.6 1-2.6 2.2 0 3 4.5 1.5 4.5 3.5 0 .8-.6 1.2-1.6 1.2-1.1 0-1.9-.4-2-1.6h-1.2zm8 .5c0 1.5.8 2.1 2 2.1.3 0 .6 0 .9-.1v-1c-.3 0-.5.1-.7.1-.7 0-1.1-.3-1.1-1.1v-4.5h1.8v-1h-1.8v-1.9h-1.1v1.9h-1.1v1h1.1v4.5zm7.7-.7h4.7v2.6h1.2v-2.6h1.7v-1h-1.7v-6.7H985l-4.5 6.6v1.1zm1.1-1.1l3.6-5.3v5.3h-3.6zm13.5 3.7h1.1l1.9-5.9 1.9 5.9h1.1l2.3-7.5h-1.2l-1.7 6-1.9-6h-1.1l-1.9 6-1.7-6h-1.2l2.4 7.5zm14.7-2.5c-.2 1.1-1 1.7-2.1 1.7-1.3 0-2.2-.9-2.2-2.8h5.5v-.4c0-2.1-1-3.6-3.2-3.6s-3.4 1.6-3.4 3.9 1.1 3.9 3.4 3.9c1.8 0 3-1 3.2-2.6h-1.2zm-4.3-2c.2-1.5 1-2.2 2.3-2.2 1.3 0 2 .9 2.1 2.2h-4.4zm12.8 2c-.2 1.1-1 1.7-2.1 1.7-1.3 0-2.2-.9-2.2-2.8h5.5v-.4c0-2.1-1-3.6-3.2-3.6-2.3 0-3.4 1.6-3.4 3.9s1.1 3.9 3.5 3.9c1.8 0 3-1 3.2-2.6h-1.3zm-4.3-2c.2-1.5 1-2.2 2.3-2.2 1.3 0 2 .9 2.1 2.2h-4.4zm7.3 4.5h1.1v-4.1l3.8 4.1h1.5l-3.9-4.1 3.5-3.4h-1.5l-3.4 3.4v-6.3h-1.1V454zm7-2.4c.1 1.7 1.2 2.6 3.1 2.6 1.8 0 2.8-.8 2.8-2.2 0-2.9-4.5-1.6-4.5-3.4 0-.6.4-1.2 1.5-1.2 1 0 1.6.5 1.7 1.6h1.1c-.1-1.7-1.1-2.5-2.8-2.5-1.7 0-2.7 1-2.7 2.2 0 3 4.5 1.5 4.5 3.5 0 .8-.6 1.2-1.6 1.2-1.1 0-1.9-.4-2-1.6h-1.1z"/><path class="st11" d="M1079.8 445.5l-5.8 5.8-5.8-5.8"/><path class="st16" d="M936 428.5h160c1.9 0 3.5 1.6 3.5 3.5v32c0 1.9-1.6 3.5-3.5 3.5H936c-1.9 0-3.5-1.6-3.5-3.5v-32c0-1.9 1.6-3.5 3.5-3.5z"/><path class="st0" d="M1112 428.5h168c1.9 0 3.5 1.6 3.5 3.5v32c0 1.9-1.6 3.5-3.5 3.5h-168c-1.9 0-3.5-1.6-3.5-3.5v-32c0-1.9 1.6-3.5 3.5-3.5z"/><path class="st8" d="M1125.3 454h5.9v-1h-2.3v-9.3h-1l-3.3 2.1.5.9 2.6-1.5v7.9h-2.5v.9zm7.1-2.6h4.7v2.6h1.2v-2.6h1.7v-1h-1.7v-6.7h-1.4l-4.5 6.6v1.1zm1.1-1.1l3.6-5.3v5.3h-3.6zm12.3 3.7h1.2v-8.6l3.1 5.9h.9l3.1-5.9v8.6h1.2v-10.4h-1.6l-3.2 6.2-3.2-6.2h-1.6V454zm16.6-3c0 1.4-1 2.2-2.5 2.2-.9 0-1.5-.5-1.5-1.2 0-1.5 2.2-1.3 4-1.8v.8zm0 3h1.1v-4.8c0-1.9-1-2.8-2.8-2.8-1.9 0-2.8.9-3 2.6h1.1c.2-1.2.7-1.6 1.8-1.6 1.2 0 1.8.7 1.8 1.6 0 .5-.2.6-1.3.8-1.6.3-3.8.3-3.8 2.5 0 1.1.8 2 2.4 2 1.3 0 2.2-.5 2.7-1.3v1zm4.4 2.7h1.2l3.8-10.2h-1.2l-2.2 6.1-2.3-6.1h-1.2l3 7.5-1.1 2.7zm10.3-6.6h3.7V449h-3.7v1.1zm10.2 3.9h5.9v-1h-2.3v-9.3h-1l-3.3 2.1.5.9 2.6-1.5v7.9h-2.5v.9zm10.8-4.9c-1.4 0-2.2-1-2.2-2.3 0-1.3.9-2.3 2.2-2.3 1.3 0 2.3 1.1 2.3 2.4-.1 1.3-1 2.2-2.3 2.2zm-3.4 1.8c.1 2 1.3 3.2 3.3 3.2 2.5 0 3.7-2 3.7-5.4 0-3.7-1.4-5.2-3.6-5.2s-3.4 1.4-3.4 3.4c0 2.2 1.5 3.2 3.3 3.2 1.3 0 2.3-.5 2.7-1.5 0 3.6-1.1 4.6-2.5 4.6-1.3 0-2-.9-2.2-2.2h-1.3zm13.1 3.1h1.2v-8.6l3.1 5.9h.9l3.1-5.9v8.6h1.2v-10.4h-1.6l-3.2 6.2-3.2-6.2h-1.6V454zm16.6-3c0 1.4-1 2.2-2.5 2.2-.9 0-1.5-.5-1.5-1.2 0-1.5 2.2-1.3 4-1.8v.8zm0 3h1.1v-4.8c0-1.9-1-2.8-2.9-2.8s-2.8.9-3 2.6h1.1c.2-1.2.7-1.6 1.9-1.6s1.8.7 1.8 1.6c0 .5-.2.6-1.3.8-1.6.3-3.8.3-3.8 2.5 0 1.1.8 2 2.4 2 1.3 0 2.2-.5 2.7-1.3v1zm4.4 2.7h1.2l3.8-10.2h-1.2l-2.2 6.1-2.3-6.1h-1.2l3 7.5-1.1 2.7z"/><path class="st11" d="M1254.7 443.8v-3.3m6.6 3.3v-3.3m-7.5 6.7h8.3m-9.9 8.3h11.7c.9 0 1.7-.7 1.7-1.7v-10c0-.9-.8-1.7-1.7-1.7h-11.7c-.9 0-1.7.7-1.7 1.7v10c0 1 .8 1.7 1.7 1.7z"/><path class="st16" d="M1112 428.5h168c1.9 0 3.5 1.6 3.5 3.5v32c0 1.9-1.6 3.5-3.5 3.5h-168c-1.9 0-3.5-1.6-3.5-3.5v-32c0-1.9 1.6-3.5 3.5-3.5z"/><circle class="st17" cx="303" cy="1067" r="9"/><path class="st8" d="M320.6 1074h7.6v-1.3h-2.9v-12h-1.2l-4.2 2.6.7 1.1 3.3-2v10.2h-3.2v1.4zm9.3-4.1c.1 2.4 1.4 4.3 4.6 4.3 2.9 0 4.5-1.5 4.5-3.9 0-1.7-.9-3-2.4-3.5 1-.6 1.7-1.6 1.7-3 0-2-1.5-3.3-3.9-3.3-2.6 0-4.1 1.6-4.2 4.1h1.5c.2-1.8 1.1-2.8 2.7-2.8 1.5 0 2.4 1 2.4 2.3 0 1.3-1 2.4-2.4 2.4H333v1.3h1.9c1.5 0 2.6 1 2.6 2.6s-1 2.5-2.8 2.5c-1.9 0-3.1-1-3.2-3h-1.6zm10.8 4.1h8.4v-1.3h-6.5c3.3-3.5 6.3-5.4 6.3-8.4 0-2.3-1.4-3.8-4.1-3.8-2.6 0-4.2 1.7-4.3 4.2h1.5c.2-1.8 1.2-2.8 2.9-2.8 1.6 0 2.5 1 2.5 2.5 0 2.7-3.1 4.6-6.7 8.3v1.3zm19.7 2.2c-1.9-2.5-2.5-5.1-2.5-7.7 0-2.7.7-5.3 2.5-7.7h-1.3c-1.5 1.8-2.8 4.3-2.8 7.7 0 3.4 1.2 6 2.8 7.7h1.3zm1.6-2.2h8v-1.4h-6.4v-11.9H362v13.3zm15.8-3.9c0 1.8-1.3 2.9-3.2 2.9-1.1 0-1.9-.6-1.9-1.6 0-1.9 2.9-1.7 5.1-2.3v1zm0 3.9h1.4v-6.2c0-2.5-1.3-3.7-3.7-3.7-2.5 0-3.6 1.2-3.9 3.3h1.4c.2-1.5 1-2.1 2.4-2.1 1.5 0 2.3.8 2.3 2 0 .7-.2.8-1.7 1-2 .3-4.9.4-4.9 3.2 0 1.4 1 2.6 3 2.6 1.7 0 2.8-.6 3.5-1.6v1.5zm3.7-3.1c.1 2.2 1.5 3.3 3.9 3.3 2.3 0 3.6-1.1 3.6-2.8 0-3.8-5.7-2-5.7-4.4 0-.8.5-1.5 1.9-1.5 1.3 0 2 .6 2.2 2h1.4c-.1-2.2-1.4-3.3-3.6-3.3s-3.4 1.2-3.4 2.8c0 3.8 5.7 1.9 5.7 4.5 0 1.1-.8 1.5-2 1.5-1.5 0-2.4-.5-2.6-2.1h-1.4zm10.1.6c0 1.9 1 2.7 2.5 2.7.4 0 .8-.1 1.2-.1v-1.3c-.4.1-.6.1-.9.1-.8 0-1.4-.4-1.4-1.5v-5.8h2.3v-1.2H393v-2.5h-1.4v2.5h-1.4v1.2h1.4v5.9zm14.7 2.5h1.6v-5.5l5.4-7.8h-1.9l-4.3 6.3-4.2-6.3H401l5.3 7.8v5.5zm13.3-3.2c-.2 1.5-1.3 2.1-2.7 2.1-1.7 0-2.8-1.2-2.8-3.6h7.1v-.5c0-2.7-1.2-4.6-4.2-4.6-2.9 0-4.4 2.1-4.4 5 0 3 1.4 5 4.4 5 2.3 0 3.9-1.3 4.1-3.4h-1.5zm-5.5-2.5c.2-1.9 1.3-2.8 2.9-2.8 1.6 0 2.6 1.1 2.6 2.8h-5.5zm15.4 1.8c0 1.8-1.3 2.9-3.2 2.9-1.1 0-1.9-.6-1.9-1.6 0-1.9 2.9-1.7 5.1-2.3v1zm0 3.9h1.4v-6.2c0-2.5-1.3-3.7-3.7-3.7-2.5 0-3.6 1.2-3.9 3.3h1.4c.2-1.5 1-2.1 2.4-2.1 1.5 0 2.3.8 2.3 2 0 .7-.2.8-1.7 1-2 .3-4.9.4-4.9 3.2 0 1.4 1 2.6 3 2.6 1.7 0 2.8-.6 3.5-1.6v1.5zm4.4 0h1.4v-5.5c0-1.8 1-2.9 2.6-2.9.2 0 .4 0 .6.1v-1.5h-.4c-1.4 0-2.2.6-2.8 1.7v-1.5h-1.4v9.6zm6.2 2.2c1.5-1.8 2.8-4.3 2.8-7.7 0-3.4-1.2-6-2.8-7.7h-1.2c1.8 2.5 2.5 5.1 2.5 7.7 0 2.7-.7 5.3-2.5 7.7h1.2z"/></svg>