<svg width="21" height="21" viewBox="0 0 21 21" fill="none" xmlns="http://www.w3.org/2000/svg">
<g clip-path="url(#clip0_401_60948)">
<path fill-rule="evenodd" clip-rule="evenodd" d="M8.45653 1.52016C8.94303 0.023062 11.061 0.0230712 11.5475 1.52016L12.974 5.90997L17.5898 5.91015C19.164 5.91021 19.8185 7.92453 18.545 8.84984L14.8108 11.5631L16.237 15.953C16.7234 17.4501 15.0099 18.695 13.7364 17.7698L10.002 15.0569L6.26767 17.7698C4.99411 18.695 3.28064 17.4501 3.76702 15.953L5.19321 11.5631L1.45906 8.84984C0.185579 7.92452 0.840079 5.91021 2.41423 5.91015L7.03001 5.90997L8.45653 1.52016ZM10.002 3.23563L8.84791 6.78715C8.63035 7.45665 8.00645 7.90994 7.30249 7.90996L3.56816 7.9101L6.58921 10.1052C7.15872 10.519 7.39702 11.2524 7.17951 11.922L6.02568 15.4736L9.0469 13.2787C9.61643 12.8649 10.3876 12.8649 10.9571 13.2787L13.9784 15.4736L12.8245 11.922C12.607 11.2524 12.8453 10.519 13.4148 10.1052L16.4359 7.9101L12.7015 7.90996C11.9976 7.90994 11.3737 7.45665 11.1561 6.78715L10.002 3.23563Z" fill="#626E60"/>
</g>
<defs>
<clipPath id="clip0_401_60948">
<rect width="20.0013" height="20.0013" fill="white" transform="translate(0.000976562)"/>
</clipPath>
</defs>
</svg>
