<?xml version="1.0" encoding="utf-8"?>
<!-- Generator: Adobe Illustrator 26.5.0, SVG Export Plug-In . SVG Version: 6.00 Build 0)  -->
<svg version="1.1" id="Layer_1" xmlns="http://www.w3.org/2000/svg" xmlns:xlink="http://www.w3.org/1999/xlink" x="0px" y="0px"
	 viewBox="0 0 18 16.5" style="enable-background:new 0 0 18 16.5;" xml:space="preserve">
<style type="text/css">
	.st0{fill:none;stroke:#007142;stroke-width:2;}
	.st1{fill:#007142;}
</style>
<path class="st0" d="M8.1,1.9C8.4,1,9.7,1,10,1.9L11,5.2c0.1,0.4,0.5,0.7,1,0.7l3.5,0c1,0,1.4,1.2,0.6,1.8l-2.8,2
	c-0.4,0.3-0.5,0.7-0.4,1.1l1.1,3.3c0.3,0.9-0.8,1.7-1.5,1.1l-2.8-2c-0.4-0.3-0.8-0.3-1.2,0l-2.8,2c-0.8,0.6-1.8-0.2-1.5-1.1l1.1-3.3
	c0.1-0.4,0-0.9-0.4-1.1L2,7.7C1.2,7.2,1.6,5.9,2.6,5.9l3.5,0c0.4,0,0.8-0.3,1-0.7L8.1,1.9z"/>
<path class="st1" d="M7.1,5.7l1-2.7L9,1.9l0.9,1.6l0.5,1.7L11,6.1l1.8,0.4L15,6.6l0.8,0.1c0,0-0.7,0.7-0.7,0.9
	C15,7.7,13.7,8.9,13.5,9s-0.9,1.1-0.9,1.1l-0.3,1l0.6,2.2l0.5,1.8L11,13.9l-2.4-0.4l-1.7,0.6L5,15c0,0-0.5-0.9-0.4-1.1
	c0.1-0.2,0.6-2.1,0.6-2.1v-1.7L3.7,8.4L2.2,7l0.1-0.6l2-0.2l2.2-0.1L7.1,5.7z"/>
</svg>
