<svg width="1440" height="88" viewBox="0 0 1440 88" fill="none" xmlns="http://www.w3.org/2000/svg">
<path d="M0 58.6548L0 87.988L120.005 87.988V58.6548L0 58.6548Z" fill="#C5CFC4"/>
<path d="M239.998 58.6547V87.988L360.003 87.988V58.6547L239.998 58.6547Z" fill="#C5CFC4"/>
<path d="M120.005 29.3335V58.6667L240.01 58.6667V29.3335L120.005 29.3335Z" fill="#C5CFC4"/>
<path d="M0.012207 -3.43323e-05L0.012207 29.3333L120.017 29.3333V-3.43323e-05L0.012207 -3.43323e-05Z" fill="#C5CFC4"/>
<path d="M359.991 29.3213V58.6545L479.996 58.6545V29.3213L359.991 29.3213Z" fill="#C5CFC4"/>
<path d="M479.996 58.6547V87.988L600.001 87.988V58.6547L479.996 58.6547Z" fill="#C5CFC4"/>
<path d="M720.006 58.6667V88L840.011 88V58.6667L720.006 58.6667Z" fill="#C5CFC4"/>
<path d="M839.999 29.3334V58.6667L960.004 58.6667V29.3334L839.999 29.3334Z" fill="#C5CFC4"/>
<path d="M1200.01 -7.05719e-05V29.3333L1320.02 29.3333V-7.05719e-05L1200.01 -7.05719e-05Z" fill="#C5CFC4"/>
<path d="M1080 29.3334V58.6667L1200 58.6667V29.3334L1080 29.3334Z" fill="#C5CFC4"/>
<path d="M1319.99 29.3332V58.6665L1440 58.6665V29.3332L1319.99 29.3332Z" fill="#C5CFC4"/>
<path d="M1200 58.6547V87.988L1320.01 87.988V58.6547L1200 58.6547Z" fill="#C5CFC4"/>
</svg>
