<svg width="343" height="50" viewBox="0 0 343 50" fill="none" xmlns="http://www.w3.org/2000/svg">
<path d="M274.4 33.3329L274.4 49.9995L335 49.9997C339.418 49.9997 343 46.418 343 41.9997L343 33.3331L274.4 33.3329Z" fill="#2EFFB4"/>
<path d="M137.2 33.3329L137.2 49.9995L205.8 49.9997L205.8 33.3331L137.2 33.3329Z" fill="#2EFFB4"/>
<path d="M205.8 16.6659L205.8 33.3325L274.4 33.3327L274.4 16.6661L205.8 16.6659Z" fill="#2EFFB4"/>
<path d="M274.4 -9.53674e-05L274.4 16.6665L343 16.6667L343 8.25625e-05L274.4 -9.53674e-05Z" fill="#2EFFB4"/>
<path d="M68.6001 16.6669L68.6001 33.3335L137.2 33.3333L137.2 16.6667L68.6001 16.6669Z" fill="#2EFFB4"/>
<path d="M1.69742e-05 33.3334L3.98858e-05 42C5.15663e-05 46.4183 3.58179 50 8.00006 50L68.6 49.9998L68.6 33.3332L1.69742e-05 33.3334Z" fill="#2EFFB4"/>
</svg>
