<svg width="32" height="33" viewBox="0 0 32 33" fill="none" xmlns="http://www.w3.org/2000/svg">
<path d="M32 16.0013C32 24.8379 24.8366 32.0013 16 32.0013C7.16344 32.0013 0 24.8379 0 16.0013C0 7.16479 7.16344 0.00134277 16 0.00134277C24.8366 0.00134277 32 7.16479 32 16.0013Z" fill="#2EFFB4"/>
<path d="M25.375 10.2787C24.6717 10.5843 23.9275 10.7856 23.166 10.8763C23.9663 10.4077 24.5681 9.66329 24.8586 8.7826C24.102 9.22502 23.2756 9.53544 22.4148 9.70057C22.0524 9.3207 21.6165 9.0185 21.1336 8.81234C20.6507 8.60619 20.1309 8.50038 19.6059 8.50135C17.4801 8.50135 15.7598 10.1967 15.7598 12.2865C15.7583 12.5772 15.7916 12.867 15.859 13.1498C14.3346 13.0783 12.842 12.6895 11.4766 12.0081C10.1111 11.3267 8.90292 10.3678 7.9293 9.19276C7.58772 9.76858 7.40708 10.4256 7.40625 11.0951C7.40625 12.4076 8.09102 13.5678 9.125 14.2474C8.51239 14.2329 7.91234 14.0708 7.37578 13.7748V13.8217C7.37578 15.6576 8.70391 17.1849 10.4617 17.5326C10.1312 17.6207 9.79053 17.6654 9.44844 17.6654C9.20569 17.6658 8.9635 17.6423 8.72539 17.5951C9.21406 19.099 10.6363 20.1928 12.3211 20.224C10.9521 21.2791 9.27134 21.8493 7.54297 21.8451C7.23618 21.8446 6.92967 21.8264 6.625 21.7904C8.38327 22.9132 10.4271 23.507 12.5133 23.5013C19.5977 23.5013 23.468 17.7318 23.468 12.7279C23.468 12.5638 23.4637 12.3998 23.4559 12.2396C24.2071 11.7053 24.857 11.0412 25.375 10.2787V10.2787Z" fill="#1D472E"/>
</svg>
