<?xml version="1.0" encoding="utf-8"?>
<!-- Generator: Adobe Illustrator 27.0.1, SVG Export Plug-In . SVG Version: 6.00 Build 0)  -->
<svg version="1.1" id="Layer_1" xmlns="http://www.w3.org/2000/svg" xmlns:xlink="http://www.w3.org/1999/xlink" x="0px" y="0px"
	 viewBox="0 0 40 40" style="enable-background:new 0 0 40 40;" xml:space="preserve">
<style type="text/css">
	.st0{fill:#1D472E;}
	.st1{fill-rule:evenodd;clip-rule:evenodd;fill:#2EFFB4;}
</style>
<g>
	<path class="st0" d="M40,20c0,11-9,20-20,20S0,31,0,20C0,9,9,0,20,0S40,9,40,20z"/>
	<path class="st1" d="M11.7,23.9c1-1,2.4-1.6,3.8-1.6h8.9c1.4,0,2.8,0.6,3.8,1.6c1,1,1.6,2.4,1.6,3.8V30c0,0.6-0.4,1-1,1
		c-0.6,0-1-0.4-1-1v-2.2c0-0.9-0.4-1.8-1-2.4c-0.6-0.6-1.5-1-2.4-1h-8.9c-0.9,0-1.8,0.4-2.4,1c-0.6,0.6-1,1.5-1,2.4V30
		c0,0.6-0.4,1-1,1c-0.6,0-1-0.4-1-1v-2.2C10.1,26.3,10.7,24.9,11.7,23.9z"/>
	<path class="st1" d="M20,11c-1.9,0-3.4,1.5-3.4,3.4s1.5,3.4,3.4,3.4s3.4-1.5,3.4-3.4S21.9,11,20,11z M14.6,14.4
		c0-3,2.4-5.4,5.4-5.4s5.4,2.4,5.4,5.4c0,3-2.4,5.4-5.4,5.4S14.6,17.5,14.6,14.4z"/>
</g>
</svg>
