<svg width="56" height="56" viewBox="0 0 56 56" fill="none" xmlns="http://www.w3.org/2000/svg">
<path d="M56 28C56 43.464 43.464 56 28 56C12.536 56 0 43.464 0 28C0 12.536 12.536 0 28 0C43.464 0 56 12.536 56 28Z" fill="#1D472E"/>
<path fill-rule="evenodd" clip-rule="evenodd" d="M16.671 33.7818C18.0254 32.4274 19.8624 31.6665 21.7779 31.6665H34.2223C36.1378 31.6665 37.9748 32.4274 39.3292 33.7818C40.6836 35.1363 41.4445 36.9733 41.4445 38.8887V41.9998C41.4445 42.5521 40.9968 42.9998 40.4445 42.9998C39.8923 42.9998 39.4445 42.5521 39.4445 41.9998V38.8887C39.4445 37.5037 38.8944 36.1754 37.915 35.1961C36.9356 34.2167 35.6073 33.6665 34.2223 33.6665H21.7779C20.3929 33.6665 19.0646 34.2167 18.0852 35.1961C17.1059 36.1754 16.5557 37.5037 16.5557 38.8887V41.9998C16.5557 42.5521 16.1079 42.9998 15.5557 42.9998C15.0034 42.9998 14.5557 42.5521 14.5557 41.9998V38.8887C14.5557 36.9733 15.3166 35.1363 16.671 33.7818Z" fill="#2EFFB4"/>
<path fill-rule="evenodd" clip-rule="evenodd" d="M27.9996 15C25.1154 15 22.7773 17.3381 22.7773 20.2222C22.7773 23.1064 25.1154 25.4444 27.9996 25.4444C30.8837 25.4444 33.2218 23.1064 33.2218 20.2222C33.2218 17.3381 30.8837 15 27.9996 15ZM20.7773 20.2222C20.7773 16.2335 24.0108 13 27.9996 13C31.9883 13 35.2218 16.2335 35.2218 20.2222C35.2218 24.2109 31.9883 27.4444 27.9996 27.4444C24.0108 27.4444 20.7773 24.2109 20.7773 20.2222Z" fill="#2EFFB4"/>
</svg>
