<?xml version="1.0" standalone="no"?>
<!DOCTYPE svg PUBLIC "-//W3C//DTD SVG 1.1//EN" "http://www.w3.org/Graphics/SVG/1.1/DTD/svg11.dtd" >
<svg xmlns="http://www.w3.org/2000/svg">
<metadata>Generated by IcoMoon</metadata>
<defs>
<font id="icomoon" horiz-adv-x="1024">
<font-face units-per-em="1024" ascent="960" descent="-64" />
<missing-glyph horiz-adv-x="1024" />
<glyph unicode="&#x20;" horiz-adv-x="512" d="" />
<glyph unicode="&#xe900;" glyph-name="Arrow-circle-right" horiz-adv-x="1003" d="M501.551 813.684c-196.207 0-355.265-159.057-355.265-355.266 0-196.207 159.059-355.265 355.265-355.265s355.265 159.059 355.265 355.265c0 196.209-159.059 355.266-355.265 355.266zM104.49 458.418c0 219.291 177.771 397.062 397.061 397.062s397.061-177.771 397.061-397.062c0-219.291-177.771-397.061-397.061-397.061s-397.061 177.771-397.061 397.061zM528.57 598.582c8.161 8.163 21.393 8.163 29.554 0l125.388-125.388c8.161-8.161 8.161-21.391 0-29.554l-125.388-125.388c-8.161-8.161-21.393-8.161-29.554 0-8.161 8.163-8.161 21.393 0 29.554l89.713 89.713h-283.915c-11.542 0-20.898 9.358-20.898 20.898 0 11.542 9.356 20.898 20.898 20.898h283.915l-89.713 89.713c-8.161 8.163-8.161 21.393 0 29.554z" />
<glyph unicode="&#xe902;" glyph-name="Arrow-down" horiz-adv-x="931" d="M465.424 890.045c25.707 0 46.545-20.839 46.545-46.545v-585.812l192.058 192.058c18.177 18.177 47.648 18.177 65.825 0s18.178-47.649 0-65.826l-271.515-271.515c-18.177-18.177-47.649-18.177-65.826 0l-271.515 271.515c-18.177 18.177-18.177 47.648 0 65.826s47.649 18.177 65.826 0l192.057-192.058v585.812c0 25.706 20.839 46.545 46.545 46.545z" />
<glyph unicode="&#xe903;" glyph-name="Arrow-right" d="M563.392 780.605c18.746 18.745 49.137 18.745 67.882 0l298.665-298.667c9.005-9.002 14.061-21.211 14.061-33.941s-5.056-24.94-14.061-33.941l-298.665-298.664c-18.745-18.746-49.137-18.746-67.882 0s-18.745 49.133 0 67.878l216.723 216.727h-652.115c-26.509 0-48 21.491-48 48s21.491 48 48 48h652.115l-216.723 216.726c-18.745 18.745-18.745 49.137 0 67.882z" />
<glyph unicode="&#xe904;" glyph-name="Arrows-expand" d="M122.687 789.336c0 26.51 21.491 48 48 48h170.667c26.509 0 48-21.49 48-48s-21.491-48-48-48h-54.785l131.393-131.392c18.745-18.745 18.745-49.137 0-67.882s-49.137-18.745-67.882 0l-131.393 131.392v-54.784c0-26.51-21.49-48-48-48s-48 21.49-48 48v170.666zM682.688 837.336h170.669c26.509 0 48-21.49 48-48v-170.666c0-26.51-21.491-48-48-48-26.515 0-48 21.49-48 48v54.784l-131.392-131.392c-18.746-18.745-49.14-18.745-67.885 0s-18.746 49.137 0 67.882l131.392 131.392h-54.784c-26.509 0-48.001 21.491-48.001 48s21.492 48 48.001 48zM417.962 353.944c18.745-18.745 18.745-49.137 0-67.883l-131.393-131.392h54.785c26.509 0 48-21.491 48-48s-21.491-48-48-48h-170.667c-26.509 0-48 21.491-48 48v170.669c0 26.509 21.491 47.998 48 47.998s48-21.489 48-47.998v-54.784l131.393 131.39c18.745 18.745 49.137 18.745 67.882 0zM606.080 353.944c18.745 18.745 49.139 18.745 67.885 0l131.392-131.39v54.784c0 26.509 21.485 47.998 48 47.998 26.509 0 48-21.489 48-47.998v-170.669c0-26.509-21.491-48-48-48h-170.669c-26.509 0-48.001 21.491-48.001 48s21.492 48 48.001 48h54.784l-131.392 131.392c-18.746 18.746-18.746 49.138 0 67.883z" />
<glyph unicode="&#xe905;" glyph-name="Arrow-up" horiz-adv-x="931" d="M432.512 876.413c18.177 18.177 47.649 18.177 65.826 0l271.515-271.515c18.178-18.177 18.178-47.648 0-65.825s-47.648-18.178-65.825 0l-192.058 192.057v-585.811c0-25.707-20.838-46.545-46.545-46.545s-46.545 20.838-46.545 46.545v585.811l-192.057-192.057c-18.177-18.178-47.648-18.178-65.826 0s-18.177 47.648 0 65.825l271.515 271.515z" />
<glyph unicode="&#xe906;" glyph-name="Bookmark" horiz-adv-x="637" d="M14.412 941.551h607.712v-997.86l-303.857 213.7-303.855-213.7v997.86zM177.007 736.289h-20.757v-41.514h324.036v41.514h-303.28zM177.007 597.911h-20.757v-41.514h324.036v41.514h-303.28zM177.007 459.532h-20.757v-41.514h162.596v41.514h-141.839z" />
<glyph unicode="&#xe907;" d="M1024 447.974c0-282.77-229.23-512-512-512s-512 229.23-512 512c0 282.77 229.23 512.001 512 512.001s512-229.23 512-512.001z" />
<glyph unicode="&#xe908;" d="M581.302 645.276c9.997-9.997 9.997-26.207 0-36.204l-161.098-161.098 161.098-161.098c9.997-9.997 9.997-26.207 0-36.204s-26.207-9.997-36.204 0l-179.2 179.2c-9.997 9.997-9.997 26.207 0 36.204l179.2 179.2c9.997 9.999 26.207 9.999 36.204 0z" />
<glyph unicode="&#xe909;" d="M1024 447.974c0-282.77-229.23-512-512-512s-512 229.23-512 512c0 282.77 229.23 512.001 512 512.001s512-229.23 512-512.001z" />
<glyph unicode="&#xe90a;" d="M442.698 250.673c-9.997 9.997-9.997 26.207 0 36.204l161.098 161.098-161.098 161.098c-9.997 9.997-9.997 26.207 0 36.204 9.997 9.999 26.207 9.999 36.204 0l179.2-179.2c9.997-9.997 9.997-26.207 0-36.204l-179.2-179.2c-9.997-9.997-26.207-9.997-36.204 0z" />
<glyph unicode="&#xe90b;" glyph-name="Chat" horiz-adv-x="993" d="M496.485 763.432c-192.050 0-341.333-137.631-341.333-299.96 0-58.228 18.882-112.736 51.942-159.052 6.001-8.409 7.425-19.251 3.798-28.923l-38.114-101.637 141.562 28.312c6.582 1.316 13.411 0.462 19.465-2.43 48.243-23.052 103.623-36.231 162.679-36.231 192.050 0 341.333 137.632 341.333 299.961s-149.284 299.96-341.333 299.96zM93.092 463.472c0 203.274 184.142 362.021 403.393 362.021s403.394-158.747 403.394-362.021c0-203.273-184.143-362.021-403.394-362.021-64.503 0-125.626 13.594-179.895 37.882l-186.383-37.277c-11.048-2.209-22.426 1.741-29.724 10.324s-9.372 20.449-5.416 30.999l52.080 138.879c-34.266 53.127-54.056 115.032-54.056 181.214zM299.96 463.472c0 17.138 13.893 31.030 31.031 31.030h0.413c17.138 0 31.030-13.892 31.030-31.030s-13.892-31.030-31.030-31.030h-0.413c-17.138 0-31.031 13.892-31.031 31.030zM465.455 463.472c0 17.138 13.892 31.030 31.030 31.030h0.413c17.138 0 31.030-13.892 31.030-31.030s-13.892-31.030-31.030-31.030h-0.413c-17.138 0-31.030 13.892-31.030 31.030zM630.948 463.472c0 17.138 13.895 31.030 31.030 31.030h0.416c17.138 0 31.030-13.892 31.030-31.030s-13.892-31.030-31.030-31.030h-0.416c-17.135 0-31.030 13.892-31.030 31.030z" />
<glyph unicode="&#xe90c;" glyph-name="Chevrondown" d="M179.372 609.941c18.745 18.745 49.137 18.745 67.882 0l264.725-264.726 264.725 264.726c18.746 18.745 49.139 18.745 67.885 0s18.746-49.137 0-67.882l-298.669-298.667c-18.745-18.746-49.137-18.746-67.882 0l-298.666 298.667c-18.746 18.745-18.746 49.137 0 67.882z" />
<glyph unicode="&#xe90d;" glyph-name="Chevron-down" d="M179.372 609.941c18.745 18.745 49.137 18.745 67.882 0l264.725-264.726 264.725 264.726c18.746 18.745 49.139 18.745 67.885 0s18.746-49.137 0-67.882l-298.669-298.667c-18.745-18.746-49.137-18.746-67.882 0l-298.666 298.667c-18.746 18.745-18.746 49.137 0 67.882z" />
<glyph unicode="&#xe90e;" glyph-name="Chevron-left" d="M673.939 780.605c18.746-18.746 18.746-49.137 0-67.882l-264.724-264.726 264.724-264.727c18.746-18.746 18.746-49.133 0-67.878s-49.135-18.746-67.88 0l-298.667 298.664c-18.745 18.745-18.745 49.137 0 67.882l298.667 298.667c18.745 18.745 49.135 18.745 67.88 0z" />
<glyph unicode="&#xe90f;" glyph-name="Chevron-right" d="M350.059 115.392c-18.745 18.746-18.745 49.139 0 67.885l264.726 264.726-264.726 264.726c-18.745 18.745-18.745 49.137 0 67.882s49.137 18.745 67.882 0l298.667-298.667c18.746-18.745 18.746-49.137 0-67.882l-298.667-298.669c-18.745-18.739-49.137-18.739-67.882 0z" />
<glyph unicode="&#xe910;" glyph-name="Chevron-up" d="M844.627 286.061c-18.746-18.746-49.133-18.746-67.878 0l-264.728 264.724-264.726-264.724c-18.746-18.746-49.137-18.746-67.882 0s-18.746 49.135 0 67.88l298.667 298.667c18.745 18.745 49.137 18.745 67.882 0l298.666-298.667c18.746-18.745 18.746-49.135 0-67.88z" />
<glyph unicode="&#xe911;" d="M1024 448c0-282.769-229.231-512-512-512s-512 229.231-512 512c0 282.77 229.23 512 512 512s512-229.23 512-512z" />
<glyph unicode="&#xe912;" d="M302.706 550.627c12.497 12.497 32.758 12.497 45.255 0l164.039-164.038 164.041 164.038c12.497 12.497 32.755 12.497 45.252 0s12.497-32.756 0-45.254l-186.667-186.667c-12.497-12.497-32.755-12.497-45.252 0l-186.668 186.667c-12.497 12.497-12.497 32.757 0 45.254z" />
<glyph unicode="&#xe913;" horiz-adv-x="999" d="M999.024 460.458c0-275.873-223.639-499.512-499.512-499.512s-499.512 223.639-499.512 499.512c0 275.872 223.639 499.512 499.512 499.512s499.512-223.639 499.512-499.512z" />
<glyph unicode="&#xe914;" horiz-adv-x="999" d="M266.415 460.46c0 28.16 22.83 50.99 50.993 50.99 28.16 0 50.99-22.83 50.99-50.99 0-28.162-22.83-50.993-50.99-50.993-28.162 0-50.993 22.83-50.993 50.993zM448.529 460.46c0 28.16 22.828 50.99 50.99 50.99s50.993-22.83 50.993-50.99c0-28.162-22.83-50.993-50.993-50.993s-50.99 22.83-50.99 50.993zM630.642 460.46c0 28.16 22.83 50.99 50.993 50.99s50.993-22.83 50.993-50.99c0-28.162-22.83-50.993-50.993-50.993s-50.993 22.83-50.993 50.993z" />
<glyph unicode="&#xe916;" d="M1024 448c0-282.769-229.231-512-512-512s-512 229.231-512 512c0 282.77 229.23 512 512 512s512-229.23 512-512z" />
<glyph unicode="&#xe917;" d="M739.435 607.159c12.497-12.497 12.497-32.758 0-45.255l-273.067-273.068c-5.999-5.999-14.14-9.37-22.626-9.37s-16.627 3.371-22.628 9.37l-136.533 136.533c-12.497 12.497-12.497 32.759 0 45.257s32.758 12.497 45.255 0l113.906-113.907 250.441 250.44c12.497 12.497 32.755 12.497 45.252 0z" />
<glyph unicode="&#xe918;" glyph-name="Cross" d="M225.83 734.17c16.662 16.663 43.677 16.663 60.339 0l225.83-225.83 225.83 225.83c16.662 16.663 43.677 16.663 60.339 0s16.663-43.677 0-60.339l-225.83-225.83 225.83-225.83c16.663-16.662 16.663-43.677 0-60.339s-43.677-16.663-60.339 0l-225.83 225.83-225.83-225.83c-16.662-16.663-43.677-16.663-60.339 0s-16.663 43.677 0 60.339l225.83 225.83-225.83 225.83c-16.663 16.662-16.663 43.677 0 60.339z" />
<glyph unicode="&#xe919;" glyph-name="Document-Download" d="M300.389 780.8c-18.854 0-34.139-15.285-34.139-34.139v-597.372c0-18.857 15.284-34.14 34.139-34.14h426.692c18.857 0 34.14 15.288 34.14 34.14v405.487l-226.022 226.024h-234.81zM532.7 783.299l0.005-0.008zM163.85 746.661c0 75.408 61.13 136.539 136.539 136.539h238.343c24.893 0 48.773-9.89 66.376-27.494l231.020-231.021c17.608-17.604 27.494-41.48 27.494-66.376v-409.020c0-75.407-61.128-136.54-136.54-136.54h-426.692c-75.408 0-136.539 61.133-136.539 136.54v597.372zM513.736 584.514c28.278 0 51.2-22.923 51.2-51.2v-132.408l40.607 40.602c19.994 19.997 52.413 19.997 72.407 0 19.994-19.994 19.994-52.413 0-72.407l-128.010-128.005c-19.994-19.999-52.412-19.999-72.407 0l-128.008 128.005c-19.995 19.994-19.995 52.413 0 72.407 19.995 19.997 52.413 19.997 72.408 0l40.605-40.602v132.408c0 28.277 22.923 51.2 51.199 51.2z" />
<glyph unicode="&#xe91a;" glyph-name="Document-add" horiz-adv-x="1013" d="M295.588 812.19c-34.982 0-63.34-28.358-63.34-63.34v-591.175c0-34.982 28.358-63.34 63.34-63.34h422.268c34.982 0 63.34 28.358 63.34 63.34v404.778c0 5.599-2.224 10.969-6.184 14.929l-228.624 228.624c-3.96 3.96-9.33 6.184-14.93 6.184h-235.869zM190.021 748.85c0 58.304 47.264 105.567 105.567 105.567h235.869c16.799 0 32.911-6.673 44.789-18.551l228.624-228.625c11.879-11.878 18.552-27.989 18.552-44.788v-404.778c0-58.303-47.264-105.567-105.567-105.567h-422.268c-58.303 0-105.567 47.264-105.567 105.567v591.175zM506.722 558.83c11.661 0 21.113-9.452 21.113-21.113v-105.567h105.567c11.661 0 21.113-9.452 21.113-21.113s-9.452-21.113-21.113-21.113h-105.567v-105.567c0-11.66-9.452-21.113-21.113-21.113s-21.113 9.454-21.113 21.113v105.567h-105.567c-11.661 0-21.113 9.454-21.113 21.113 0 11.661 9.452 21.113 21.113 21.113h105.567v105.567c0 11.661 9.452 21.113 21.113 21.113z" />
<glyph unicode="&#xe91b;" glyph-name="Document-text" d="M298.646 784c-20.618 0-37.333-16.715-37.333-37.333v-597.336c0-20.614 16.714-37.331 37.333-37.331h426.666c20.621 0 37.331 16.717 37.331 37.331v406.787l-227.88 227.882h-236.118zM165.313 746.667c0 73.638 59.695 133.333 133.333 133.333h238.327c24.046 0 47.108-9.553 64.111-26.556l231.006-231.007c17.005-17.004 26.554-40.065 26.554-64.111v-408.996c0-73.638-59.693-133.331-133.331-133.331h-426.666c-73.638 0-133.333 59.693-133.333 133.331v597.336zM335.979 448c0 26.509 21.491 48 48 48h256c26.511 0 48.002-21.491 48.002-48s-21.491-48-48.002-48h-256c-26.509 0-48 21.491-48 48zM335.979 277.331c0 26.509 21.491 48.002 48 48.002h256c26.511 0 48.002-21.493 48.002-48.002s-21.491-48-48.002-48h-256c-26.509 0-48 21.491-48 48z" />
<glyph unicode="&#xe91c;" glyph-name="Dots-horizontal" d="M128 448c0 47.13 38.205 85.333 85.333 85.333s85.333-38.204 85.333-85.333c0-47.13-38.205-85.333-85.333-85.333s-85.333 38.204-85.333 85.333zM426.667 448c0 47.13 38.204 85.333 85.333 85.333s85.333-38.204 85.333-85.333c0-47.13-38.204-85.333-85.333-85.333s-85.333 38.204-85.333 85.333zM725.333 448c0 47.13 38.204 85.333 85.333 85.333s85.333-38.204 85.333-85.333c0-47.13-38.204-85.333-85.333-85.333s-85.333 38.204-85.333 85.333z" />
<glyph unicode="&#xe91d;" glyph-name="Download" d="M218.687 234.662c0-44.179 35.818-80 80-80h426.669c44.179 0 80 35.821 80 80v42.669c0 26.509 21.485 47.999 48 47.999 26.509 0 48-21.491 48-47.999v-42.669c0-97.203-78.803-176-176-176h-426.669c-97.202 0-176 78.797-176 176v42.669c0 26.509 21.491 47.999 48 47.999s48-21.491 48-47.999v-42.669zM307.413 481.939c18.745 18.745 49.137 18.745 67.882 0l88.726-88.726-0.001 396.118c0 26.51 21.491 48 48 48s48-21.49 48-48l0.001-396.118 88.728 88.726c18.746 18.745 49.133 18.745 67.878 0s18.746-49.137 0-67.882l-170.665-170.664c-18.746-18.746-49.137-18.746-67.882 0l-170.667 170.664c-18.745 18.745-18.745 49.137 0 67.882z" />
<glyph unicode="&#xe91e;" glyph-name="downpointer" d="M179.372 609.941c18.745 18.745 49.137 18.745 67.882 0l264.725-264.726 264.725 264.726c18.746 18.745 49.139 18.745 67.885 0s18.746-49.137 0-67.882l-298.669-298.667c-18.745-18.746-49.137-18.746-67.882 0l-298.666 298.667c-18.746 18.745-18.746 49.137 0 67.882z" />
<glyph unicode="&#xe91f;" glyph-name="Expand" d="M128 789.333c0 23.564 19.103 42.667 42.667 42.667h170.667c23.564 0 42.667-19.103 42.667-42.667s-19.103-42.667-42.667-42.667h-67.66l140.497-140.497c16.661-16.663 16.661-43.677 0-60.34-16.663-16.661-43.677-16.661-60.34 0l-140.497 140.497v-67.66c0-23.564-19.103-42.667-42.667-42.667s-42.667 19.103-42.667 42.667v170.667zM682.667 832h170.667c23.565 0 42.667-19.103 42.667-42.667v-170.667c0-23.564-19.102-42.667-42.667-42.667s-42.667 19.103-42.667 42.667v67.66l-140.497-140.497c-16.661-16.661-43.678-16.661-60.339 0-16.661 16.663-16.661 43.677 0 60.34l140.497 140.497h-67.661c-23.565 0-42.667 19.103-42.667 42.667s19.102 42.667 42.667 42.667zM414.17 350.17c16.661-16.661 16.661-43.678 0-60.339l-140.497-140.497h67.66c23.564 0 42.667-19.102 42.667-42.667s-19.103-42.667-42.667-42.667h-170.667c-23.564 0-42.667 19.102-42.667 42.667v170.667c0 23.565 19.103 42.667 42.667 42.667s42.667-19.102 42.667-42.667v-67.661l140.497 140.497c16.663 16.661 43.677 16.661 60.34 0zM609.83 350.17c16.661 16.661 43.678 16.661 60.339 0l140.497-140.497v67.661c0 23.565 19.102 42.667 42.667 42.667s42.667-19.102 42.667-42.667v-170.667c0-23.565-19.102-42.667-42.667-42.667h-170.667c-23.565 0-42.667 19.102-42.667 42.667s19.102 42.667 42.667 42.667h67.661l-140.497 140.497c-16.661 16.661-16.661 43.678 0 60.339z" />
<glyph unicode="&#xe920;" horiz-adv-x="993" d="M992.97 463.475c0-274.202-222.282-496.485-496.485-496.485-274.201 0-496.485 222.282-496.485 496.485 0 274.2 222.284 496.484 496.485 496.484s496.485-222.284 496.485-496.484z" />
<glyph unicode="&#xe921;" horiz-adv-x="993" d="M533.495 547.309v64.487c0 17.796 15.133 32.24 33.776 32.24h33.78v80.607h-67.556c-55.969 0-101.333-43.302-101.333-96.727v-80.607h-67.556v-80.604h67.556v-257.939h101.333v257.939h67.556l33.776 80.604h-101.333z" />
<glyph unicode="&#xe922;" glyph-name="Farm" horiz-adv-x="1371" d="M684.95 834.835l310.168-179.418v-135.066l246.431-102.537v-353.832l-1113.549 1.061v354.481l246.429 102.535v133.363l310.521 179.413zM411.001 634.317v-136.651l-246.429-102.537v-293.55l302.821-0.289v244.345h434.416v-244.758l303.17-0.289v292.833l-246.431 102.535v138.366l-273.607 158.269-273.938-158.275zM865.236 115.024v179.58l-145.77-89.79 145.77-89.79zM818.975 309.063h-268.747l134.373-82.772 134.374 82.772zM503.963 294.607v-179.584l145.772 89.792-145.772 89.792zM551.27 101.21l133.33 82.128 133.742-82.383-267.072 0.254zM586 601.635h197.211v-161.668h-197.211v161.668zM622.572 565.063v-88.525h124.069v88.525h-124.069z" />
<glyph unicode="&#xe923;" glyph-name="Filters" d="M896 704c0-23.564-19.102-42.667-42.667-42.667h-391.283c-17.57-49.715-64.985-85.333-120.717-85.333s-103.145 35.619-120.716 85.333h-49.95c-23.564 0-42.667 19.103-42.667 42.667s19.103 42.667 42.667 42.667h49.95c17.571 49.715 64.984 85.333 120.716 85.333s103.147-35.619 120.717-85.333h391.283c23.565 0 42.667-19.103 42.667-42.667zM896 448c0-23.565-19.102-42.667-42.667-42.667h-49.95c-17.57-49.715-64.986-85.333-120.717-85.333s-103.147 35.618-120.717 85.333h-391.283c-23.564 0-42.667 19.102-42.667 42.667s19.103 42.667 42.667 42.667h391.283c17.57 49.715 64.986 85.333 120.717 85.333s103.147-35.619 120.717-85.333h49.95c23.565 0 42.667-19.102 42.667-42.667zM896 192c0-23.565-19.102-42.667-42.667-42.667h-391.283c-17.57-49.715-64.985-85.333-120.717-85.333s-103.145 35.618-120.716 85.333h-49.95c-23.564 0-42.667 19.102-42.667 42.667s19.103 42.667 42.667 42.667h49.95c17.571 49.715 64.984 85.333 120.716 85.333s103.147-35.618 120.717-85.333h391.283c23.565 0 42.667-19.102 42.667-42.667zM725.333 448c0 23.565-19.102 42.667-42.667 42.667s-42.667-19.102-42.667-42.667c0-23.565 19.102-42.667 42.667-42.667s42.667 19.102 42.667 42.667zM384 704c0 23.564-19.102 42.667-42.667 42.667s-42.667-19.102-42.667-42.667c0-23.564 19.102-42.667 42.667-42.667s42.667 19.103 42.667 42.667zM384 192c0 23.565-19.103 42.667-42.667 42.667s-42.667-19.102-42.667-42.667c0-23.565 19.102-42.667 42.667-42.667s42.667 19.102 42.667 42.667z" />
<glyph unicode="&#xe924;" glyph-name="Fire" d="M484.651 865.243c16.93 13.62 41.391 12.343 56.811-2.967 39.714-39.434 80.388-67.087 121.587-94.263 2.637-1.741 5.286-3.485 7.949-5.236 37.961-24.983 77.862-51.244 112.533-85.914 74.97-74.973 112.469-173.324 112.469-271.529 0-98.21-37.5-196.557-112.469-271.531-149.965-149.961-393.098-149.961-543.060 0-74.972 74.974-112.471 173.321-112.471 271.531 0 98.206 37.498 196.557 112.471 271.529 10.158 10.158 24.745 14.522 38.812 11.612 13.96-2.887 25.548-12.553 30.898-25.751l0.019-0.044 0.020-0.052 0.037-0.092zM310.181 662.724l0.019-0.044c0.070-0.163 0.246-0.567 0.534-1.19 0.577-1.246 1.598-3.356 3.115-6.148 3.041-5.6 8.016-13.843 15.308-23.336 4.897-6.374 10.81-13.277 17.859-20.31-4.214-28.518-5.681-55.201-5.681-78.361h42.667l19.081 38.162c-23.757 11.878-42.133 26.296-56.067 40.199 12.241 82.84 47.66 181.158 137.635 253.547zM511.232 773.958c-68.378-72.141-84.565-168.983-84.565-240.623 0-14.786-7.655-28.52-20.233-36.294s-28.286-8.482-41.513-1.869c-46.249 23.125-78.171 53.438-99.109 79.359-34.99-50.772-52.478-109.942-52.478-169.198 0-76.501 29.151-152.862 87.477-211.187 116.637-116.638 305.743-116.638 422.377 0 58.33 58.325 87.479 134.686 87.479 211.187s-29.15 152.863-87.479 211.189c-28.301 28.302-61.338 50.079-101.163 76.326-1.971 1.3-3.959 2.611-5.965 3.934-32.64 21.533-68.548 45.625-104.828 77.175zM310.291 662.45c0 0 0 0 0 0zM472.205 504.337c5.884 17.404 22.251 29.085 40.623 28.996 43.337-0.209 86.746-16.879 119.851-49.984 33.318-33.318 49.988-77.069 49.988-120.683 0-43.61-16.67-87.36-49.988-120.678-66.65-66.65-174.707-66.65-241.358 0-33.316 33.318-49.987 77.069-49.987 120.678 0 23.565 19.101 42.667 42.665 42.667h54.721l33.485 99.004zM541.47 442.786l-31.723-93.786c-5.858-17.331-22.118-28.996-40.414-28.996l-31.27-0.004c3.657-6.315 8.188-12.262 13.598-17.673 33.323-33.323 87.356-33.323 120.678 0 16.67 16.67 24.994 38.434 24.994 60.339s-8.324 43.669-24.994 60.343c-9.054 9.050-19.61 15.642-30.869 19.776z" />
<glyph unicode="&#xe927;" glyph-name="Home" horiz-adv-x="993" d="M474.543 857.779c12.117 12.118 31.766 12.118 43.883 0l372.364-372.362c12.117-12.12 12.117-31.766 0-43.883-12.117-12.12-31.766-12.12-43.883 0l-29.777 29.774v-338.823c0-39.989-32.414-72.403-72.403-72.403h-496.485c-39.988 0-72.404 32.414-72.404 72.403v338.823l-29.775-29.774c-12.118-12.12-31.765-12.12-43.884 0-12.118 12.117-12.118 31.763 0 43.883l372.364 372.362zM237.899 533.367v-400.884c0-5.713 4.631-10.342 10.343-10.342h124.121c5.713 0 10.342 4.63 10.342 10.342v165.494c0 39.989 32.417 72.406 72.406 72.406h82.745c39.989 0 72.406-32.417 72.406-72.406v-165.494c0-5.713 4.63-10.342 10.342-10.342h124.121c5.713 0 10.342 4.63 10.342 10.342v400.884l-258.585 258.586-258.586-258.586zM548.935 122.141c-0.484 3.376-0.732 6.83-0.732 10.342v165.494c0 5.713-4.633 10.346-10.346 10.346h-82.745c-5.713 0-10.346-4.633-10.346-10.346v-165.494c0-3.513-0.248-6.966-0.732-10.342h104.901z" />
<glyph unicode="&#xe929;" d="M512-64c282.77 0 512 229.23 512 512s-229.23 512-512 512c-282.77 0-512-229.23-512-512s229.23-512 512-512z" />
<glyph unicode="&#xe92a;" d="M1007.104 320c-38.615 51.648-73.518 105.971-104.448 162.56-70.4 105.984-130.816 163.072-204.8 207.36-53.010 27.781-111.69 43.021-171.52 44.543-4.096 5.12-7.936 10.24-11.52 15.616-15.278 17.038-31.427 33.273-48.384 48.64-3.072 2.048-7.168 4.864-11.008 3.584-1.841-0.485-3.425-1.658-4.426-3.278s-1.341-3.562-0.95-5.426c0.937-2.399 2.232-4.643 3.84-6.656 2.317-3.69 4.37-7.539 6.144-11.52 3.246-18.043 8.307-35.711 15.104-52.736v-1.28c0 0-11.52-3.072-14.848 5.632-6.956 15.457-18.481 28.412-33.024 37.12-9.16 8.087-17.17 17.389-23.808 27.648-2.304 3.584-4.864 12.544-10.752 10.496-1.050-0.573-1.917-1.428-2.506-2.468-0.586-1.041-0.873-2.225-0.822-3.42-0.676-7.58-0.676-15.204 0-22.784 1.265-8.935 4.035-17.591 8.192-25.6 3.84-8.96 6.912-18.176 9.984-27.392 6.656-19.199 9.728-17.663 8.448-19.199-5.371-6.484-10.168-13.422-14.336-20.736-2.048-4.608 0-14.336 0-15.616-5.197-7.972-10.929-15.585-17.152-22.784-10.412-15.255-22.147-29.56-35.072-42.752-7.424-7.68-14.592-15.616-16.384-18.176-5.12-7.168-5.632-9.216-5.888-23.040v-7.936c0-4.096 0-6.4-9.472-21.76s-13.312-23.040-20.736-34.048c-26.88-40.704-83.968-131.328-102.4-155.136l-8.704-11.52c-3.018-3.628-5.756-7.48-8.192-11.52-2.986-9.761-2.986-20.191 0-29.952 0.769-9.019 3.45-17.769 7.864-25.669 4.414-7.903 10.46-14.774 17.736-20.155 11.264-14.592 17.408-44.288 58.88-32 0 0 3.584-11.776 25.6-7.68l35.584 13.312c6.533 2.189 12.070 6.636 15.616 12.544 2.086 4.042 3.226 8.507 3.328 13.056 0.172 1.505 0.645 2.964 1.393 4.283 0.748 1.321 1.754 2.476 2.959 3.397 19.2 23.040 78.592 46.080 116.992 76.8 0.602 0.417 1.316 0.643 2.048 0.643s1.446-0.225 2.048-0.643v0c8.753-1.318 17.697 0.113 25.6 4.096 14.848 6.144 19.712 13.312 28.672 14.336 4.746 0.778 9.59 0.778 14.336 0 0 0 5.12-2.56 5.12-3.328 1.347-0.351 2.527-1.167 3.328-2.304 2.762-2.381 5.174-5.14 7.168-8.192 0.714-0.612 1.247-1.411 1.536-2.304 4.984-7.35 9.27-15.148 12.8-23.296 1.792-5.12 5.376-18.688 7.424-27.648 3.005-19.331 4.884-38.82 5.632-58.368 0.036-34.358 3.812-68.608 11.264-102.144 2.56-9.216 4.864-19.712 8.192-35.328 4.347-14.088 6.42-28.78 6.144-43.52-2.299-16.891-5.896-33.58-10.752-49.92-3.84-14.592-7.168-29.44-10.496-44.288 99.973 14.208 193.513 57.661 268.854 124.895s129.119 155.244 154.57 252.961z" />
<glyph unicode="&#xe92b;" d="M1024 448c0-282.769-229.231-512-512-512s-512 229.231-512 512c0 282.77 229.23 512 512 512s512-229.23 512-512z" />
<glyph unicode="&#xe92c;" d="M318.706 641.294c12.497 12.497 32.758 12.497 45.255 0l148.039-148.038 148.041 148.038c12.497 12.497 32.755 12.497 45.252 0s12.497-32.758 0-45.255l-148.036-148.039 148.036-148.041c12.497-12.497 12.497-32.755 0-45.252s-32.755-12.497-45.252 0l-148.041 148.036-148.039-148.036c-12.497-12.497-32.758-12.497-45.255 0s-12.497 32.755 0 45.252l148.038 148.041-148.038 148.039c-12.497 12.497-12.497 32.758 0 45.255z" />
<glyph unicode="&#xe92d;" glyph-name="Info-circle" d="M512 784c-185.567 0-336-150.433-336-336s150.433-336 336-336c185.568 0 336 150.432 336 336s-150.432 336-336 336zM80 448c0 238.587 193.413 432 432 432s432-193.413 432-432c0-238.586-193.414-432-432-432s-432 193.414-432 432zM464 618.667c0 26.509 21.491 48 48 48h0.427c26.509 0 48-21.491 48-48s-21.491-48-48-48h-0.427c-26.509 0-48 21.49-48 48zM421.333 448c0 26.509 21.491 48 48 48h42.667c26.509 0 48-21.491 48-48v-122.959c24-2.653 42.667-22.999 42.667-47.709 0-26.509-21.491-48-48-48h-42.667c-26.509 0-48 21.491-48 48v122.962c-24 2.653-42.667 23-42.667 47.707z" />
<glyph unicode="&#xe92e;" glyph-name="Lightening-bolt" d="M569.011 872.181c16.986-6.063 28.322-22.149 28.322-40.183v-256h256c16.486 0 31.497-9.498 38.558-24.396 7.057-14.898 4.902-32.528-5.534-45.29l-384-469.333c-11.422-13.956-30.383-19.226-47.369-13.163-16.981 6.059-28.322 22.148-28.322 40.179v256h-256c-16.486 0-31.497 9.498-38.557 24.397s-4.905 32.529 5.534 45.291l384.002 469.332c11.418 13.958 30.379 19.228 47.364 13.165zM260.704 405.329h208.629c11.315 0 22.17-4.493 30.17-12.493 8.004-8.004 12.497-18.854 12.497-30.174v-179.136l251.298 307.136h-208.631c-23.565 0-42.667 19.106-42.667 42.667v179.142l-251.296-307.142z" />
<glyph unicode="&#xe92f;" glyph-name="Link" d="M812.070 748.072c-47.904 47.904-125.574 47.904-173.475 0l-46.917-46.916c-18.745-18.746-49.137-18.746-67.882 0s-18.745 49.137 0 67.882l46.916 46.916c85.396 85.395 223.848 85.395 309.243 0s85.395-223.847 0-309.242l-170.669-170.666c-85.394-85.396-223.846-85.396-309.24 0-18.746 18.745-18.746 49.137 0 67.882s49.137 18.745 67.882 0c47.904-47.905 125.572-47.905 173.48 0l170.662 170.666c47.904 47.905 47.904 125.572 0 173.477zM556.072 492.072c-47.904 47.904-125.572 47.905-173.477 0l-170.666-170.667c-47.905-47.907-47.905-125.571 0-173.475s125.572-47.904 173.476 0l47 47.002c18.745 18.739 49.137 18.739 67.882 0 18.745-18.746 18.745-49.139 0-67.885l-47-47.002c-85.395-85.395-223.846-85.395-309.241 0v0c-85.395 85.395-85.395 223.846 0 309.242l170.666 170.667c85.395 85.395 223.847 85.395 309.242 0 18.747-18.745 18.747-49.137 0-67.882-18.745-18.745-49.137-18.745-67.882 0z" />
<glyph unicode="&#xe930;" glyph-name="Message" d="M512.001 741.336c-191.039 0-336-136.488-336-293.333 0-56.488 18.295-109.485 50.588-154.729 9.283-13.005 11.486-29.779 5.875-44.742l-29.198-77.856 117.761 23.552c10.179 2.035 20.742 0.717 30.109-3.763 47.594-22.739 102.347-35.795 160.865-35.795 191.039 0 335.999 136.486 335.999 293.334 0 156.845-144.96 293.333-335.999 293.333zM80.001 448.003c0 220.182 198.884 389.333 432 389.333 233.113 0 431.999-169.151 431.999-389.333s-198.886-389.334-431.999-389.334c-66.915 0-130.508 13.722-187.34 38.381l-187.247-37.446c-17.090-3.418-34.69 2.694-45.98 15.968-11.29 13.28-14.497 31.635-8.378 47.955l50.922 135.789c-34.241 55.661-53.978 120.005-53.978 188.687zM293.334 448.003c0 26.509 21.491 48 48 48h0.427c26.51 0 48-21.491 48-48s-21.49-48-48-48h-0.427c-26.509 0-48 21.491-48 48zM464.001 448.003c0 26.509 21.491 48 48 48h0.427c26.509 0 48-21.491 48-48s-21.491-48-48-48h-0.427c-26.509 0-48 21.491-48 48zM634.668 448.003c0 26.509 21.492 48 48.001 48h0.422c26.515 0 48-21.491 48-48s-21.485-48-48-48h-0.422c-26.509 0-48.001 21.491-48.001 48z" />
<glyph unicode="&#xe931;" glyph-name="Paper-clip" d="M542.093 759.527l-273.816-281.14c-87.478-87.475-87.479-229.303-0.002-316.779 87.477-87.479 229.308-87.479 316.783 0l267.008 266.377c12.51 12.484 32.772 12.459 45.257-0.051 12.48-12.514 12.454-32.772-0.055-45.257l-266.953-266.325c-0.004-0.004 0 0.004 0 0-112.474-112.461-294.827-112.469-407.295 0-112.42 112.418-112.471 294.656-0.154 407.138l273.825 281.151c79.147 79.146 207.471 79.144 286.618-0.002 79.091-79.094 79.142-207.298 0.154-286.457l-273.826-281.152c-45.824-45.824-120.115-45.82-165.937 0-45.821 45.824-45.822 120.115 0 165.935l280.992 280.995c12.497 12.497 32.759 12.497 45.257 0s12.497-32.758 0-45.255l-280.993-280.992c-20.828-20.83-20.828-54.601 0-75.426 20.784-20.783 54.455-20.83 75.293-0.132l273.805 281.128c54.153 54.153 54.153 141.949 0 196.102-54.106 54.105-141.798 54.153-195.959 0.143z" />
<glyph unicode="&#xe932;" glyph-name="Photograph" horiz-adv-x="1013" d="M147.794 706.623v-422.264c0-0.003 0-0.005 0-0.007v-84.45c0-58.303 47.264-105.567 105.567-105.567h506.722c58.303 0 105.567 47.264 105.567 105.567v506.722c0 58.304-47.264 105.567-105.567 105.567h-506.722c-58.303 0-105.567-47.263-105.567-105.567zM190.021 275.61l187.46 187.46c24.735 24.735 64.84 24.735 89.576 0l109.17-109.17c0.006-0.006 0.014-0.013 0.020-0.020s0.013-0.013 0.020-0.020l84.434-84.434c8.245-8.245 21.614-8.245 29.859 0s8.246 21.614 0 29.86l-69.524 69.523 52.034 52.034c24.735 24.735 64.84 24.735 89.576 0l60.779-60.779v-160.162c0-34.982-28.358-63.34-63.34-63.34h-506.722c-34.982 0-63.34 28.358-63.34 63.34v75.708zM591.175 398.669l-94.26 94.26c-41.227 41.226-108.068 41.226-149.295 0l-157.6-157.6v371.295c0 34.982 28.358 63.34 63.34 63.34h506.722c34.982 0 63.34-28.358 63.34-63.34v-286.841l-30.92 30.92c-41.227 41.226-108.068 41.226-149.295 0l-52.033-52.033zM570.062 622.17c0-11.66 9.452-21.113 21.113-21.113h0.422c11.661 0 21.113 9.454 21.113 21.113 0 11.661-9.452 21.113-21.113 21.113h-0.422c-11.661 0-21.113-9.452-21.113-21.113z" />
<glyph unicode="&#xe933;" glyph-name="Plus" d="M512.021 837.336c26.509 0 48-21.49 48-48l-0.001-293.333h293.336c26.509 0 48-21.491 48-48s-21.491-48-48-48h-293.336v-293.334c0-26.509-21.49-48-48-48s-48 21.491-48 48v293.334h-293.333c-26.509 0-48 21.491-48 48s21.491 48 48 48h293.333l0.001 293.333c0 26.51 21.49 48 48 48z" />
<glyph unicode="&#xe934;" glyph-name="QuotationMarks" horiz-adv-x="1280" d="M0-64v516.284c-0.079 69.081 13.618 137.47 40.276 201.096 65.402 156.020 202.557 273.035 372.681 306.054 28.105 5.447 45.868-29.757 24.873-49.387-24.833-23.262-47.549-48.724-67.875-76.081-112.169-151.141-117.622-316.040-116.329-379.611l258.375-0.001v-518.355h-512zM768-64v516.284c-0.082 69.081 13.619 137.47 40.274 201.096 65.403 156.020 202.557 273.035 372.68 306.054 28.109 5.447 45.87-29.757 24.878-49.387-24.837-23.262-47.549-48.724-67.876-76.081-112.169-151.141-117.622-316.040-116.332-379.611l258.376-0.001v-518.355h-512z" />
<glyph unicode="&#xe936;" glyph-name="Report" horiz-adv-x="797" d="M554.393 920.361l202.563-203.221h-149.545c-6.97-0.024-13.875 1.33-20.319 3.986s-12.298 6.558-17.225 11.484c-4.928 4.925-8.832 10.778-11.487 17.218s-4.010 13.342-3.986 20.307v150.226zM772.293 695.197v-675.090c0.015-7.753-1.499-15.44-4.454-22.616-2.955-7.168-7.3-13.692-12.778-19.185s-11.988-9.852-19.156-12.837c-7.167-2.977-14.851-4.513-22.613-4.52h-629.048c-15.704 0-30.765 6.232-41.868 17.335-11.103 11.096-17.341 26.156-17.341 41.845v855.643c0 15.695 6.237 30.749 17.341 41.848s26.164 17.336 41.868 17.336h448.206v-164.763c-0.032-9.855 1.886-19.62 5.643-28.731 3.759-9.117 9.285-17.4 16.26-24.372s15.261-12.496 24.379-16.254c9.114-3.755 18.88-5.672 28.737-5.64h164.825zM794.236 695.606c0.029 9.617-3.73 18.859-10.474 25.72l-224.377 225.108c-6.864 6.739-16.11 10.499-25.729 10.466h-449.412c-21.521 0-42.162-8.546-57.382-23.76s-23.77-35.85-23.77-57.367v-855.643c0-21.511 8.551-42.152 23.77-57.366s35.86-23.757 57.382-23.757h629.070c10.644 0.007 21.186 2.121 31.009 6.203 9.83 4.089 18.761 10.064 26.273 17.605 7.519 7.534 13.473 16.479 17.532 26.317 4.052 9.838 6.129 20.385 6.107 31.027v675.448zM168.215 706.241c0 6.059 4.912 10.971 10.971 10.971h211.787c6.059 0 10.971-4.912 10.971-10.971s-4.912-10.971-10.971-10.971h-211.787c-6.059 0-10.971 4.912-10.971 10.971zM168.215 567.246c0 6.059 4.912 10.971 10.971 10.971h436.319c6.060 0 10.971-4.912 10.971-10.971s-4.912-10.971-10.971-10.971h-436.319c-6.059 0-10.971 4.912-10.971 10.971zM168.215 428.254c0 6.059 4.912 10.971 10.971 10.971h436.319c6.060 0 10.971-4.912 10.971-10.971s-4.912-10.971-10.971-10.971h-436.319c-6.059 0-10.971 4.912-10.971 10.971zM168.215 289.186c0 6.059 4.912 10.971 10.971 10.971h436.319c6.060 0 10.971-4.912 10.971-10.971s-4.912-10.971-10.971-10.971h-436.319c-6.059 0-10.971 4.912-10.971 10.971zM168.215 150.192c0 6.064 4.912 10.971 10.971 10.971h436.319c6.060 0 10.971-4.908 10.971-10.971 0-6.056-4.912-10.971-10.971-10.971h-436.319c-6.059 0-10.971 4.915-10.971 10.971z" />
<glyph unicode="&#xe937;" glyph-name="Search" d="M426.667 784c-138.44 0-250.667-112.227-250.667-250.667s112.227-250.664 250.667-250.664c138.439 0 250.664 112.225 250.664 250.664s-112.225 250.667-250.664 250.667zM80 533.333c0 191.459 155.208 346.667 346.667 346.667s346.664-155.208 346.664-346.667c0-78.42-26.035-150.759-69.939-208.842l226.547-226.552c18.746-18.746 18.746-49.133 0-67.878s-49.133-18.746-67.878 0l-226.552 226.547c-58.083-43.904-130.421-69.939-208.842-69.939-191.459 0-346.667 155.206-346.667 346.664z" />
<glyph unicode="&#xe938;" glyph-name="Search-circle" d="M331.277 287.39c-5.554-5.554-5.554-14.559 0-20.113s14.559-5.554 20.113 0l-20.113 20.113zM668.444 490.667c0-62.838-50.94-113.778-113.778-113.778v-28.444c78.546 0 142.222 63.676 142.222 142.222h-28.444zM440.889 490.667c0 62.838 50.94 113.778 113.778 113.778v28.444c-78.546 0-142.222-63.676-142.222-142.222h28.444zM554.667 604.444c62.838 0 113.778-50.94 113.778-113.778h28.444c0 78.546-63.676 142.222-142.222 142.222v-28.444zM454.1 410.213l-122.823-122.823 20.113-20.113 122.823 122.823-20.113 20.113zM554.667 376.889c-31.423 0-59.847 12.719-80.454 33.324l-20.113-20.113c25.722-25.721 61.298-41.655 100.567-41.655v28.444zM474.213 410.213c-20.605 20.607-33.324 49.031-33.324 80.454h-28.444c0-39.269 15.935-74.844 41.655-100.567l20.113 20.113zM881.778 448c0-204.223-165.555-369.778-369.778-369.778v-28.444c219.932 0 398.222 178.29 398.222 398.222h-28.444zM512 78.222c-204.223 0-369.778 165.555-369.778 369.778h-28.444c0-219.932 178.29-398.222 398.222-398.222v28.444zM142.222 448c0 204.223 165.555 369.778 369.778 369.778v28.444c-219.932 0-398.222-178.29-398.222-398.222h28.444zM512 817.778c204.223 0 369.778-165.555 369.778-369.778h28.444c0 219.932-178.29 398.222-398.222 398.222v-28.444z" />
<glyph unicode="&#xe939;" d="M1024 448c0-282.769-229.231-512-512-512s-512 229.231-512 512c0 282.77 229.23 512 512 512s512-229.23 512-512z" />
<glyph unicode="&#xe93a;" d="M489.374 698.132c12.497 12.497 32.755 12.497 45.252 0l170.667-170.666c12.497-12.497 12.497-32.759 0-45.257s-32.755-12.497-45.252 0l-116.041 116.040v-377.856c0-17.673-14.327-32-32-32s-32 14.327-32 32v377.856l-116.039-116.040c-12.497-12.497-32.758-12.497-45.255 0s-12.497 32.759 0 45.257l170.668 170.666z" />
<glyph unicode="&#xe93b;" glyph-name="Share" horiz-adv-x="975" d="M731.468 789.327c-40.399 0-73.148-32.751-73.148-73.151 0-11.85 2.779-22.909 7.68-32.692 12.069-24.091 36.903-40.459 65.468-40.459 40.399 0 73.153 32.751 73.153 73.151s-32.753 73.151-73.153 73.151zM560.796 716.177c0 94.261 76.41 170.674 170.672 170.674s170.676-76.414 170.676-170.674c0-94.261-76.415-170.675-170.676-170.675-49.137 0-93.374 20.769-124.479 53.918l-195.052-97.526c1.68-9.61 2.556-19.483 2.556-29.541s-0.875-19.934-2.556-29.545l195.052-97.524c31.105 33.148 75.342 53.916 124.479 53.916 94.262 0 170.676-76.41 170.676-170.672s-76.415-170.676-170.676-170.676c-94.262 0-170.672 76.415-170.672 170.676 0 10.060 0.873 19.929 2.555 29.54l-195.054 97.529c-31.105-33.153-75.343-53.921-124.479-53.921-94.261 0-170.674 76.415-170.674 170.676s76.414 170.674 170.674 170.674c49.136 0 93.375-20.768 124.479-53.918l195.054 97.526c-1.682 9.61-2.555 19.483-2.555 29.542zM243.817 545.502c-40.4 0-73.151-32.75-73.151-73.15s32.751-73.153 73.151-73.153c28.567 0 53.4 16.369 65.469 40.458 4.901 9.787 7.682 20.846 7.682 32.695s-2.781 22.909-7.682 32.691c-12.070 24.092-36.902 40.459-65.469 40.459zM731.468 301.675c-28.565 0-53.399-16.364-65.468-40.458-4.901-9.782-7.68-20.841-7.68-32.69 0-40.404 32.748-73.153 73.148-73.153s73.153 32.748 73.153 73.153c0 40.399-32.753 73.148-73.153 73.148z" />
<glyph unicode="&#xe93c;" glyph-name="Sparkles" horiz-adv-x="993" d="M206.869 866.868c17.137 0 31.030-13.893 31.030-31.030v-51.717h51.717c17.138 0 31.029-13.893 31.029-31.030s-13.892-31.030-31.029-31.030h-51.717v-51.717c0-17.137-13.893-31.031-31.030-31.031s-31.030 13.894-31.030 31.031v51.717h-51.717c-17.137 0-31.030 13.893-31.030 31.030s13.893 31.030 31.030 31.030h51.717v51.717c0 17.137 13.893 31.030 31.030 31.030zM537.858 866.868c13.359 0 25.215-8.547 29.438-21.218l89.889-269.662 222.559-83.459c12.111-4.543 20.136-16.12 20.136-29.054 0-12.937-8.024-24.514-20.136-29.057l-222.559-83.459-89.889-269.663c-4.223-12.67-16.080-21.215-29.438-21.215-13.355 0-25.212 8.546-29.438 21.215l-89.885 269.663-222.561 83.459c-12.111 4.543-20.135 16.12-20.135 29.057 0 12.933 8.024 24.511 20.135 29.054l222.561 83.459 89.885 269.662c4.226 12.671 16.083 21.218 29.438 21.218zM537.858 737.711l-65.13-195.391c-2.96-8.884-9.775-15.956-18.544-19.242l-158.941-59.603 158.941-59.606c8.769-3.286 15.583-10.358 18.544-19.242l65.13-195.392 65.133 195.392c2.96 8.884 9.775 15.956 18.541 19.242l158.943 59.606-158.943 59.603c-8.766 3.286-15.58 10.358-18.541 19.242l-65.133 195.391zM248.242 287.635c17.137 0 31.030-13.892 31.030-31.030v-51.718h51.718c17.138 0 31.030-13.892 31.030-31.030s-13.892-31.030-31.030-31.030h-51.718v-51.715c0-17.138-13.893-31.030-31.030-31.030s-31.030 13.892-31.030 31.030v51.715h-51.717c-17.137 0-31.030 13.892-31.030 31.030s13.893 31.030 31.030 31.030h51.717v51.718c0 17.138 13.893 31.030 31.030 31.030z" />
<glyph unicode="&#xe93d;" glyph-name="Star" d="M412.357 885.874c23.723 73.001 126.999 73.001 150.722 0l69.559-214.055 225.075-0.009c76.761-0.003 108.676-98.225 46.577-143.345l-182.087-132.304 69.544-214.060c23.718-73.001-59.836-133.705-121.934-88.591l-182.096 132.286-182.093-132.286c-62.101-45.115-145.653 15.589-121.936 88.591l69.544 214.060-182.084 132.304c-62.097 45.12-30.183 143.342 46.576 143.345l225.074 0.009 69.56 214.055zM487.717 802.225l-56.276-173.179c-10.609-32.646-41.031-54.749-75.358-54.75l-182.093-0.007 147.312-107.037c27.77-20.178 39.39-55.94 28.784-88.591l-56.263-173.183 147.32 107.028c27.771 20.178 65.375 20.178 93.145 0l147.324-107.028-56.266 173.183c-10.606 32.651 1.014 68.413 28.784 88.591l147.315 107.037-182.096 0.007c-34.324 0.001-64.746 22.104-75.357 54.75l-56.276 173.179z" />
<glyph unicode="&#xe940;" glyph-name="Trash" d="M352 789.333c0 41.237 33.429 74.667 74.667 74.667h170.667c41.237 0 74.667-33.429 74.667-74.667v-96h138.338c0.196 0.002 0.393 0.002 0.593 0h42.402c17.673 0 32-14.327 32-32s-14.327-32-32-32h-12.873l-34.88-488.358c-4.386-61.402-55.479-108.975-117.035-108.975h-353.091c-61.558 0-112.649 47.573-117.035 108.975l-34.883 488.358h-12.871c-17.673 0-32 14.327-32 32s14.327 32 32 32h42.402c0.199 0.002 0.397 0.002 0.595 0h138.336v96zM247.7 629.333l34.557-483.802c1.993-27.908 25.217-49.532 53.198-49.532h353.091c27.981 0 51.204 21.623 53.197 49.532l34.556 483.802h-528.598zM608 693.333h-192v96c0 5.891 4.776 10.667 10.667 10.667h170.667c5.892 0 10.667-4.776 10.667-10.667v-96zM426.667 522.667c17.673 0 32-14.327 32-32v-256c0-17.673-14.327-32-32-32s-32 14.327-32 32v256c0 17.673 14.327 32 32 32zM597.333 522.667c17.673 0 32-14.327 32-32v-256c0-17.673-14.327-32-32-32s-32 14.327-32 32v256c0 17.673 14.327 32 32 32z" />
<glyph unicode="&#xe942;" horiz-adv-x="993" d="M992.97 463.475c0-274.202-222.282-496.485-496.485-496.485-274.201 0-496.485 222.282-496.485 496.485 0 274.2 222.284 496.484 496.485 496.484s496.485-222.284 496.485-496.484z" />
<glyph unicode="&#xe943;" horiz-adv-x="993" d="M787.394 641.049c-21.824-9.483-44.916-15.729-68.546-18.544 24.834 14.541 43.508 37.64 52.522 64.968-23.478-13.728-49.121-23.361-75.832-28.485-11.245 11.787-24.771 21.165-39.756 27.562s-31.114 9.68-47.405 9.65c-65.964 0-119.346-52.607-119.346-117.454-0.047-9.021 0.987-18.013 3.078-26.788-47.303 2.219-93.618 14.283-135.987 35.427-42.372 21.144-79.862 50.899-110.074 87.361-10.599-17.868-16.205-38.255-16.23-59.030 0-40.727 21.249-76.729 53.333-97.817-19.009 0.45-37.629 5.48-54.279 14.665v-1.455c0-56.969 41.212-104.361 95.757-115.15-10.256-2.734-20.827-4.121-31.442-4.121-7.533-0.012-15.048 0.717-22.436 2.181 15.164-46.666 59.296-80.607 111.576-81.576-42.48-32.74-94.635-50.434-148.267-50.303-9.52 0.016-19.031 0.58-28.485 1.697 54.56-34.841 117.98-53.267 182.716-53.090 219.831 0 339.928 179.029 339.928 334.302 0 5.092-0.133 10.181-0.375 15.152 23.31 16.579 43.477 37.187 59.55 60.847v0z" />
<glyph unicode="&#xe945;" horiz-adv-x="991" d="M990.968 464.467c0-273.646-221.835-495.484-495.484-495.484s-495.484 221.838-495.484 495.484c0 273.649 221.836 495.485 495.484 495.485s495.484-221.836 495.484-495.485z" />
<glyph unicode="&#xe946;" horiz-adv-x="991" d="M284.15 372.994c26.844 26.845 63.253 41.925 101.214 41.925h220.216c37.964 0 74.372-15.079 101.214-41.925 26.845-26.842 41.925-63.25 41.925-101.214v-55.055c0-18.24-14.789-33.032-33.032-33.032-18.24 0-33.032 14.792-33.032 33.032v55.055c0 20.44-8.119 40.045-22.574 54.5s-34.060 22.574-54.5 22.574h-220.216c-20.44 0-40.045-8.119-54.5-22.574s-22.574-34.060-22.574-54.5v-55.055c0-18.24-14.789-33.032-33.032-33.032s-33.032 14.792-33.032 33.032v55.055c0 37.964 15.081 74.372 41.925 101.214z" />
<glyph unicode="&#xe947;" horiz-adv-x="991" d="M495.494 679.178c-42.565 0-77.074-34.508-77.074-77.075s34.509-77.074 77.074-77.074c42.569 0 77.077 34.505 77.077 77.074s-34.509 77.075-77.077 77.075zM352.355 602.102c0 79.054 64.086 143.14 143.139 143.14 79.056 0 143.142-64.086 143.142-143.14s-64.086-143.139-143.142-143.139c-79.053 0-143.139 64.086-143.139 143.139z" />
<glyph unicode="&#xe948;" d="M1024 448c0-282.77-229.23-512-512-512s-512 229.23-512 512c0 282.77 229.23 512 512 512s512-229.23 512-512z" />
<glyph unicode="&#xe949;" d="M304.841 342.276c24.766 24.766 58.357 38.68 93.383 38.68h227.555c35.026 0 68.617-13.914 93.383-38.68 24.766-24.768 38.68-58.359 38.68-93.383v-56.889c0-10.099-8.187-18.286-18.286-18.286-10.097 0-18.286 8.187-18.286 18.286v56.889c0 25.326-10.059 49.615-27.968 67.522-17.909 17.909-42.198 27.97-67.524 27.97h-227.555c-25.326 0-49.615-10.061-67.524-27.97-17.907-17.907-27.968-42.196-27.968-67.522v-56.889c0-10.099-8.188-18.286-18.286-18.286s-18.286 8.187-18.286 18.286v56.889c0 35.024 13.914 68.615 38.68 93.383z" />
<glyph unicode="&#xe94a;" d="M511.993 685.714c-52.74 0-95.493-42.754-95.493-95.492 0-52.74 42.754-95.492 95.493-95.492s95.492 42.752 95.492 95.492c0 52.738-42.754 95.492-95.492 95.492zM379.928 590.223c0 72.936 59.127 132.063 132.065 132.063 72.936 0 132.063-59.127 132.063-132.063s-59.127-132.063-132.063-132.063c-72.938 0-132.065 59.127-132.065 132.063z" />
<glyph unicode="&#xe94b;" glyph-name="Views" d="M155.508 447.999c52.492-146.194 192.354-250.668 356.5-250.668s304.010 104.474 356.503 250.665c-52.493 146.191-192.358 250.668-356.504 250.668s-304.008-104.476-356.5-250.666zM59.081 462.382c60.472 192.533 240.317 332.282 452.928 332.282s392.459-139.751 452.926-332.285c2.944-9.363 2.944-19.403 0-28.767-60.467-192.531-240.314-332.281-452.925-332.281s-392.458 139.75-452.928 332.285c-2.941 9.363-2.941 19.403 0 28.766zM511.99 527.997c-44.183 0-80-35.817-80-80s35.817-80 80-80c44.182 0 80 35.817 80 80s-35.818 80-80 80zM335.99 447.997c0 97.202 78.797 176 176 176s175.997-78.798 175.997-176c0-97.202-78.796-175.997-175.997-175.997s-176 78.796-176 175.997z" />
<glyph unicode="&#xe94c;" d="M1024 448c0-282.771-229.229-512-512-512s-512 229.229-512 512c0 282.77 229.23 512 512 512s512-229.23 512-512z" />
<glyph unicode="&#xe94d;" d="M318.059 641.941c18.745 18.745 49.137 18.745 67.882 0l126.059-126.059 126.059 126.059c18.748 18.745 49.135 18.745 67.88 0s18.746-49.137 0-67.882l-126.057-126.059 126.057-126.059c18.746-18.748 18.746-49.135 0-67.88s-49.133-18.746-67.88 0l-126.059 126.057-126.059-126.057c-18.745-18.746-49.137-18.746-67.882 0s-18.745 49.133 0 67.88l126.059 126.059-126.059 126.059c-18.745 18.745-18.745 49.137 0 67.882z" />
</font>
</defs>
</svg>
